<?xml version="1.0" encoding="UTF-8" standalone="no"?>
<svg
   xmlns:dc="http://purl.org/dc/elements/1.1/"
   xmlns:cc="http://creativecommons.org/ns#"
   xmlns:rdf="http://www.w3.org/1999/02/22-rdf-syntax-ns#"
   xmlns:svg="http://www.w3.org/2000/svg"
   xmlns="http://www.w3.org/2000/svg"
   xmlns:sodipodi="http://sodipodi.sourceforge.net/DTD/sodipodi-0.dtd"
   xmlns:inkscape="http://www.inkscape.org/namespaces/inkscape"
   width="142.06494"
   height="295.51999"
   overflow="visible"
   version="1.1"
   id="svg8"
   sodipodi:docname="10-lacoste.svg"
   inkscape:version="1.0.2 (e86c870879, 2021-01-15, custom)">
  <metadata
     id="metadata14">
    <rdf:RDF>
      <cc:Work
         rdf:about="">
        <dc:format>image/svg+xml</dc:format>
        <dc:type
           rdf:resource="http://purl.org/dc/dcmitype/StillImage" />
        <dc:title></dc:title>
      </cc:Work>
    </rdf:RDF>
  </metadata>
  <defs
     id="defs12" />
  <sodipodi:namedview
     pagecolor="#ffffff"
     bordercolor="#666666"
     borderopacity="1"
     objecttolerance="10"
     gridtolerance="10"
     guidetolerance="10"
     inkscape:pageopacity="0"
     inkscape:pageshadow="2"
     inkscape:window-width="1912"
     inkscape:window-height="1011"
     id="namedview10"
     showgrid="false"
     fit-margin-top="0"
     fit-margin-left="0"
     fit-margin-right="0"
     fit-margin-bottom="0"
     inkscape:zoom="4.9676929"
     inkscape:cx="71.032466"
     inkscape:cy="147.75747"
     inkscape:window-x="0"
     inkscape:window-y="36"
     inkscape:window-maximized="1"
     inkscape:current-layer="svg8" />
  <g
     id="g19"
     transform="rotate(-90,148.26247,149.19753)">
    <path
       style="marker:none"
       d="m 193.31,52.3 c -1.4,-1.87 -1.64,-5.18 -4.5,-5.47 -2.76,-0.75 -5.51,-1.54 -8.3,-2.2 l -16.4,2.68 -1.92,8.84 26.51,3.46 6.92,4.6 18.06,1.93 8.45,-3.08 c -8.76,-2.82 -17.73,-5.08 -26.25,-8.6 -1.04,-0.48 -1.77,-1.36 -2.57,-2.16 z"
       color="#000000"
       fill="#db0026"
       fill-rule="evenodd"
       overflow="visible"
       id="path2" />
    <path
       d="m 225.53,62.68 c -0.6,-0.77 -1.55,-1.08 -2.2,-1.38 -0.65,-0.3 -0.56,-0.93 -1.1,-1.11 -0.55,-0.18 -1.52,0.95 -2.27,0.71 -0.75,-0.24 -0.7,-1.65 -1.32,-1.85 -0.64,-0.2 -1.76,0.85 -2.34,0.66 -0.6,-0.17 -0.7,-1.64 -1.27,-1.83 -0.56,-0.17 -1.75,0.88 -2.33,0.7 -0.59,-0.2 -0.62,-1.64 -1.27,-1.85 -0.65,-0.2 -1.78,0.88 -2.34,0.68 -0.58,-0.18 -0.64,-1.6 -1.26,-1.82 -0.62,-0.2 -1.77,0.86 -2.34,0.67 -0.6,-0.2 -0.76,-1.67 -1.3,-1.84 -0.55,-0.17 -1.63,0.7 -2.51,0.65 -6.09,-0.57 -8.42,-4.4 -8.83,-3.27 -0.4,1.11 1.27,3.81 3.37,4.72 1.68,0.73 19.82,5.76 20.3,5.98 0.46,0.23 1.6,0.74 1.2,1.4 -0.63,0.85 -2.4,0 -2.86,-0.36 -0.45,-0.38 -0.35,-0.52 -0.78,-0.64 -0.97,-0.23 -1.5,1.55 -2.54,1.3 -0.93,-0.2 -0.87,-2.08 -1.82,-2.3 -1.05,-0.26 -1.52,1.53 -2.52,1.3 -0.83,-0.2 -0.94,-2.1 -1.83,-2.32 -1.02,-0.25 -1.48,1.54 -2.54,1.29 -0.92,-0.21 -0.87,-2.08 -1.82,-2.31 -0.96,-0.23 -1.62,1.5 -2.53,1.3 -0.9,-0.21 -1.03,-2.12 -1.84,-2.3 -0.82,-0.2 -1.47,0.78 -2.57,0.92 0,0 -3.17,0.86 -8.2,-4.38 -5.02,-5.23 -7.08,-6.25 -9.94,-4.11 -4.67,3.47 -7.57,1.17 -8.41,0.14 -1.02,-1.19 0.04,-2.28 0.04,-2.28 0,0 1.49,2.3 3.35,2.34 3.01,0.09 5.28,-4.02 10.44,-4.1 6.53,-0.23 8.23,2.1 10.02,2.28 1.65,0.16 2.2,-0.1 3.35,-0.77 0.92,-0.33 1.72,1.46 2.7,1.1 1.02,-0.39 0.27,-2.2 1.37,-2.6 1.03,-0.38 1.7,1.43 2.7,1.07 1.04,-0.38 0.37,-2.24 1.37,-2.6 1.03,-0.37 1.63,1.46 2.7,1.07 1.07,-0.38 0.37,-2.22 1.35,-2.58 1,-0.37 1.73,1.43 2.72,1.08 0.94,-0.34 0.4,-2.25 1.38,-2.6 1,-0.37 1.66,1.44 2.74,1.05 0.88,-0.31 0.4,-2.23 1.31,-2.58 0.92,-0.34 1.77,1.44 2.73,1.08 0.9,-0.33 0.37,-2.24 1.32,-2.6 1.01,-0.36 1.8,1.42 2.75,1.08 0.94,-0.34 0.23,-1.88 1.46,-2.49 0,0 1.7,-0.56 1.6,-1.81 a 3.98,3.98 0 0 0 -3.18,-3.45 c -2.7,-0.55 -24.03,5.35 -24.31,5.01 -1.96,-3.88 -4.48,-2.8 -4.86,-2.71 -0.4,0.1 -2.77,1.11 -5.41,0.1 -5.18,-2.35 -9.32,3.62 -12.16,2.83 a 9.5,9.5 0 0 0 -5.7,0.06 c -1,0.35 -2.63,1.66 -6.08,0.47 -26.63,-9.1 -47.45,-1.14 -47.45,-1.14 -11.74,3.92 -13.24,0 -13.24,0 0,0 -3.86,-5.25 23.34,-11.5 39.09,-8.99 40.27,-23.85 39.8,-24.79 -0.64,-1.36 -0.88,0.24 -2.17,1.72 -1.08,1.23 -2.34,0.62 -2.34,0.62 -1.23,-0.59 -2.01,0.82 -2.01,0.82 0,0 -1.58,2.45 -2.98,1.06 -1.35,-1.35 -3.13,1.69 -3.8,1.8 -0.8,0.15 -1.19,-0.24 -2.26,-0.73 -1.6,-0.71 -3.33,2.21 -4.21,2.42 -1.35,0.3 -2.3,-1.6 -3.46,-0.8 -3.48,2.4 -4.02,2.74 -4.96,1.8 -0.7,-0.7 -0.8,-1.46 -3.11,0.76 -1.98,1.9 -2.92,2.25 -3.72,1.04 -0.81,-1.21 -0.6,-2.86 -4,0.4 -1.62,1.55 -2.44,1.58 -3.37,0.88 -0.7,-0.53 -0.7,-3.03 -3.13,-0.76 -2.2,2.04 -3.8,2.93 -4.43,1.12 -0.7,-2.04 -3.3,0.37 -3.9,0.94 -0.62,0.57 -1.95,2.07 -2.89,0.52 -0.94,-1.56 -3.18,0.77 -4.51,2.25 -1.03,1.14 -1.86,0.26 -2.95,-0.47 -1.23,-0.85 -4.92,4.3 -5.26,4.62 -0.33,0.29 -0.6,0 -1.44,-0.72 -1.3,-1.1 -4.8,5.02 -5.37,5.42 0,0 -0.24,0.53 -1.2,-0.38 -1.36,-1.3 -8.58,8.2 -11.3,18.97 -3.5,13.79 2.06,24.36 2.06,24.36 0,0 1.67,0.05 2.38,-1.08 l 1.08,-2.43 c 0.88,-2.04 2.32,-1.4 2.32,-1.4 l -3.4,10.14 c -0.55,1.34 -0.22,3.23 0.97,5.01 1.12,1.8 1.9,3.01 2.8,3.84 2.76,2.6 2.47,-0.47 2.55,-0.86 0.32,-1.64 2.14,-0.38 3.58,0.41 2.6,1.46 2.31,-1.76 2.88,-2.81 0.4,-0.76 1.68,-0.8 3.06,0.37 1.08,0.9 2.16,-2.15 2.16,-2.15 1.35,-6.52 -1.82,-7.28 -3.53,-7.37 l -3.47,-0.16 c 0,0 0.22,-1 0.59,-1.92 l 0.15,-0.66 c 3.78,-9.43 -2.54,-11.25 -4.43,-11.1 -2.09,0.2 -1.94,-1.14 -1.94,-1.14 0,0 11.43,-2.25 9.3,9.87 0,0 -0.43,2.1 -0.68,3.2 l 3.14,0.37 c 2.7,0.34 3.18,3.54 3.18,3.54 0,0 9.94,2.62 15.58,1.57 0,0 2.51,-0.6 3.21,-2.16 0,0 3.65,-8.6 14.31,-8.97 0,0 0.38,1.12 -1.33,1.7 -2.04,0.68 -8.84,1.22 -10.25,9.04 v 0.03 a 5.12,5.12 0 0 0 2.97,5.27 c 2.37,1.07 3.2,5.39 3.7,6.55 1.37,3.31 3.44,0.15 3.44,0.15 0,0 1.3,-2.67 2.43,-1.19 1.9,2.5 2.78,1.24 3.21,-0.35 0.47,-1.72 1.16,-2.47 3.15,-0.38 0.85,0.9 2.51,0.2 2.68,-1.34 0.35,-3.42 2.65,-0.7 2.98,-0.57 0.4,0.15 2.81,-0.4 1.46,-4.24 0,0 -1.82,-3.67 -10.05,-5.25 -1.93,-0.37 -1.62,-1.77 -1.62,-1.77 l 1.8,0.26 c 0.55,0.09 5.33,0.62 5.84,0.7 20.07,1.98 35.3,-4.83 35.76,-5.32 15.59,3 36.79,1.97 40.77,0.54 4,-1.41 4.3,-3.75 3.84,-4.37 z M 193.33,37.8 c 0.33,-0.52 0.64,-0.82 0.92,-0.96 1.21,-0.7 1.99,1.46 1.84,1.54 l -0.05,0.02 v 0.01 c -0.2,0.1 -2.53,0.76 -2.76,0.6 -0.46,-0.32 0.06,-1.2 0.06,-1.2 z m -8.86,0.68 c 0,0 0.3,-0.38 0.89,-0.57 0.57,-0.21 1.44,-0.25 2.6,0.5 1.32,0.84 1.28,1.5 1.28,1.5 l -0.16,0.06 c -0.96,0.37 -4.9,0.86 -4.9,0.86 -0.77,-1.41 0.3,-2.35 0.3,-2.35 z M 111,19.42 c 0.67,0.51 0.03,3.45 -0.44,3.01 l -3.4,-1.8 c 0,0 3.16,-1.7 3.84,-1.21 z m -5.53,1.88 c 0.67,0.5 0.04,3.44 -0.43,3 l -3.4,-1.8 c 0,0 3.16,-1.71 3.83,-1.2 z m -1.91,5.74 c 0.67,0.5 0.04,3.45 -0.44,3.03 l -3.4,-1.83 c 0,0 3.16,-1.7 3.84,-1.2 z m -3.24,7.72 -3.4,-1.81 c 0,0 3.16,-1.72 3.83,-1.21 0.68,0.5 0.03,3.45 -0.43,3.02 z m -0.64,5.81 -3.4,-1.8 c 0,0 3.16,-1.71 3.84,-1.22 0.67,0.5 0.04,3.44 -0.44,3.02 z M 99.61,23.34 c 0.68,0.5 0.04,3.44 -0.43,3.02 l -3.4,-1.81 c 0,0 3.16,-1.71 3.83,-1.2 z m -2.95,4.48 c 0.67,0.5 0.04,3.44 -0.43,3.02 l -3.4,-1.8 c 0,0 3.16,-1.73 3.83,-1.22 z m -6.06,7.03 c 0,0 3.17,-1.72 3.83,-1.21 0.68,0.5 0.04,3.44 -0.43,3.01 z m 2.6,7.36 -3.4,-1.81 c 0,0 3.17,-1.7 3.83,-1.2 0.68,0.5 0.05,3.43 -0.44,3.01 z M 90.79,29.86 c 0.67,0.5 0.03,3.44 -0.44,3.01 l -3.39,-1.81 c 0,0 3.15,-1.7 3.83,-1.2 z m -3.06,5.93 c 0.67,0.5 0.04,3.45 -0.44,3.02 l -3.4,-1.8 c 0,0 3.17,-1.7 3.84,-1.22 z m -4.47,7.02 c 0,0 3.16,-1.7 3.83,-1.2 0.68,0.5 0.04,3.44 -0.43,3.02 z m 6.06,6.64 -3.39,-1.81 c 0,0 3.16,-1.71 3.84,-1.21 0.67,0.5 0.03,3.44 -0.45,3.02 z m 4.87,3.94 -3.4,-1.8 c 0,0 3.17,-1.71 3.84,-1.21 0.67,0.49 0.03,3.45 -0.44,3.01 z m 1.53,-6.15 -3.4,-1.82 c 0,0 3.16,-1.7 3.83,-1.21 0.68,0.5 0.04,3.44 -0.43,3.03 z m 4.51,8.81 -3.39,-1.8 c 0,0 3.15,-1.72 3.83,-1.21 0.67,0.5 0.04,3.43 -0.44,3.01 z m 1.63,-5.67 -3.39,-1.8 c 0,0 3.16,-1.7 3.83,-1.2 0.67,0.49 0.04,3.43 -0.44,3 z m 1.13,-5.36 -3.4,-1.81 c 0,0 3.16,-1.7 3.84,-1.2 0.67,0.5 0.03,3.43 -0.44,3 z m 4.77,10.35 -3.4,-1.82 c 0,0 3.16,-1.7 3.84,-1.2 0.68,0.5 0.04,3.45 -0.44,3.02 z m 1.47,-5.65 -3.4,-1.8 c 0,0 3.17,-1.72 3.84,-1.21 0.66,0.48 0.03,3.43 -0.44,3 z m 1.23,-5.98 -3.4,-1.81 c 0,0 3.17,-1.7 3.84,-1.2 0.67,0.5 0.03,3.43 -0.44,3 z m 4.77,10.57 -3.4,-1.81 c 0,0 3.16,-1.71 3.83,-1.21 0.67,0.51 0.03,3.45 -0.43,3.02 z m 1.14,-6.04 -3.4,-1.82 c 0,0 3.17,-1.7 3.84,-1.2 0.67,0.5 0.03,3.42 -0.44,3.02 z m 1.18,-6.2 -3.4,-1.82 c 0,0 3.16,-1.7 3.84,-1.2 0.67,0.51 0.04,3.44 -0.44,3.01 z m 5.1,9.85 -3.39,-1.8 c 0,0 3.16,-1.7 3.83,-1.2 0.68,0.5 0.04,3.43 -0.43,3 z m 0.94,-5.95 -3.4,-1.8 c 0,0 3.16,-1.7 3.82,-1.21 0.7,0.5 0.05,3.45 -0.42,3 z m 1.18,-5.83 -3.4,-1.8 c 0,0 3.16,-1.72 3.83,-1.22 0.67,0.5 0.03,3.45 -0.43,3.02 z m 5.2,10.52 -3.4,-1.8 c 0,0 3.15,-1.72 3.83,-1.22 0.68,0.5 0.04,3.44 -0.43,3.02 z m 0.92,-5.55 -3.4,-1.8 c 0,0 3.17,-1.73 3.84,-1.21 0.67,0.48 0.03,3.44 -0.44,3 z m 1.12,-5.93 -3.4,-1.8 c 0,0 3.16,-1.73 3.84,-1.22 0.67,0.5 0.04,3.44 -0.44,3.02 z m 4.7,11.59 -3.38,-1.81 c 0,0 3.16,-1.72 3.83,-1.2 0.67,0.49 0.03,3.43 -0.44,3 z m 1.13,-5.97 -3.4,-1.8 c 0,0 3.16,-1.72 3.83,-1.21 0.67,0.5 0.03,3.44 -0.43,3.01 z m 1.27,-5.93 -3.4,-1.8 c 0,0 3.16,-1.73 3.84,-1.22 0.67,0.5 0.03,3.44 -0.44,3.02 z m 4.68,11.9 -3.4,-1.82 c 0,0 3.16,-1.7 3.83,-1.2 0.68,0.5 0.05,3.44 -0.43,3.02 z m 1.09,-5.64 -3.4,-1.81 c 0,0 3.16,-1.7 3.83,-1.21 0.68,0.5 0.05,3.45 -0.43,3.02 z m 1.28,-5.76 -3.38,-1.8 c 0,0 3.15,-1.71 3.83,-1.22 0.66,0.5 0.03,3.44 -0.45,3.02 z m 4.28,12.25 -3.4,-1.83 c 0,0 3.17,-1.7 3.84,-1.19 0.68,0.5 0.04,3.44 -0.44,3.02 z m 1.2,-5.47 -3.4,-1.8 c 0,0 3.18,-1.7 3.84,-1.2 0.68,0.5 0.03,3.44 -0.44,3 z m 1.3,-5.58 -3.4,-1.8 c 0,0 3.16,-1.7 3.84,-1.22 0.67,0.5 0.02,3.44 -0.44,3.02 z m 5.3,6.76 -3.4,-1.79 c 0,0 3.16,-1.71 3.84,-1.22 0.67,0.5 0.03,3.44 -0.45,3.01 z"
       fill="#004526"
       id="path4" />
    <path
       d="m 68.99,98.8 c -0.7,-1.89 -2.06,-2.7 -4.52,-2.74 l -11.64,0.01 -16.9,46 h 8.22 c 0.71,0.06 1.37,-0.05 1.96,-0.32 1.6,-0.73 2.39,-2.58 2.62,-3.22 l 2.45,-6.83 h 17 l 3.46,10.36 h 11.13 l -7.06,-22.4 -6.72,-20.87 m -3.43,23.47 H 54.11 c 1.23,-3.38 4.3,-11.94 5.62,-15.4 1.14,3.49 5.8,15.28 5.83,15.4 z M 149.09,95.7 c -13.18,0.02 -22.73,9.9 -22.73,23.5 0,13.3 9.77,23.35 22.73,23.35 12.95,0 23.11,-10.25 23.11,-23.36 0,-13.17 -10.16,-23.49 -23.11,-23.49 m 0.33,36.59 c -6.71,0 -11.97,-5.8 -11.97,-13.22 0,-7.35 5.14,-12.88 11.96,-12.88 6.77,0 11.68,5.41 11.68,12.88 0,7.54 -5.02,13.22 -11.67,13.22 z m 52.57,-17.22 -0.43,-0.13 -4.3,-1.31 -0.64,-0.23 c -3.5,-1.27 -6,-2.33 -6,-4.37 v -0.15 c 0.35,-3.39 6.65,-3.43 6.7,-3.43 3.47,0 6.14,0.54 9.52,1.9 l 0.07,0.02 0.15,0.04 c 0.78,0.16 1.46,0.18 2.01,0.06 l 0.94,-0.36 c 1.34,-0.73 2.68,-4.64 3.19,-6.3 l 0.16,-0.52 -0.4,-0.38 c -0.17,-0.16 -1.16,-0.97 -4.73,-2.3 -3.64,-1.36 -8.8,-1.58 -8.8,-1.58 h -2.54 c -13.29,0 -18.36,8.19 -18.52,13.7 -0.1,5.48 3.01,8.3 7.73,10.87 1.98,1.09 5.58,2.1 8.2,2.83 l 2.7,0.8 c 4.95,1.55 6.84,3.27 6.5,5.95 -0.16,0.88 -1.84,2.35 -5.64,2.35 -2.89,0 -5.5,-0.45 -8.22,-1.4 a 29.03,29.03 0 0 1 -4.08,-2.03 l -0.07,-0.04 -0.15,-0.07 c -0.79,-0.3 -1.5,-0.41 -2.1,-0.36 l -1.05,0.22 c -1.52,0.57 -3.64,4.44 -4.49,6.08 l -0.33,0.65 0.57,0.46 c 0.1,0.06 2.47,1.94 4.47,3.11 a 27.96,27.96 0 0 0 8.14,2.9 c 1.26,0.22 3.27,0.51 6.4,0.51 10.3,0 17.78,-5.21 18.64,-12.97 0.37,-7.05 -3.95,-11.64 -13.6,-14.52 z M 224,96.13 c -0.43,0 -2.68,0.04 -3.97,1.23 -0.6,0.55 -0.9,1.28 -0.9,2.1 l -0.01,7.28 14.04,-0.01 v 35.37 l 11.5,-0.01 v -35.36 h 9.04 c 0.43,0 2.67,-0.05 3.97,-1.24 0.58,-0.56 0.9,-1.27 0.9,-2.1 V 96.13 Z M 26.66,131.69 h -12.9 l -0.05,-31.36 c 0,-1.3 -0.38,-2.34 -1.17,-3.06 -1.25,-1.18 -3.11,-1.17 -3.8,-1.16 l -6.8,-0.01 0.02,45.98 h 28.8 l 0.01,-7.3 c 0,-0.94 -0.4,-3.1 -4.1,-3.1 z m 82.32,-25.79 c 2.79,-0.18 5.14,0 7.35,0.6 1.2,0.4 2.27,0.48 3.18,0.23 l 0.91,-0.41 c 1.3,-0.8 2.21,-4.83 2.65,-7.16 l 0.1,-0.55 -0.47,-0.34 c -0.12,-0.08 -0.48,-0.34 -4.65,-1.46 a 33.99,33.99 0 0 0 -8.85,-1.14 h -0.18 c -9.53,0 -23.87,6.29 -24.29,23.6 v 0.1 C 85.15,136.7 99.5,143 109.03,143 h 0.17 c 1.67,0 5.04,-0.13 8.85,-1.15 4.17,-1.11 4.53,-1.37 4.65,-1.46 l 0.47,-0.33 -0.1,-0.55 c -0.44,-2.34 -1.36,-6.37 -2.65,-7.17 l -0.91,-0.41 a 5.51,5.51 0 0 0 -3.2,0.23 c -2.2,0.6 -4.54,0.79 -7.36,0.6 -7.22,-0.7 -11.55,-5.61 -11.88,-13.46 0.33,-7.78 4.66,-12.69 11.9,-13.39 z m 183.68,36.16 c 1.77,-0.04 4.8,-1.09 4.8,-4.62 l -0.04,-5.77 h -20.28 l 0.04,-7.7 h 16.73 l -0.03,-10.64 -16.67,0.02 v -6.61 l 15.36,-0.02 c 0.42,0 2.71,0 3.96,-1.23 0.87,-0.87 0.9,-2.45 0.9,-3.28 v -6.07 h -31.89 l 0.01,45.95 27.1,-0.03 z"
       id="path6" />
  </g>
</svg>
