<?xml version="1.0" encoding="UTF-8" standalone="no"?>
<svg
   xmlns:dc="http://purl.org/dc/elements/1.1/"
   xmlns:cc="http://creativecommons.org/ns#"
   xmlns:rdf="http://www.w3.org/1999/02/22-rdf-syntax-ns#"
   xmlns:svg="http://www.w3.org/2000/svg"
   xmlns="http://www.w3.org/2000/svg"
   xmlns:sodipodi="http://sodipodi.sourceforge.net/DTD/sodipodi-0.dtd"
   xmlns:inkscape="http://www.inkscape.org/namespaces/inkscape"
   width="45.435005"
   height="298.98999"
   version="1.1"
   id="svg93"
   sodipodi:docname="22-american-airlines.svg"
   inkscape:version="1.0.2 (e86c870879, 2021-01-15, custom)">
  <metadata
     id="metadata97">
    <rdf:RDF>
      <cc:Work
         rdf:about="">
        <dc:format>image/svg+xml</dc:format>
        <dc:type
           rdf:resource="http://purl.org/dc/dcmitype/StillImage" />
        <dc:title></dc:title>
      </cc:Work>
    </rdf:RDF>
  </metadata>
  <sodipodi:namedview
     pagecolor="#ffffff"
     bordercolor="#666666"
     borderopacity="1"
     objecttolerance="10"
     gridtolerance="10"
     guidetolerance="10"
     inkscape:pageopacity="0"
     inkscape:pageshadow="2"
     inkscape:window-width="1912"
     inkscape:window-height="1011"
     id="namedview95"
     showgrid="false"
     fit-margin-top="0"
     fit-margin-left="0"
     fit-margin-right="0"
     fit-margin-bottom="0"
     inkscape:zoom="4.9716194"
     inkscape:cx="22.472503"
     inkscape:cy="149.4875"
     inkscape:window-x="0"
     inkscape:window-y="36"
     inkscape:window-maximized="1"
     inkscape:current-layer="svg93" />
  <defs
     id="defs73">
    <linearGradient
       id="a"
       x1="2314.29"
       y1="-4444.21"
       x2="2314.29"
       y2="-4661.3799"
       gradientTransform="matrix(0.09,0,0,-0.09,80.07,-358.47)"
       gradientUnits="userSpaceOnUse">
      <stop
         offset="0"
         stop-color="#eb2023"
         id="stop2" />
      <stop
         offset=".1"
         stop-color="#e92026"
         id="stop4" />
      <stop
         offset=".2"
         stop-color="#e31e27"
         id="stop6" />
      <stop
         offset=".3"
         stop-color="#e01e26"
         id="stop8" />
      <stop
         offset=".4"
         stop-color="#d81f27"
         id="stop10" />
      <stop
         offset=".5"
         stop-color="#cf2027"
         id="stop12" />
      <stop
         offset=".6"
         stop-color="#c62127"
         id="stop14" />
      <stop
         offset=".7"
         stop-color="#b92025"
         id="stop16" />
      <stop
         offset=".8"
         stop-color="#ae1f23"
         id="stop18" />
      <stop
         offset=".9"
         stop-color="#a01d22"
         id="stop20" />
      <stop
         offset="1"
         stop-color="#901c1c"
         id="stop22" />
    </linearGradient>
    <linearGradient
       id="b"
       x1="2148.46"
       y1="-4491.25"
       x2="2269.1201"
       y2="-4413.98"
       gradientTransform="matrix(0.09,0,0,-0.09,80.07,-358.47)"
       gradientUnits="userSpaceOnUse">
      <stop
         offset="0"
         stop-color="#6c221f"
         id="stop25" />
      <stop
         offset=".25"
         stop-color="#7f2620"
         id="stop27" />
      <stop
         offset=".5"
         stop-color="#982b24"
         id="stop29" />
      <stop
         offset=".75"
         stop-color="#b53125"
         id="stop31" />
      <stop
         offset="1"
         stop-color="#cb3327"
         id="stop33" />
    </linearGradient>
    <linearGradient
       id="c"
       x1="2131.2"
       y1="-4454.1201"
       x2="2307.98"
       y2="-4351.8398"
       gradientTransform="matrix(0.09,0,0,-0.09,80.07,-358.47)"
       gradientUnits="userSpaceOnUse">
      <stop
         offset="0"
         stop-color="#e7ebee"
         id="stop36" />
      <stop
         offset=".25"
         stop-color="#dfe4e8"
         id="stop38" />
      <stop
         offset=".5"
         stop-color="#cad1d7"
         id="stop40" />
      <stop
         offset=".75"
         stop-color="#a8b5bd"
         id="stop42" />
      <stop
         offset="1"
         stop-color="#93a6ad"
         id="stop44" />
    </linearGradient>
    <linearGradient
       id="d"
       x1="2072.28"
       y1="-4137.7598"
       x2="2072.28"
       y2="-4347.75"
       gradientTransform="matrix(0.09,0,0,-0.09,80.07,-358.47)"
       gradientUnits="userSpaceOnUse">
      <stop
         offset="0"
         stop-color="#05aee9"
         id="stop47" />
      <stop
         offset=".1"
         stop-color="#00a9e0"
         id="stop49" />
      <stop
         offset=".2"
         stop-color="#07a3dc"
         id="stop51" />
      <stop
         offset=".3"
         stop-color="#089dd5"
         id="stop53" />
      <stop
         offset=".4"
         stop-color="#0a92cc"
         id="stop55" />
      <stop
         offset=".5"
         stop-color="#0f87c3"
         id="stop57" />
      <stop
         offset=".6"
         stop-color="#127cb8"
         id="stop59" />
      <stop
         offset=".7"
         stop-color="#0e70ad"
         id="stop61" />
      <stop
         offset=".8"
         stop-color="#0f63a3"
         id="stop63" />
      <stop
         offset=".9"
         stop-color="#135393"
         id="stop65" />
      <stop
         offset="1"
         stop-color="#184485"
         id="stop67" />
    </linearGradient>
    <clipPath
       id="e">
      <path
         fill="none"
         d="M -5.01,-6.15 H 302.21 V 47.51 H -5.01 Z"
         id="path70" />
    </clipPath>
  </defs>
  <g
     id="g108"
     transform="rotate(-90,149.7475,149.7425)">
    <path
       d="m 267.73,33 5.21,8.66 c 1.62,2.6 4.28,3.77 7.6,3.77 H 294 l -15.7,-19 -2.3,-1.32 -5.85,1.89 -3,4.31 z"
       fill="url(#a)"
       id="path75"
       style="fill:url(#a)" />
    <path
       d="m 278.25,26.38 -3.28,-4 -8.66,4.66 0.92,4.7 0.5,1.2 c -0.19,-3.15 5.27,-6.86 10.52,-6.56 z"
       fill="url(#b)"
       id="path77"
       style="fill:url(#b)" />
    <path
       d="M 267.73,33 263,25.22 a 4.35,4.35 0 0 1 -0.72,-2.54 c 0,-1 0.42,-1.53 2,-2.38 1.88,-0.9 5.67,-1.29 9.57,-1.29 6.34,0 7.86,2 8.51,4.23 a 9.05,9.05 0 0 0 -3,-0.36 c -6.68,0 -12,3.24 -12,8.15 a 6.64,6.64 0 0 0 0.37,1.97 z"
       fill="url(#c)"
       id="path79"
       style="fill:url(#c)" />
    <path
       d="m 247.6,0 h 6.31 a 5.94,5.94 0 0 1 4.83,2.16 c 1.23,1.12 5,6.17 12.86,16 H 263 c -3.49,0 -4.6,-0.6 -5.95,-2.66 z"
       fill="url(#d)"
       id="path81"
       style="fill:url(#d)" />
    <g
       id="g85">
      <path
         d="m 297.88,43.36 0.46,1.64 0.46,-1.64 h 0.39 l 0.3,2.05 h -0.31 l -0.18,-1.67 -0.48,1.67 h -0.33 l -0.47,-1.67 -0.21,1.67 h -0.3 l 0.3,-2.05 z m -1,0 v 0.26 h -0.6 v 1.79 H 296 v -1.79 h -0.6 v -0.26 z"
         fill="#334357"
         id="path83" />
    </g>
    <g
       id="g91">
      <g
         clip-path="url(#e)"
         id="g89">
        <path
           d="m 149,18.2 h -0.07 l -3.59,10.14 h 7.26 z m 6.42,18.13 -1.76,-5 h -9.39 l -1.76,5 h -4 l 8.41,-22.18 h 4.47 l 8.29,22.18 z m 34,-23.07 h 3.92 V 17 h -3.92 z m 0,6.17 h 3.83 v 16.91 h -3.83 z m -28.31,-6.18 h 3.92 V 17 h -3.92 z m 0,6.18 H 165 v 16.91 h -3.8 z m 24.08,-6.15 h -3.83 v 23 h 3.83 z M 173.05,28.1 v 8.24 H 169.2 V 23.79 c 0,-1.21 -0.14,-3.5 -0.18,-4.34 h 3.1 c 0.33,0 0.43,0.14 0.44,0.47 v 2.09 h 0.09 a 4.65,4.65 0 0 1 4.58,-2.92 5.22,5.22 0 0 1 2,0.4 c 0,0.73 -0.08,2.32 -0.11,2.74 -0.03,0.42 -0.14,0.37 -0.28,0.37 a 0.59,0.59 0 0 1 -0.26,-0.06 4.23,4.23 0 0 0 -1.57,-0.27 c -2,0 -4,1.48 -4,5.83 M 208,36.34 V 25.43 c 0,-2.08 -1,-3.35 -2.73,-3.35 -2.36,0 -3.92,2.51 -3.92,5.9 v 8.37 h -3.84 V 23.93 c 0,-1.37 -0.12,-3.36 -0.19,-4.48 h 3.08 c 0.35,0 0.45,0.14 0.45,0.46 v 2.11 h 0.09 a 5.39,5.39 0 0 1 5.18,-2.92 c 3.64,0 5.68,2.49 5.68,5.29 v 12 z m 10.61,-10.18 h 7.1 c 0.15,-2.72 -1.28,-4.25 -3.44,-4.25 -2.16,0 -3.55,1.63 -3.66,4.25 m 9.39,6.47 c 0.21,0 0.28,0.19 0.29,0.38 0.07,0.72 0.13,2.35 0.12,2.77 a 16.2,16.2 0 0 1 -5.24,0.89 c -5.38,0 -8.61,-2.78 -8.61,-8.77 0,-5.14 2.76,-8.8 7.72,-8.8 4.96,0 7.18,3.26 7.18,7.3 0,0.48 -0.05,1.28 -0.14,2.35 h -10.79 c 0,2.88 1.84,5 5.23,5 a 9.19,9.19 0 0 0 4,-1 0.65,0.65 0 0 1 0.32,-0.11 m 9,4 c 5,0 7.38,-2 7.38,-5.08 0,-3.08 -2.12,-4.24 -4.37,-5 L 238.16,26 c -1.54,-0.51 -2.34,-1.18 -2.34,-2.18 0,-1 1,-1.79 3,-1.79 a 8.69,8.69 0 0 1 3.8,1 0.7,0.7 0 0 0 0.33,0.11 c 0.12,0 0.27,-0.08 0.29,-0.37 0,-0.57 0.11,-1.59 0.11,-2.58 a 10.77,10.77 0 0 0 -4.84,-1.08 c -4.12,0 -6.66,2.15 -6.66,5 0,2.85 1.88,4 3.94,4.68 l 1.87,0.62 c 2.16,0.72 2.77,1.37 2.77,2.37 0,1.32 -1.4,2 -3.81,2 a 8.51,8.51 0 0 1 -3.88,-1 0.68,0.68 0 0 0 -0.33,-0.11 c -0.28,0 -0.29,0.38 -0.29,0.44 0,0.06 -0.12,1.89 -0.12,2.48 a 12.6,12.6 0 0 0 5,1.08 M 11,18.2 H 10.93 L 7.34,28.35 h 7.25 z m 6.42,18.13 -1.76,-5 H 6.27 l -1.76,5 H 0.5 L 8.91,14.16 h 4.47 l 8.29,22.18 z M 80.08,13.27 H 84 V 17 h -3.92 z m 0,6.18 H 84 v 16.89 h -3.88 z m -8.19,8.65 v 8.24 H 68.05 V 23.79 c 0,-1.21 -0.14,-3.5 -0.19,-4.34 H 71 c 0.33,0 0.43,0.14 0.44,0.47 v 2.09 h 0.09 a 4.65,4.65 0 0 1 4.57,-2.91 5.3,5.3 0 0 1 2,0.39 c 0,0.73 -0.08,2.32 -0.12,2.75 -0.04,0.43 -0.15,0.36 -0.28,0.36 a 0.61,0.61 0 0 1 -0.27,-0.06 4.2,4.2 0 0 0 -1.57,-0.27 c -2,0 -4,1.48 -4,5.83 M 43.57,36.34 V 25.53 c 0,-1.95 -0.82,-3.46 -2.81,-3.46 -2.24,0 -3.53,2.45 -3.53,5.88 v 8.39 H 33.4 V 25.5 c 0,-1.77 -0.74,-3.42 -2.8,-3.42 -2.27,0 -3.54,2.44 -3.54,6 v 8.27 H 23.23 V 24 c 0,-1.59 -0.14,-3.84 -0.19,-4.59 h 3.07 c 0.35,0 0.46,0.11 0.47,0.47 v 2.09 h 0.09 a 5.29,5.29 0 0 1 5,-2.92 5.08,5.08 0 0 1 4.85,3.08 5.57,5.57 0 0 1 5.06,-3.08 c 3.44,0 5.78,1.84 5.78,5.55 V 36.3 H 43.57 Z M 54.18,26.15 h 7.1 C 61.43,23.43 60,21.9 57.84,21.9 c -2.16,0 -3.55,1.63 -3.66,4.25 m 9.46,6.48 c 0.21,0 0.27,0.19 0.29,0.38 0.07,0.72 0.13,2.35 0.12,2.77 a 16.18,16.18 0 0 1 -5.24,0.89 c -5.38,0 -8.61,-2.79 -8.61,-8.77 0,-5.14 2.76,-8.79 7.72,-8.79 4.96,0 7.18,3.25 7.18,7.3 0,0.48 -0.05,1.28 -0.14,2.34 H 54.14 c 0,2.89 1.84,5 5.23,5 a 9.13,9.13 0 0 0 4,-1 0.64,0.64 0 0 1 0.32,-0.1 m 48.1,-4.86 h -0.65 c -4.82,0 -5.77,1.67 -5.77,3.38 a 2.59,2.59 0 0 0 2.63,2.68 c 2.39,0 3.7,-2.31 3.7,-4.74 z m 0.92,8.57 a 0.52,0.52 0 0 1 -0.6,-0.55 c 0,-0.55 -0.11,-1.62 -0.11,-1.62 h -0.05 a 5.89,5.89 0 0 1 -5.13,2.49 5.19,5.19 0 0 1 -5.29,-5.43 c 0,-3.94 3.83,-5.92 9.51,-5.92 h 0.76 v -0.62 c 0,-1.77 -1.26,-2.72 -3.61,-2.72 a 10.56,10.56 0 0 0 -4.56,1.09 0.7,0.7 0 0 1 -0.28,0.09 c -0.18,0 -0.28,-0.11 -0.29,-0.31 0,-0.64 -0.1,-1.86 -0.11,-2.63 a 16.16,16.16 0 0 1 5.51,-1.12 c 5,0 7.17,2.33 7.17,6.05 v 6.59 a 33.58,33.58 0 0 0 0.3,4.61 z M 99.42,32.63 c 0.1,0 0.24,0.07 0.28,0.36 0.07,0.8 0.1,2.12 0.11,2.53 a 10.18,10.18 0 0 1 -4.46,1.13 c -5.12,0 -8.26,-3 -8.26,-8.78 0,-5.44 2.79,-8.79 8.26,-8.79 a 10.2,10.2 0 0 1 4.46,1.14 c 0,0.6 -0.06,2 -0.11,2.54 0,0.24 -0.14,0.36 -0.28,0.36 a 0.57,0.57 0 0 1 -0.3,-0.08 7.9,7.9 0 0 0 -3.44,-0.9 c -3.26,0 -4.6,2.13 -4.6,5.74 0,3.21 1.07,5.73 4.6,5.73 A 7.92,7.92 0 0 0 99,32.76 c 0.2,-0.1 0.24,-0.13 0.4,-0.13 m 30,3.71 V 25.43 c 0,-2.08 -1,-3.35 -2.73,-3.35 -2.36,0 -3.93,2.51 -3.93,5.9 v 8.37 H 118.9 V 23.93 c 0,-1.37 -0.12,-3.36 -0.18,-4.48 h 3.08 c 0.35,0 0.45,0.15 0.45,0.46 v 2.11 h 0.08 a 5.4,5.4 0 0 1 5.18,-2.92 c 3.65,0 5.68,2.49 5.68,5.29 v 12 z"
           fill="#334357"
           id="path87" />
      </g>
    </g>
  </g>
</svg>
