<?xml version="1.0" encoding="UTF-8" standalone="no"?>
<svg
   xmlns:dc="http://purl.org/dc/elements/1.1/"
   xmlns:cc="http://creativecommons.org/ns#"
   xmlns:rdf="http://www.w3.org/1999/02/22-rdf-syntax-ns#"
   xmlns:svg="http://www.w3.org/2000/svg"
   xmlns="http://www.w3.org/2000/svg"
   xmlns:sodipodi="http://sodipodi.sourceforge.net/DTD/sodipodi-0.dtd"
   xmlns:inkscape="http://www.inkscape.org/namespaces/inkscape"
   width="91.95002"
   height="537.59998"
   version="1.1"
   id="svg4"
   sodipodi:docname="24-lufthansa.svg"
   inkscape:version="1.0.2 (e86c870879, 2021-01-15, custom)">
  <metadata
     id="metadata10">
    <rdf:RDF>
      <cc:Work
         rdf:about="">
        <dc:format>image/svg+xml</dc:format>
        <dc:type
           rdf:resource="http://purl.org/dc/dcmitype/StillImage" />
        <dc:title></dc:title>
      </cc:Work>
    </rdf:RDF>
  </metadata>
  <defs
     id="defs8" />
  <sodipodi:namedview
     pagecolor="#ffffff"
     bordercolor="#666666"
     borderopacity="1"
     objecttolerance="10"
     gridtolerance="10"
     guidetolerance="10"
     inkscape:pageopacity="0"
     inkscape:pageshadow="2"
     inkscape:window-width="1912"
     inkscape:window-height="1011"
     id="namedview6"
     showgrid="false"
     fit-margin-top="0"
     fit-margin-left="0"
     fit-margin-right="0"
     fit-margin-bottom="0"
     inkscape:zoom="2.7694596"
     inkscape:cx="46.000023"
     inkscape:cy="268.73499"
     inkscape:window-x="0"
     inkscape:window-y="36"
     inkscape:window-maximized="1"
     inkscape:current-layer="svg4" />
  <g
     id="g17"
     transform="rotate(-90,268.8,268.8)">
    <g
       id="g13">
      <path
         d="M 91.81,46 A 45.905022,45.905022 0 0 1 0,46.09 C 0,20.3 20.55,0 46.63,0 71.42,0 91.81,20.84 91.81,46 M 4.76,46 A 41.14,41.14 0 0 0 87,46.09 C 87,23 68.85,4.78 45.53,4.78 23.23,4.78 4.76,23.41 4.76,46 Z m 31,-1.85 -0.56,1.11 a 61.52,61.52 0 0 1 -10,-3.77 l -0.55,1 1.66,0.91 c 5.87,3 7.8,3.67 11.2,3.67 6.79,0 11.93,-3.85 14.33,-10.65 a 87.23,87.23 0 0 1 16.06,-1.19 129.46,129.46 0 0 1 16.44,1 L 82.81,38.2 A 108.73,108.73 0 0 0 71,37.46 c -4.49,0 -7.34,0.09 -8.81,0.18 l -0.73,1.66 c 3.76,-0.18 5.13,-0.18 8.08,-0.18 5,0 8.9,0.18 12.11,0.45 l -1.56,2 C 74.31,41.4 71.65,41.3 67.34,41.3 c -2.39,0 -4.14,0.1 -7,0.18 L 59.6,43.13 C 62,43 65.45,42.88 69,42.88 c 3.4,0 7.43,0.09 9.82,0.18 l -1.57,2 c -1.64,-0.1 -4.86,-0.1 -7.34,-0.1 A 99,99 0 0 0 58.44,45.52 L 57.74,47 A 114.23,114.23 0 0 1 70.5,46.36 c 2,0 3.3,0 5.61,0.18 l -1.75,2.11 c -3.12,-0.18 -4.12,-0.18 -5.32,-0.18 -8.72,0 -14.41,1.28 -20.11,4.5 a 32.69,32.69 0 0 0 21.77,8.81 c 0.64,0 1,0 2.66,-0.09 l -3.77,3.78 C 48.85,60.05 45.17,58.58 26.17,47.29 18.63,43 12.47,40 7.51,38.57 L 8.16,36.28 A 44.58,44.58 0 0 1 14.32,38 l 1.09,-2.48 20.39,8.64 z m 132.6,-28.81 v 49.13 h 25.9 v 12.1 H 153 V 15.34 h 15.33 m 57.93,61.24 -0.45,-4.31 a 16.54,16.54 0 0 1 -12.67,5.51 c -6.25,0 -11.29,-2.57 -13.87,-7 -1.93,-3.31 -2.21,-5 -2.21,-12.22 V 32.51 h 14.42 V 58 c 0,6.44 1.83,9.1 6.34,9.1 4.77,0 7.16,-3.12 7.16,-9.1 V 32.51 h 14.41 v 44.07 z m 45.82,-51.5 h -2.39 c -5.33,0 -6.7,1.28 -6.7,6.15 v 1.29 h 8.53 v 9.73 H 263 V 76.57 H 248.61 V 42.24 h -6.25 v -9.73 h 6.25 v -1.29 c 0,-11.56 4.31,-15.88 15.6,-15.88 h 7.9 z m 22.12,-6.34 v 13.77 h 8.18 v 9.73 h -8.18 v 17.44 c 0.1,6.43 0.47,6.8 6,6.8 h 2.85 v 10.1 h -10.82 c -8.54,0 -12.41,-3.94 -12.41,-12.93 V 42.24 h -6.05 v -9.73 h 6.05 V 18.74 h 14.42 z m 26.44,-3.4 v 22.12 c 2.68,-4.32 6.43,-6.24 12,-6.24 6,0 10.93,2.57 13.58,7.25 1.93,3.4 2.22,5.24 2.22,12.58 v 25.52 h -14.27 v -25 c 0,-6.34 -1.92,-9.18 -6.34,-9.18 -4.77,0 -7.16,3.12 -7.16,9.18 v 25 h -14.4 V 15.34 h 14.4 z m 34,31.22 c 0,-10 7.81,-15.89 20.85,-15.89 13.68,0 20.47,5.69 20.47,17.25 v 22.5 c 0,3.85 0,3.85 1.19,6.14 h -13.3 L 383,72.91 c -4.59,4 -8.54,5.5 -14.32,5.5 -9.74,0 -16.8,-5.78 -16.8,-13.76 0,-6.62 4.31,-11.3 12.75,-13.69 1.29,-0.36 5.52,-1.19 12.76,-2.57 3.13,-0.64 4.32,-1.65 4.32,-3.76 0,-2.48 -2.57,-4.14 -6.42,-4.14 -4.68,0 -7.43,2.21 -7.53,6.06 h -13.11 z m 27.45,8.9 c -1.83,0.56 -2.39,0.73 -3.85,1.2 -1.74,0.45 -3.3,0.81 -5.23,1.19 -4.68,1.19 -7,3 -7,5.87 0,2.87 2.21,4.5 5.8,4.5 7,0 10.27,-3.12 10.27,-9.64 v -3.12 z m 32.05,-22.95 0.46,5 a 15.09,15.09 0 0 1 12.75,-6.24 c 6.16,0 11.13,2.66 13.7,7.25 1.82,3.4 2.2,5.33 2.2,12.58 v 25.47 h -14.4 v -25 c 0,-6.52 -1.84,-9.18 -6.33,-9.18 -4.69,0 -7.07,3.12 -7.07,9.18 v 25 H 401 V 32.51 Z m 60.78,13.77 c -0.38,-4.13 -2.12,-5.69 -6.52,-5.69 -3.59,0 -5.78,1.38 -5.78,3.68 0,2.11 2.1,3.39 6.88,4.12 l 5,0.92 c 10.46,1.74 15.33,6.14 15.33,13.77 0,9.36 -8,15.33 -20.48,15.33 -14.78,0 -22.86,-5.87 -22.86,-16.51 h 14 v 0.54 c 0,3.68 3,6 7.9,6 4.22,0 6.79,-1.57 6.79,-4 0,-2.43 -2.39,-4 -8,-5 l -4.58,-0.73 c -10.48,-1.84 -15,-5.6 -15,-12.57 0,-9.56 8,-15.34 21.13,-15.34 9.17,0 14.87,2.47 17.82,7.8 1.28,2.21 1.46,2.95 1.83,7.81 z m 20.1,0.28 c 0.1,-9.92 7.9,-15.89 21,-15.89 13.69,0 20.38,5.69 20.38,17.25 v 22.5 c 0,3.76 0,3.76 1.2,6.14 h -13.4 l -0.73,-3.66 c -5.33,4.31 -8.46,5.5 -14.32,5.5 -9.84,0 -16.9,-5.78 -16.9,-13.76 0,-6.62 4.31,-11.3 12.75,-13.69 1.29,-0.36 5.52,-1.28 12.77,-2.57 3,-0.64 4.31,-1.65 4.31,-3.76 0,-2.48 -2.57,-4.14 -6.33,-4.14 -4.68,0 -7.53,2.3 -7.53,6.06 H 495 Z m 27.56,8.9 c -1.84,0.56 -2.49,0.73 -4,1.2 a 52.15,52.15 0 0 0 -5.23,1.19 c -4.68,1.19 -7,3 -7,5.87 0,2.87 2.2,4.5 5.88,4.5 7,0 10.29,-3.12 10.29,-9.64 z"
         fill="#00235f"
         id="path2" />
    </g>
  </g>
</svg>
