<?xml version="1.0" encoding="UTF-8" standalone="no"?>
<svg
   xmlns:dc="http://purl.org/dc/elements/1.1/"
   xmlns:cc="http://creativecommons.org/ns#"
   xmlns:rdf="http://www.w3.org/1999/02/22-rdf-syntax-ns#"
   xmlns:svg="http://www.w3.org/2000/svg"
   xmlns="http://www.w3.org/2000/svg"
   xmlns:sodipodi="http://sodipodi.sourceforge.net/DTD/sodipodi-0.dtd"
   xmlns:inkscape="http://www.inkscape.org/namespaces/inkscape"
   width="159.13055"
   height="1032.29"
   version="1.1"
   id="svg28"
   sodipodi:docname="25-british-airways.svg"
   inkscape:version="1.0.2 (e86c870879, 2021-01-15, custom)">
  <metadata
     id="metadata32">
    <rdf:RDF>
      <cc:Work
         rdf:about="">
        <dc:format>image/svg+xml</dc:format>
        <dc:type
           rdf:resource="http://purl.org/dc/dcmitype/StillImage" />
        <dc:title></dc:title>
      </cc:Work>
    </rdf:RDF>
  </metadata>
  <sodipodi:namedview
     pagecolor="#ffffff"
     bordercolor="#666666"
     borderopacity="1"
     objecttolerance="10"
     gridtolerance="10"
     guidetolerance="10"
     inkscape:pageopacity="0"
     inkscape:pageshadow="2"
     inkscape:window-width="1912"
     inkscape:window-height="1011"
     id="namedview30"
     showgrid="false"
     fit-margin-top="0"
     fit-margin-left="0"
     fit-margin-right="0"
     fit-margin-bottom="0"
     inkscape:zoom="1.44248"
     inkscape:cx="79.545277"
     inkscape:cy="516.13027"
     inkscape:window-x="0"
     inkscape:window-y="36"
     inkscape:window-maximized="1"
     inkscape:current-layer="svg28" />
  <defs
     id="defs20">
    <linearGradient
       id="a"
       x1="1380.73"
       y1="-273.06"
       x2="1259.73"
       y2="-340.82999"
       gradientTransform="matrix(1,0,0,-1,-348.24,-235.05)"
       gradientUnits="userSpaceOnUse">
      <stop
         offset="0"
         stop-color="#11266f"
         id="stop2" />
      <stop
         offset="1"
         stop-color="#4266ae"
         id="stop4" />
    </linearGradient>
    <linearGradient
       id="b"
       x1="1092.14"
       y1="-298.73001"
       x2="1369.66"
       y2="-195.98"
       gradientTransform="matrix(1,0,0,-1,-348.24,-235.05)"
       gradientUnits="userSpaceOnUse">
      <stop
         offset="0"
         stop-color="#e0162b"
         id="stop7" />
      <stop
         offset=".57"
         stop-color="#ff0108"
         id="stop9" />
      <stop
         offset=".75"
         stop-color="#ffb8bb"
         id="stop11" />
      <stop
         offset=".79"
         stop-color="#ffb0b3"
         id="stop13" />
      <stop
         offset=".85"
         stop-color="#ff010a"
         id="stop15" />
      <stop
         offset="1"
         stop-color="red"
         id="stop17" />
    </linearGradient>
  </defs>
  <g
     id="g37"
     transform="rotate(-90,516.16028,516.12972)">
    <path
       d="m 38.15,121.06 c 6.92,-1.3 13.32,-7.09 13.32,-14.44 0,-13.84 -11.94,-18.85 -24.13,-18.85 H 0 c 2.25,1.23 3.2,3.88 3.2,6.3 v 57.44 c 0,2.34 -1,5.11 -3.2,6.23 h 29.67 c 11.59,0 28,-4 28,-19.72 C 57.69,127 48.09,121 38.15,121.06 Z m -20.5,-27 a 33,33 0 0 1 4.49,-0.26 c 8.31,0 14.79,2.77 14.79,12.46 0,9.69 -8.13,12.29 -16.52,12.29 H 17.65 Z M 27,151.68 A 48.57,48.57 0 0 1 17.66,150.9 V 125 c 2.42,-0.17 4.24,-0.17 6.23,-0.17 8.82,0 17.3,2.42 17.3,13 C 41.17,148.57 34,151.68 27,151.68 Z M 163,87.76 158.21,98 c 3.11,-1.81 7.35,-2.24 10.9,-2.24 h 15.49 v 55.7 c 0,2.42 -1.12,5.19 -3.46,6.23 h 21.36 c -2.24,-1 -3.46,-3.81 -3.46,-6.23 V 95.63 c 5.8,0 12.54,0.25 16.6,0.35 3.38,0 9.17,-3.89 11.16,-9.17 a 60,60 0 0 1 -12.46,0.95 z m 87.79,0 H 229.3 a 7,7 0 0 1 3.55,6.31 v 57.44 a 6.87,6.87 0 0 1 -3.55,6.23 h 21.54 a 6.7,6.7 0 0 1 -3.55,-6.23 V 94.07 a 6.85,6.85 0 0 1 3.55,-6.31 z M 94.2,122 c 10.21,0 19.37,-5.71 19.37,-16.78 0,-13.23 -13.75,-17.47 -24.74,-17.47 H 63.49 c 2.25,1.21 3.29,3.89 3.29,6.31 v 57.44 c 0,2.42 -1,5.11 -3.29,6.23 h 21 c -2.25,-1 -3.29,-3.89 -3.29,-6.23 v -26.72 c 9.08,0.09 12.63,9.52 16.69,16.35 2.59,4.24 9.17,15 13.92,16.35 2.59,0.78 5.53,0.69 8.22,0.69 a 46.32,46.32 0 0 0 13.32,-1.82 C 117.29,156.26 108.73,122.1 94.2,122 Z m -9.69,-3.46 c -1.12,0 -2.16,-0.09 -3.29,-0.17 V 94.16 a 24.91,24.91 0 0 1 3.55,-0.35 c 7.7,0 13.41,3.11 13.41,11.85 -0.01,8.57 -5.8,12.89 -13.67,12.89 z M 156,87.76 h -21.58 a 7,7 0 0 1 3.58,6.31 v 57.44 a 6.87,6.87 0 0 1 -3.55,6.23 H 156 a 6.71,6.71 0 0 1 -3.55,-6.23 V 94.07 A 6.85,6.85 0 0 1 156,87.76 Z m 224.81,0 H 360 c 1.56,0.78 3.2,3.11 3.2,6.31 v 23.53 c -3.81,0.35 -9,0.61 -14.88,0.61 a 143.53,143.53 0 0 1 -15,-0.61 V 94.07 c 0,-3.2 1.56,-5.53 3.12,-6.31 h -20.81 c 1.56,0.78 3.2,3.11 3.2,6.31 v 57.44 c 0,3.11 -1.64,5.54 -3.2,6.23 h 20.76 c -1.56,-0.78 -3.12,-3.12 -3.12,-6.23 v -26 a 143.23,143.23 0 0 1 15,-0.61 140.87,140.87 0 0 1 14.88,0.61 v 26 c 0,3.11 -1.64,5.54 -3.2,6.23 h 20.76 c -1.56,-0.78 -3.12,-3.12 -3.12,-6.23 V 94.07 c 0.06,-3.2 1.62,-5.53 3.17,-6.31 z M 275.75,101 c 0,-5.8 5.28,-8.31 10.38,-8.31 6.4,0 13.32,4.15 16.09,10 l -0.78,-13.06 c -4.49,-2.07 -11.59,-2.76 -16.52,-2.76 -11,0 -23.53,4.32 -23.53,17.47 0,21.28 31.4,24.31 31.4,37.63 0,7.62 -5.19,10.64 -12.2,10.64 -9.17,0 -16.52,-6.32 -20.07,-14.44 a 56.75,56.75 0 0 0 -0.69,8.56 49.07,49.07 0 0 0 0.52,7.18 c 5.71,3.89 14.88,5.19 21.62,5.19 12.89,0 25.69,-6.06 25.69,-20.67 0.01,-20.22 -31.91,-23.6 -31.91,-37.43 z m 483,-13.24 a 2.58,2.58 0 0 1 1.47,2.34 c 0,0.78 -0.86,2.33 -2.16,4.58 0,0 -10.56,18.34 -11.68,20.41 L 733.09,94 c -4.15,-6.49 -7.52,-7.09 -14.27,-7.09 a 45.28,45.28 0 0 0 -12.11,1.91 c 7.26,0 13.32,10 14.62,12.19 l 14.36,23.1 v 27.42 c 0,2.17 -1,5.11 -3,6.23 h 20.58 c -2.16,-1 -3.11,-4 -3.11,-6.23 v -27.35 l 16.61,-29.07 c 1.56,-2.77 4,-6 6.92,-7.35 z m -93.76,0 h -13.64 a 2.45,2.45 0 0 1 1.21,2.07 7.2,7.2 0 0 1 -0.52,2.25 L 638.28,133.25 620.12,87.75 603.6,135 588.12,93.12 a 9.08,9.08 0 0 1 -0.6,-2.42 3.39,3.39 0 0 1 1.48,-2.94 h -20.69 a 12.43,12.43 0 0 1 5.37,6.66 l 23.78,63.31 H 604 l 13.84,-39.18 9.6,24.3 c 1.21,3.11 4.49,11.59 6.66,13.58 a 8.08,8.08 0 0 0 4.41,1.3 l 21.28,-63.14 c 0.9,-2.59 2.72,-5.54 5.21,-6.83 z M 788.45,101 c 0,-5.8 5.28,-8.31 10.38,-8.31 6.4,0 13.32,4.15 16.09,10 l -0.78,-13.06 c -4.5,-2.07 -11.6,-2.76 -16.52,-2.76 -11,0 -23.53,4.32 -23.53,17.47 0,21.28 31.4,24.31 31.4,37.63 0,7.62 -5.19,10.64 -12.2,10.64 -9.17,0 -16.52,-6.32 -20.07,-14.44 a 57.48,57.48 0 0 0 -0.69,8.56 49.07,49.07 0 0 0 0.52,7.18 c 5.71,3.89 14.88,5.19 21.63,5.19 13,0 25.69,-6.06 25.69,-20.67 0,-20.22 -31.92,-23.6 -31.92,-37.43 z m -69.63,51.29 -23.53,-64.53 h -18.17 a 4.73,4.73 0 0 1 2.6,4 2.62,2.62 0 0 1 -0.17,0.86 l -23.18,59.77 a 10.66,10.66 0 0 1 -4.75,5.37 h 14.1 c -0.78,-0.35 -1.64,-0.87 -1.64,-1.91 a 11.89,11.89 0 0 1 1.13,-3.29 l 6.75,-17.12 a 120.61,120.61 0 0 1 12.53,-0.52 111.08,111.08 0 0 1 13.24,0.52 c 0.69,1.81 6.4,17.47 6.4,17.47 a 10.84,10.84 0 0 1 0.69,2.42 3.11,3.11 0 0 1 -1.3,2.42 h 20.07 a 10.65,10.65 0 0 1 -4.77,-5.46 z M 684.3,128.76 a 90.48,90.48 0 0 1 -9.69,-0.44 l 10.64,-27.24 9.86,27.24 a 89.1,89.1 0 0 1 -10.81,0.44 z M 472.9,152.29 449.37,87.76 h -18.16 a 4.73,4.73 0 0 1 2.59,4 2.62,2.62 0 0 1 -0.17,0.86 l -23.18,59.77 a 10.7,10.7 0 0 1 -4.76,5.37 h 14.1 c -0.78,-0.35 -1.64,-0.87 -1.64,-1.91 a 11.89,11.89 0 0 1 1.13,-3.29 c 0,0 6.14,-15.56 6.72,-17.14 a 120.72,120.72 0 0 1 12.54,-0.52 111.08,111.08 0 0 1 13.24,0.52 c 0.69,1.81 6.4,17.47 6.4,17.47 a 7.46,7.46 0 0 1 0.69,2.42 3.11,3.11 0 0 1 -1.3,2.42 h 20.07 a 10.7,10.7 0 0 1 -4.74,-5.44 z m -34.51,-23.53 a 90.35,90.35 0 0 1 -9.69,-0.44 l 10.64,-27.24 9.86,27.24 a 89,89 0 0 1 -10.81,0.44 z m 64.36,-41 h -21.54 a 7,7 0 0 1 3.55,6.31 v 57.44 a 6.87,6.87 0 0 1 -3.55,6.23 h 21.54 a 6.7,6.7 0 0 1 -3.55,-6.23 V 94.07 a 6.83,6.83 0 0 1 3.55,-6.31 z M 546.69,122 c 7.61,0 17.64,-5.71 17.64,-16.78 0,-13.23 -13.75,-17.47 -24.74,-17.47 h -25.34 c 2.25,1.21 3.29,3.89 3.29,6.31 v 57.44 c 0,2.42 -1,5.11 -3.29,6.23 h 21 c -2.25,-1 -3.29,-3.89 -3.29,-6.23 v -26.72 c 9.08,0 14.36,9.52 18.42,16.35 2.6,4.24 9.17,15 13.92,16.35 2.6,0.78 5.54,0.69 8.22,0.69 a 46.38,46.38 0 0 0 13.32,-1.82 c -14.94,0 -24.02,-33.47 -39.15,-34.35 z m -11.42,-3.46 c -1.12,0 -2.17,-0.09 -3.29,-0.17 V 94.16 a 25,25 0 0 1 3.55,-0.35 c 7.7,0 13.41,3.11 13.41,11.85 -0.01,8.57 -5.8,12.89 -13.67,12.89 z"
       fill="#00054c"
       id="path22" />
    <path
       d="m 1003.19,38.83 c -12.27,11.62 -38.09,21.95 -50.36,26.47 -17.43,6.46 -25.17,9 -34.86,12.27 A 1830.32,1830.32 0 0 0 885,87.89 c 45.19,13.56 77.47,17.42 77.47,17.42 0,0 14.85,-4.49 38.74,-17.42 12.91,-6.45 18.72,-10.33 23.24,-14.85 1.94,-1.29 6.45,-5.81 7.1,-11.62 0,-0.65 0.65,-1.29 0.65,-2.59 v -1.28 a 2,2 0 0 1 -0.65,-1.29 6.46,6.46 0 0 0 -0.65,-2.59 10.79,10.79 0 0 0 -3.87,-5.81 c -1.94,-1.3 -4.52,-4.52 -14.2,-7.75 a 76.69,76.69 0 0 0 -9,-2.58 l -0.63,1.28 z"
       fill="url(#a)"
       id="path24"
       style="fill:url(#a)" />
    <path
       d="m 1032.24,58.19 a 3.19,3.19 0 0 0 -0.65,-1.94 c 0,-1.29 -0.65,-1.94 -1.28,-3.23 a 24.52,24.52 0 0 1 -3.23,-3.87 17.37,17.37 0 0 1 -3.87,-3.23 c -6.46,-3.88 -14.2,-5.81 -21.3,-7.1 a 244.77,244.77 0 0 0 -25.17,-1.29 c -3.88,0 -30.34,0 -36.8,0.65 -29.7,0.65 -66.49,0.65 -76.17,0.65 -98.76,0 -142,-1.94 -189.79,-11.62 C 633.3,19.46 610.7,11.72 610.7,11.72 c 36.15,-1.29 246,-10.33 284,-11 25.17,-0.65 42.61,-1.3 56.81,0 a 93.55,93.55 0 0 1 22.6,2.59 133,133 0 0 1 18.73,4.52 c 8.39,3.23 16.14,7.75 19.36,12.92 a 7.74,7.74 0 0 1 2.58,2.58 29.12,29.12 0 0 0 3.88,5.81 c 5.17,8.39 7.75,12.91 8.39,14.85 a 23.17,23.17 0 0 1 2.59,5.81 4.18,4.18 0 0 1 1.36,3.2 c 0.65,1.94 0.65,3.88 1.29,4.52 v 0.63 z"
       fill="url(#b)"
       id="path26"
       style="fill:url(#b)" />
  </g>
</svg>
