<?xml version="1.0" encoding="UTF-8" standalone="no"?>
<svg
   xmlns:dc="http://purl.org/dc/elements/1.1/"
   xmlns:cc="http://creativecommons.org/ns#"
   xmlns:rdf="http://www.w3.org/1999/02/22-rdf-syntax-ns#"
   xmlns:svg="http://www.w3.org/2000/svg"
   xmlns="http://www.w3.org/2000/svg"
   xmlns:xlink="http://www.w3.org/1999/xlink"
   xmlns:sodipodi="http://sodipodi.sourceforge.net/DTD/sodipodi-0.dtd"
   xmlns:inkscape="http://www.inkscape.org/namespaces/inkscape"
   width="112.5"
   height="300"
   version="1.1"
   id="svg146"
   sodipodi:docname="26-ford.svg"
   inkscape:version="1.0.2 (e86c870879, 2021-01-15, custom)">
  <metadata
     id="metadata150">
    <rdf:RDF>
      <cc:Work
         rdf:about="">
        <dc:format>image/svg+xml</dc:format>
        <dc:type
           rdf:resource="http://purl.org/dc/dcmitype/StillImage" />
        <dc:title></dc:title>
      </cc:Work>
    </rdf:RDF>
  </metadata>
  <sodipodi:namedview
     pagecolor="#ffffff"
     bordercolor="#666666"
     borderopacity="1"
     objecttolerance="10"
     gridtolerance="10"
     guidetolerance="10"
     inkscape:pageopacity="0"
     inkscape:pageshadow="2"
     inkscape:window-width="1912"
     inkscape:window-height="1011"
     id="namedview148"
     showgrid="false"
     fit-margin-top="0"
     fit-margin-left="0"
     fit-margin-right="0"
     fit-margin-bottom="0"
     inkscape:zoom="4.9633333"
     inkscape:cx="56.25"
     inkscape:cy="149.995"
     inkscape:window-x="0"
     inkscape:window-y="36"
     inkscape:window-maximized="1"
     inkscape:current-layer="svg146" />
  <defs
     id="defs78">
    <clipPath
       id="d">
      <path
         fill="none"
         d="M -37.52,208.47 H 337.2 V -37.5 H -37.52 Z"
         id="path2" />
    </clipPath>
    <radialGradient
       id="e"
       cx="-154.75999"
       cy="452.47"
       r="1"
       gradientTransform="matrix(647.66,0,0,-631.53,100382.31,286366.71)"
       gradientUnits="userSpaceOnUse">
      <stop
         offset="0"
         stop-color="#00050d"
         id="stop5" />
      <stop
         offset=".7"
         stop-color="#051125"
         id="stop7" />
      <stop
         offset=".9"
         stop-color="#173e7e"
         id="stop9" />
      <stop
         offset=".95"
         stop-color="#4ca9e3"
         id="stop11" />
      <stop
         offset="1"
         stop-color="#4ca9e3"
         id="stop13" />
    </radialGradient>
    <linearGradient
       id="a"
       x1="-157.95"
       y1="451.66"
       x2="-156.95"
       y2="451.66"
       gradientTransform="matrix(0,-114.32,-114.32,0,51783.8,-17942.87)"
       gradientUnits="userSpaceOnUse">
      <stop
         offset="0"
         stop-color="#08142e"
         id="stop16" />
      <stop
         offset=".81"
         stop-color="#17326e"
         id="stop18" />
      <stop
         offset="1"
         stop-color="#0d69a9"
         id="stop20" />
    </linearGradient>
    <linearGradient
       id="f"
       x1="-157.95"
       y1="451.66"
       x2="-156.95"
       y2="451.66"
       gradientTransform="matrix(0,-114.33,-114.33,0,51790.36,-17944.47)"
       xlink:href="#a" />
    <linearGradient
       id="g"
       x1="-159.25"
       y1="451.07001"
       x2="-158.25"
       y2="451.07001"
       gradientTransform="matrix(0,-79.21,-79.21,0,35904.74,-12520.44)"
       xlink:href="#a" />
    <linearGradient
       id="h"
       x1="-159.2"
       y1="451.09"
       x2="-158.2"
       y2="451.09"
       gradientTransform="matrix(0,-80.27,-80.27,0,36416.78,-12683.75)"
       xlink:href="#a" />
    <linearGradient
       id="i"
       x1="-159.58"
       y1="450.92001"
       x2="-158.58"
       y2="450.92001"
       gradientTransform="matrix(0,-73.53,-73.53,0,33369.44,-11642.48)"
       xlink:href="#a" />
    <linearGradient
       id="j"
       x1="-159.42999"
       y1="450.98999"
       x2="-158.42999"
       y2="450.98999"
       gradientTransform="matrix(0,-76,-76,0,34446.87,-12025.23)"
       xlink:href="#a" />
    <linearGradient
       id="k"
       x1="-159.21001"
       y1="451.09"
       x2="-158.21001"
       y2="451.09"
       gradientTransform="matrix(0,-80.14,80.14,0,36350.703,-12662.921)"
       xlink:href="#a" />
    <linearGradient
       id="l"
       x1="-159.21001"
       y1="451.09"
       x2="-158.21001"
       y2="451.09"
       gradientTransform="matrix(0,-80.12,-80.12,0,36273.76,-12661.16)"
       xlink:href="#a" />
    <linearGradient
       id="m"
       x1="-159.23"
       y1="451.07999"
       x2="-158.23"
       y2="451.07999"
       gradientTransform="matrix(0,-79.57,-79.57,0,36060.24,-12576.27)"
       xlink:href="#a" />
    <linearGradient
       id="n"
       x1="-159.2"
       y1="451.09"
       x2="-158.2"
       y2="451.09"
       gradientTransform="matrix(0,-80.15,-80.15,0,36366.75,-12666.61)"
       xlink:href="#a" />
    <linearGradient
       id="o"
       x1="-159.2"
       y1="451.09"
       x2="-158.2"
       y2="451.09"
       gradientTransform="matrix(0,-80.21,-80.21,0,36362.63,-12674.48)"
       xlink:href="#a" />
    <linearGradient
       id="p"
       x1="-159.21001"
       y1="451.09"
       x2="-158.21001"
       y2="451.09"
       gradientTransform="matrix(0,-80.14,-80.14,0,36374.37,-12663.57)"
       xlink:href="#a" />
    <linearGradient
       id="q"
       x1="-159.3"
       y1="451.04999"
       x2="-158.3"
       y2="451.04999"
       gradientTransform="matrix(0,-78.29,-78.29,0,35459.18,-12377.8)"
       xlink:href="#a" />
    <linearGradient
       id="r"
       x1="-159.23"
       y1="451.07999"
       x2="-158.23"
       y2="451.07999"
       gradientTransform="matrix(0,-79.6,79.6,0,36039.696,-12579.984)"
       xlink:href="#a" />
    <linearGradient
       id="s"
       x1="-159.21001"
       y1="451.09"
       x2="-158.21001"
       y2="451.09"
       gradientTransform="matrix(0,-80.13,80.13,0,36221.965,-12663.745)"
       xlink:href="#a" />
    <linearGradient
       id="t"
       x1="-159.21001"
       y1="451.09"
       x2="-158.21001"
       y2="451.09"
       gradientTransform="matrix(0,-80.11,-80.11,0,36250.54,-12660.38)"
       xlink:href="#a" />
    <linearGradient
       id="u"
       x1="-159.21001"
       y1="451.09"
       x2="-158.21001"
       y2="451.09"
       gradientTransform="matrix(0,-80.13,80.13,0,36248.408,-12662.944)"
       xlink:href="#a" />
    <linearGradient
       id="v"
       x1="-159.2"
       y1="451.09"
       x2="-158.2"
       y2="451.09"
       gradientTransform="matrix(0,-80.17,-80.17,0,36269.22,-12669.67)"
       xlink:href="#a" />
    <linearGradient
       id="w"
       x1="-159.3"
       y1="451.04999"
       x2="-158.3"
       y2="451.04999"
       gradientTransform="matrix(0,-78.43,78.43,0,35569.574,-12401.352)"
       xlink:href="#a" />
    <linearGradient
       id="x"
       x1="-159.21001"
       y1="451.09"
       x2="-158.21001"
       y2="451.09"
       gradientTransform="matrix(0,-80.13,80.13,0,36301.294,-12662.944)"
       xlink:href="#a" />
    <linearGradient
       id="y"
       x1="-159.45"
       y1="450.98001"
       x2="-158.45"
       y2="450.98001"
       gradientTransform="matrix(0,-75.7,-75.7,0,34276.24,-11978.97)"
       xlink:href="#a" />
    <linearGradient
       id="z"
       x1="-159.21001"
       y1="451.09"
       x2="-158.21001"
       y2="451.09"
       gradientTransform="matrix(0,-80.13,80.13,0,36286.87,-12664.546)"
       xlink:href="#a" />
    <linearGradient
       id="A"
       x1="-159.2"
       y1="451.09"
       x2="-158.2"
       y2="451.09"
       gradientTransform="matrix(0,-80.14,-80.14,0,36244.66,-12663.89)"
       xlink:href="#a" />
    <linearGradient
       id="b"
       x1="-157.73"
       y1="452.54999"
       x2="-156.73"
       y2="452.54999"
       gradientTransform="matrix(-34.65587,-129.33747,-129.33747,34.65587,53185.116,-35944.313)"
       gradientUnits="userSpaceOnUse">
      <stop
         offset="0"
         stop-color="#b2b1b1"
         id="stop45" />
      <stop
         offset=".35"
         stop-color="#deddde"
         id="stop47" />
      <stop
         offset=".65"
         stop-color="#deddde"
         id="stop49" />
      <stop
         offset="1"
         stop-color="#b2b1b1"
         id="stop51" />
    </linearGradient>
    <linearGradient
       id="B"
       x1="-157.74001"
       y1="452.54999"
       x2="-156.74001"
       y2="452.54999"
       gradientTransform="matrix(-34.495402,-128.73859,-128.73859,34.495402,53031.174,-35850.215)"
       xlink:href="#b" />
    <linearGradient
       id="C"
       x1="-152.07001"
       y1="454.32999"
       x2="-151.07001"
       y2="454.32999"
       gradientTransform="matrix(0,114.91,114.91,0,-52057,17472.59)"
       gradientUnits="userSpaceOnUse">
      <stop
         offset="0"
         stop-color="#fff"
         id="stop55" />
      <stop
         offset=".55"
         stop-color="#fff"
         id="stop57" />
      <stop
         offset=".69"
         stop-color="#fafafa"
         id="stop59" />
      <stop
         offset=".8"
         stop-color="#d3d2d2"
         id="stop61" />
      <stop
         offset="1"
         stop-color="#bdbcbc"
         id="stop63" />
    </linearGradient>
    <linearGradient
       id="c"
       x1="-149.09"
       y1="455.67999"
       x2="-148.09"
       y2="455.67999"
       gradientTransform="matrix(0,56.99,56.99,0,-25795.1,8531.53)"
       gradientUnits="userSpaceOnUse">
      <stop
         offset="0"
         stop-color="#fff"
         id="stop66" />
      <stop
         offset=".55"
         stop-color="#fff"
         id="stop68" />
      <stop
         offset=".69"
         stop-color="#efeeee"
         id="stop70" />
      <stop
         offset=".8"
         stop-color="#e9e9e9"
         id="stop72" />
      <stop
         offset="1"
         stop-color="#d3d2d2"
         id="stop74" />
    </linearGradient>
    <linearGradient
       id="D"
       x1="-150.74001"
       y1="454.94"
       x2="-149.74001"
       y2="454.94"
       gradientTransform="matrix(0,79.05,79.05,0,-35835.81,11929.88)"
       xlink:href="#c" />
    <linearGradient
       inkscape:collect="always"
       xlink:href="#a"
       id="linearGradient187"
       gradientUnits="userSpaceOnUse"
       gradientTransform="matrix(0,-114.32,-114.32,0,51783.8,-17942.87)"
       x1="-157.95"
       y1="451.66"
       x2="-156.95"
       y2="451.66" />
    <linearGradient
       inkscape:collect="always"
       xlink:href="#b"
       id="linearGradient189"
       gradientUnits="userSpaceOnUse"
       gradientTransform="matrix(-34.65587,-129.33747,-129.33747,34.65587,53185.116,-35944.313)"
       x1="-157.73"
       y1="452.54999"
       x2="-156.73"
       y2="452.54999" />
    <linearGradient
       inkscape:collect="always"
       xlink:href="#c"
       id="linearGradient191"
       gradientUnits="userSpaceOnUse"
       gradientTransform="matrix(0,56.99,56.99,0,-25795.1,8531.53)"
       x1="-149.09"
       y1="455.67999"
       x2="-148.09"
       y2="455.67999" />
  </defs>
  <g
     id="g185"
     transform="rotate(-90,150,150)">
    <g
       clip-path="url(#d)"
       id="g82">
      <path
         d="m 299.08,51.9 0.14,0.82 c 0,-0.27 -0.09,-0.55 -0.14,-0.82 M 150,0 C 66.74,0 0,25 0,56.25 0,87.35 67.29,112.5 150,112.5 232.71,112.5 300,87.26 300,56.25 300,25.24 232.71,0 150,0"
         fill="#d3d2d2"
         id="path80" />
    </g>
    <path
       d="m 2.31,56.22 c 0,29.83 66.09,54 147.7,54 81.61,0 147.7,-24.13 147.7,-54 0,-29.85 -66.09,-54 -147.7,-54 -81.6,0 -147.7,24.12 -147.7,54"
       fill="url(#e)"
       id="path84"
       style="fill:url(#e)" />
    <path
       d="m 13.42,56.23 a 16,16 0 0 0 1.19,6 15.28,15.28 0 0 1 -0.51,-3.91 c 0,-24.7 61.15,-44.73 136.57,-44.73 69.38,0 126.67,16.95 135.41,38.88 C 280.26,29.37 221.56,11.23 150,11.23 c -75.43,0 -136.57,20.14 -136.57,45"
       fill="url(#a)"
       id="path86"
       style="fill:url(#linearGradient187)" />
    <path
       d="m 291.53,56.23 c 0,27.21 -63.37,49.26 -141.54,49.26 C 80.42,105.49 22.59,88 10.69,65 c 9.05,24 68.42,42.48 140.31,42.48 78.16,0 141.52,-21.86 141.52,-48.84 a 18.36,18.36 0 0 0 -1.91,-8 17.94,17.94 0 0 1 0.92,5.63"
       fill="url(#f)"
       id="path88"
       style="fill:url(#f)" />
    <path
       d="m 176.36,61 c -3.17,3.3 -3.4,7.57 -1.33,9.49 a 3.91,3.91 0 0 0 2.51,1.06 7.05,7.05 0 0 1 -0.31,-7.74 4.51,4.51 0 0 1 -0.19,-2.56 0.35,0.35 0 0 0 -0.35,-0.41 0.46,0.46 0 0 0 -0.33,0.16"
       fill="url(#g)"
       id="path90"
       style="fill:url(#g)" />
    <path
       d="m 209.05,68 c 0,0.5 0.17,1.43 0.28,2.13 l 0.5,-1 c 0.13,-0.27 0.07,-0.35 -0.05,-0.39 -0.33,-0.12 -0.66,-0.36 -0.7,-0.62 a 0.22,0.22 0 0 1 0,-0.15 z"
       fill="url(#h)"
       id="path92"
       style="fill:url(#h)" />
    <path
       d="m 212.94,57.24 a 5.71,5.71 0 0 1 1.83,3.37 c 0,0.54 0.46,0.6 0.79,0.13 l 0.3,-0.47 -0.29,-0.37 a 28.36,28.36 0 0 0 -2.63,-2.66 z"
       fill="url(#i)"
       id="path94"
       style="fill:url(#i)" />
    <path
       d="m 169,55.15 a 7.9,7.9 0 0 1 1.19,4.94 c 0,0.55 0.39,0.51 0.65,0.14 l 0.42,-0.59 A 13.93,13.93 0 0 0 169,55.15 Z"
       fill="url(#j)"
       id="path96"
       style="fill:url(#j)" />
    <path
       d="m 198.29,66.25 c -3,3.64 -4.55,7.33 -4.61,10.94 a 3.81,3.81 0 0 0 1.59,3.44 3.68,3.68 0 0 0 1.13,0.39 6.23,6.23 0 0 1 -0.2,-1.45 16.78,16.78 0 0 1 4.07,-11.06 c 3.59,-4.42 7.35,-6.62 10,-5.41 a 2.87,2.87 0 0 0 -1.75,-2.33 3.58,3.58 0 0 0 -1.57,-0.35 c -2.49,0 -5.69,2.2 -8.64,5.82"
       fill="url(#k)"
       id="path98"
       style="fill:url(#k)" />
    <path
       d="m 138.92,58.55 a 23.76,23.76 0 0 0 -10.82,7.62 c -3.15,4.23 -4,9.33 -1.89,12.26 A 4.89,4.89 0 0 0 128,80 c -1.14,-3.51 -0.32,-8.21 2.36,-11.82 2.76,-3.74 5.86,-5.15 9.4,-6.68 a 0.66,0.66 0 0 0 0.43,-0.88 c -0.15,-0.71 -0.64,-2.46 -0.79,-2.88 a 0.64,0.64 0 0 1 -0.45,0.86"
       fill="url(#l)"
       id="path100"
       style="fill:url(#l)" />
    <path
       d="m 168.92,69.82 c -3.74,5.72 -7.23,11.24 -10.94,17 a 0.87,0.87 0 0 1 -0.75,0.47 h -7.33 a 0.49,0.49 0 0 1 -0.51,-0.31 c 0.2,0.89 0.52,2.49 0.61,2.87 a 0.49,0.49 0 0 0 0.54,0.39 h 8.31 a 1,1 0 0 0 0.75,-0.47 c 3.37,-5.28 7,-11 10.42,-16.31 0.76,2.66 1.14,3.91 2.55,5.17 a 6.31,6.31 0 0 0 4.7,1.63 14.59,14.59 0 0 0 5.58,-1.55 12.71,12.71 0 0 0 2,-1.07 16,16 0 0 1 0.27,-2.91 c 0,-0.1 -0.08,-0.75 -0.64,-0.36 a 15.89,15.89 0 0 1 -3.76,2 10.65,10.65 0 0 1 -4.57,1 6.47,6.47 0 0 1 -5.64,-3.16 9.47,9.47 0 0 1 -1.19,-4.33 c 0,-0.09 -0.09,-0.24 -0.2,-0.24 -0.06,0 -0.14,0 -0.21,0.16"
       fill="url(#m)"
       id="path102"
       style="fill:url(#m)" />
    <path
       d="M 233.31,72.76 A 73.57,73.57 0 0 1 222,84.15 c -5.88,4.55 -11.74,5.7 -14.65,2.79 a 6.32,6.32 0 0 1 -1.75,-4 c 0,-0.71 -0.4,-0.75 -0.74,-0.42 -3.47,3.43 -9.49,7.23 -15,4.53 a 9.1,9.1 0 0 1 -4.79,-6.66 24.64,24.64 0 0 0 1.73,6.67 8.23,8.23 0 0 0 2.89,3 c 4.86,2.4 11.81,-0.32 16.27,-4.61 l 0.12,-0.13 0.49,1.83 a 7,7 0 0 0 1.2,2.38 c 3.05,3.45 9.53,1.88 16.28,-3.33 a 65.5,65.5 0 0 0 10,-9.83 c 0.13,-0.17 0.12,-0.41 0.05,-0.78 -0.2,-0.86 -0.51,-2.44 -0.68,-3.23 a 0.56,0.56 0 0 1 -0.14,0.36 m -48.21,7.48 a 2,2 0 0 0 0,0.24 v -0.15 a 0.11,0.11 0 0 0 0,-0.1 z"
       fill="url(#n)"
       id="path104"
       style="fill:url(#n)" />
    <path
       d="m 186.81,60.75 a 6.63,6.63 0 0 1 -3.52,5.08 4.53,4.53 0 0 1 -5.06,-0.55 4,4 0 0 1 -1,-1.37 11.9,11.9 0 0 0 1.1,3.49 c 1.31,2 3.57,2.47 6.07,1.12 a 6.43,6.43 0 0 0 3.19,-6.41 11.51,11.51 0 0 0 -1.37,-4.79 5.57,5.57 0 0 1 0.56,3.44"
       fill="url(#o)"
       id="path106"
       style="fill:url(#o)" />
    <path
       d="M 238.12,40.11 C 237,42.09 215,75.53 213.63,79 a 2.56,2.56 0 0 0 0,2.54 2.15,2.15 0 0 0 1.87,0.83 6.93,6.93 0 0 1 0.44,-1.4 c 1.39,-3.47 22,-34.73 23.09,-36.71 a 0.68,0.68 0 0 0 0,-0.49 l -0.82,-3.95 a 0.57,0.57 0 0 1 -0.07,0.31"
       fill="url(#p)"
       id="path108"
       style="fill:url(#p)" />
    <path
       d="m 146.93,55.68 c 0.07,0.07 0.12,0.14 0.17,0.21 a 14.56,14.56 0 0 1 2.11,7.6 c 0.08,0.6 0.34,0.62 0.64,0.3 0.27,-0.27 0.53,-0.55 0.78,-0.83 a 23.55,23.55 0 0 0 -1.6,-4.25 13.52,13.52 0 0 0 -2.1,-3.03 z"
       fill="url(#q)"
       id="path110"
       style="fill:url(#q)" />
    <path
       d="m 158.13,62.3 c -4.74,3.59 -8.72,9.18 -10.74,11.68 A 70.57,70.57 0 0 1 142,81 c -4.89,5.3 -11.36,8.35 -17.61,6.25 A 10.59,10.59 0 0 1 117.55,80 c -0.19,-0.65 -0.55,-0.83 -0.9,-0.4 a 25.52,25.52 0 0 1 -4.8,4.28 1.1,1.1 0 0 1 -1.05,0.21 10.9,10.9 0 0 1 -1.9,-2.49 0.4,0.4 0 0 1 -0.06,-0.17 c 0.45,2.23 0.51,2.48 1.11,3.51 a 8.87,8.87 0 0 0 1.51,2 1.11,1.11 0 0 0 1,-0.09 20.64,20.64 0 0 0 5.07,-4.1 c 0.34,-0.32 0.67,-0.1 0.78,0.24 a 15.87,15.87 0 0 0 1.93,3.86 8.25,8.25 0 0 0 4.76,3.37 14.83,14.83 0 0 0 9.89,-0.6 26,26 0 0 0 9.11,-6.55 67.3,67.3 0 0 0 5.41,-7 c 2,-2.49 5.16,-6.91 9.56,-10.67 1.54,-1.31 3.23,-2.17 4.28,-1.75 0.64,-1.64 0.34,-2.54 -0.35,-3 a 1.44,1.44 0 0 0 -0.81,-0.21 7.93,7.93 0 0 0 -4,1.88"
       fill="url(#r)"
       id="path112"
       style="fill:url(#r)" />
    <path
       d="m 79.26,57.82 c -2.67,1.36 -5.87,3.69 -7.45,6.87 a 8.43,8.43 0 0 0 0.42,8.7 7.65,7.65 0 0 0 0.54,0.7 10.65,10.65 0 0 1 1,-7.13 14.51,14.51 0 0 1 6,-6.08 c 0.94,-0.59 1.35,-1.17 0.8,-2.72 -0.16,-0.44 -0.25,-1.23 -0.42,-1.94 a 1.6,1.6 0 0 1 -0.9,1.6"
       fill="url(#s)"
       id="path114"
       style="fill:url(#s)" />
    <path
       d="m 99.41,25.85 c -7.7,2.88 -11.08,9 -9.45,13.07 a 3.88,3.88 0 0 0 1.46,1.82 c -0.54,-3.77 2.28,-9.93 9.68,-12.38 9.69,-3.2 20.48,-1.18 29.17,0.68 1.21,-0.76 2.28,-1.29 3.34,-1.86 0.53,-0.27 -0.07,-0.6 -0.23,-0.6 -6.95,-1.31 -14.07,-2.85 -21.14,-2.85 a 36.52,36.52 0 0 0 -12.83,2.14"
       fill="url(#t)"
       id="path116"
       style="fill:url(#t)" />
    <path
       d="m 131.68,48.77 c -3.48,0.2 -8.93,0.73 -12.61,1.19 -0.9,0.11 -1,0.28 -1.21,0.59 -5.88,9.69 -12.15,20.14 -19,27.13 -7.38,7.5 -13.53,9.47 -20,9.53 -7.52,0.05 -14.23,-4.22 -15.91,-11.71 0.9,4.18 3.6,9.23 6.72,11.42 a 16.67,16.67 0 0 0 9.95,3 c 7.42,0.13 14.19,-2.93 21.36,-10.22 6.89,-7 12.86,-16.76 18.74,-26.45 0.2,-0.35 0.4,-0.5 1.39,-0.62 3.69,-0.46 7,-0.67 10.26,-1 1,-0.09 1.71,-0.18 2.06,0.17 a 19.29,19.29 0 0 0 3.45,2.78 2.18,2.18 0 0 1 1.46,0.46 1.78,1.78 0 0 0 1,-0.48 1.39,1.39 0 0 0 0.37,-1.31 15.4,15.4 0 0 0 -0.62,-2.85 1.16,1.16 0 0 1 -0.29,1.24 1.53,1.53 0 0 1 -1.18,0.56 2.46,2.46 0 0 1 -1.21,-0.44 11.44,11.44 0 0 1 -3.37,-2.71 0.81,0.81 0 0 0 -0.79,-0.37 h -0.46"
       fill="url(#u)"
       id="path118"
       style="fill:url(#u)" />
    <path
       d="m 99.85,54.63 a 1.76,1.76 0 0 1 -2.49,-0.27 1.59,1.59 0 0 1 -0.26,-0.84 8,8 0 0 0 0.84,3.72 1.93,1.93 0 0 0 2.7,0.28 15.64,15.64 0 0 1 6.55,-3.05 l 1.94,-2.68 a 0.26,0.26 0 0 0 0,-0.24 c 0,-0.08 -0.11,-0.11 -0.25,-0.12 a 15.24,15.24 0 0 0 -9.06,3.2"
       fill="url(#v)"
       id="path120"
       style="fill:url(#v)" />
    <path
       d="m 193.52,23.78 0.13,0.22 a 1.49,1.49 0 0 0 -0.13,-0.22 z"
       fill="url(#w)"
       id="path122"
       style="fill:url(#w)" />
    <path
       d="m 193.87,25.21 c -0.12,2.14 -1.78,4.21 -5.88,6.44 A 29.92,29.92 0 0 1 173.38,35 c -12.31,0.1 -23.77,-4.69 -35.63,-7.27 0,0.52 0.15,1.14 -0.28,1.46 C 130.9,34.07 125,39 121,45.9 c -0.13,0.16 -0.06,0.32 0.17,0.3 l 3.07,-0.15 c 3.62,-5.67 7.5,-8.93 13.42,-13.3 0.44,-0.33 0.88,-0.57 0.74,-1.83 11.89,2.64 20.94,7 36.3,7.06 4.58,0 11,-1.52 14.52,-3.62 4,-2.4 5.06,-4.17 5.21,-6 a 7.85,7.85 0 0 0 -0.2,-1.9 c -0.13,-0.63 -0.23,-1.44 -0.41,-2 a 2.52,2.52 0 0 1 0.07,0.83"
       fill="url(#x)"
       id="path124"
       style="fill:url(#x)" />
    <path
       d="m 136.59,39.67 -0.47,0.43 a 5,5 0 0 0 -1.36,4 c 0.09,0.5 0.28,0.59 0.51,0.55 a 4.17,4.17 0 0 0 0.68,-0.21 3,3 0 0 1 1,-1.92 2,2 0 0 1 1.63,-0.54 c 0.45,-0.91 0.58,-2 0,-2.46 a 1.29,1.29 0 0 0 -0.86,-0.31 2.14,2.14 0 0 0 -1.2,0.42"
       fill="url(#y)"
       id="path126"
       style="fill:url(#y)" />
    <path
       d="m 141.33,43.89 a 7.9,7.9 0 0 1 -4.78,3.87 c 0,0 -0.38,0.08 -0.32,0.42 0,0.39 1.31,1.19 2.1,1.75 l 0.28,-0.1 a 6.22,6.22 0 0 0 3.33,-3.23 7,7 0 0 0 0.63,-4.36 10.65,10.65 0 0 0 -0.88,-3.55 6,6 0 0 1 -0.37,5.18"
       fill="url(#z)"
       id="path128"
       style="fill:url(#z)" />
    <path
       d="m 108.47,33.8 a 3.1,3.1 0 0 1 -0.2,2.38 c -3.26,7.65 -9.48,13.72 -17.05,14 a 9.79,9.79 0 0 1 -9.58,-5.65 15.6,15.6 0 0 0 5.67,6.2 10.5,10.5 0 0 0 6,1.51 c 7.89,-0.27 13.87,-6.77 15.85,-12.26 a 7.35,7.35 0 0 0 -0.13,-4.14 11.17,11.17 0 0 0 -0.54,-2 z"
       fill="url(#A)"
       id="path130"
       style="fill:url(#A)" />
    <g
       clip-path="url(#d)"
       id="g134">
      <path
         d="m 299.08,51.9 0.14,0.82 c 0,-0.27 -0.09,-0.55 -0.14,-0.82 m -298,5 c 0,-6.58 2.87,-13.12 9,-19.28 C 31.47,15.93 87.74,1.29 149.75,1 231.89,0.69 298.83,25.18 299,55.63 c 0,6.58 -3,13 -9.15,19.19 -21.48,21.67 -77.56,36.39 -139.57,36.65 C 68.11,111.81 1.17,87.31 1,56.86 M 150,0 C 66.74,0 0,25 0,56.25 0,87.35 67.29,112.5 150,112.5 232.71,112.5 300,87.26 300,56.25 300,25.24 232.71,0 150,0"
         fill="#4f4c4d"
         id="path132" />
    </g>
    <path
       d="m 0.45,56.25 a 21.15,21.15 0 0 0 0.47,4.36 21.41,21.41 0 0 1 -0.36,-3.74 c 0,-6.67 3,-13.4 9.1,-19.61 21.6,-21.78 77.92,-36.44 140.09,-36.7 8.61,0 17.05,0.21 25.27,0.7 -8.14,-0.51 -16.5,-0.78 -25,-0.78 C 67.08,0.47 0.45,25.33 0.45,56.25"
       fill="url(#b)"
       id="path136"
       style="fill:url(#linearGradient189)" />
    <path
       d="m 299.44,55.64 c 0,6.67 -3.13,13.32 -9.28,19.52 -21.52,21.71 -77.82,36.52 -139.9,36.78 -8.78,0 -17.39,-0.2 -25.75,-0.71 8.28,0.53 16.8,0.79 25.5,0.79 82.45,0 149.53,-25.17 149.53,-55.76 a 21.41,21.41 0 0 0 -0.3,-3.48 20.79,20.79 0 0 1 0.21,2.86"
       fill="url(#B)"
       id="path138"
       style="fill:url(#B)" />
    <path
       d="m 8.44,56.23 c 0,27.21 63.37,49.26 141.55,49.26 78.17,0 141.54,-22.05 141.54,-49.26 C 291.53,29 228.16,7 150,7 71.82,7 8.44,29 8.44,56.23 m 5,0 c 0,-24.85 61.14,-45 136.57,-45 75.43,0 136.56,20.14 136.56,45 0,24.85 -61.13,45 -136.56,45 -75.43,0 -136.57,-20.15 -136.57,-45"
       fill="url(#C)"
       id="path140"
       style="fill:url(#C)" />
    <path
       d="m 230.1,39.52 c -0.56,0 -0.85,0.07 -1.11,0.59 -0.87,1.67 -11.46,17.54 -13.43,20.63 -0.33,0.47 -0.74,0.4 -0.79,-0.13 a 6.64,6.64 0 0 0 -4.27,-4.94 10.89,10.89 0 0 0 -5.68,-0.66 20.24,20.24 0 0 0 -9.32,4.38 c -4.12,3.12 -7.66,7.18 -12.25,10.17 -2.5,1.63 -5.93,3.05 -8.21,0.93 -2.07,-1.92 -1.84,-6.19 1.33,-9.49 0.34,-0.35 0.74,-0.06 0.68,0.25 a 4.19,4.19 0 0 0 1.2,4 4.53,4.53 0 0 0 5.06,0.55 6.63,6.63 0 0 0 3.52,-5.08 5.78,5.78 0 0 0 -5.31,-6.58 10.61,10.61 0 0 0 -7.63,2.77 14.51,14.51 0 0 0 -3,3.3 c -0.26,0.37 -0.66,0.41 -0.65,-0.14 0.12,-4.32 -1.66,-6.74 -5.23,-6.83 -2.77,-0.07 -5.73,1.44 -8,3.28 a 74.18,74.18 0 0 0 -7.11,7.25 c -0.3,0.31 -0.55,0.3 -0.64,-0.3 a 14.57,14.57 0 0 0 -2.11,-7.6 1.76,1.76 0 0 0 -2.28,-0.56 16.27,16.27 0 0 0 -2.68,1.6 1.51,1.51 0 0 0 -0.46,1.7 19.94,19.94 0 0 1 -0.74,13.23 c -1.59,3.76 -4.69,7.15 -8.32,8.29 -2.4,0.76 -4.89,0.39 -6.43,-1.73 -2.12,-2.93 -1.26,-8 1.89,-12.26 a 23.76,23.76 0 0 1 10.82,-7.62 0.63,0.63 0 0 0 0.44,-0.89 c -0.22,-0.66 -0.57,-1.56 -0.71,-2 -0.37,-1 -1.4,-1.14 -2.66,-1 a 22.66,22.66 0 0 0 -8.15,2.73 c -6.81,3.64 -10.22,10.7 -11.72,14.47 a 14.71,14.71 0 0 1 -2.15,4.02 38.89,38.89 0 0 1 -4.89,4.74 0.87,0.87 0 0 0 -0.2,1 10.9,10.9 0 0 0 1.9,2.49 1.1,1.1 0 0 0 1.05,-0.21 25.52,25.52 0 0 0 4.8,-4.28 c 0.35,-0.43 0.71,-0.25 0.9,0.4 a 10.59,10.59 0 0 0 6.82,7.25 c 6.24,2.1 12.72,-0.94 17.61,-6.25 a 70.57,70.57 0 0 0 5.42,-7 c 2,-2.5 6,-8.09 10.74,-11.68 1.74,-1.33 3.8,-2.34 4.83,-1.67 0.83,0.54 1.1,1.79 -0.23,4.21 -4.85,8.82 -11.96,19.15 -13.27,21.71 -0.24,0.43 0,0.78 0.43,0.78 h 7.33 a 0.87,0.87 0 0 0 0.75,-0.47 c 3.71,-5.8 7.2,-11.33 10.94,-17 0.21,-0.33 0.4,-0.07 0.41,0.07 a 9.46,9.46 0 0 0 1.19,4.33 6.47,6.47 0 0 0 5.64,3.16 10.65,10.65 0 0 0 4.57,-1 15.89,15.89 0 0 0 3.76,-2 c 0.56,-0.39 0.66,0.26 0.64,0.36 -0.86,4.61 0.2,10.07 4.78,12.33 5.48,2.7 11.51,-1.1 15,-4.53 0.34,-0.33 0.7,-0.29 0.74,0.42 a 6.33,6.33 0 0 0 1.75,4 c 2.9,2.91 8.77,1.76 14.65,-2.79 a 73.61,73.61 0 0 0 11.29,-11.39 0.5,0.5 0 0 0 0,-0.72 c -0.54,-0.56 -1.33,-1.22 -1.87,-1.72 a 0.67,0.67 0 0 0 -0.82,0 c -3.66,3.48 -6.95,7.44 -11.71,10.72 -1.6,1.12 -4.16,2 -5.31,0.47 a 2.56,2.56 0 0 1 0,-2.54 C 215,75.53 237,42.09 238.11,40.11 c 0.2,-0.34 0,-0.59 -0.44,-0.59 h -7.58 m -34.82,41.1 a 3.83,3.83 0 0 1 -1.59,-3.44 c 0.06,-3.6 1.65,-7.3 4.61,-10.94 3.61,-4.43 7.59,-6.74 10.21,-5.48 2.71,1.29 1.84,4.42 0.63,6.88 a 0.69,0.69 0 0 0 0,0.51 c 0,0.25 0.38,0.5 0.7,0.62 0.12,0 0.18,0.13 0.05,0.39 a 32.19,32.19 0 0 1 -3,4.9 18.27,18.27 0 0 1 -3.76,4.07 c -1.71,1.41 -3.93,2.93 -6,2.93 a 3.78,3.78 0 0 1 -1.81,-0.44"
       fill="url(#c)"
       id="path142"
       style="fill:url(#linearGradient191)" />
    <path
       d="m 113.32,19.24 c -2.1,0 -4.2,0.08 -6.32,0.25 -13.5,1.14 -26.35,8.74 -26.38,20.28 0,5.85 4.15,10.59 10.59,10.39 7.58,-0.26 13.79,-6.32 17.05,-14 1.23,-2.9 -1.06,-4.11 -2.14,-2.44 a 19.28,19.28 0 0 1 -7.64,6.8 c -3.56,1.75 -7.37,1.27 -8.53,-1.62 -1.62,-4.08 1.75,-10.19 9.45,-13.07 11.13,-4.12 22.77,-1.39 34,0.71 0.16,0 0.76,0.33 0.23,0.6 a 32.74,32.74 0 0 0 -7.05,4.63 58.94,58.94 0 0 0 -7.33,7.14 c -2.21,2.7 -3.79,5.11 -5.86,7.78 a 0.82,0.82 0 0 1 -0.64,0.37 c -5.07,0.86 -10,1.43 -14.57,4.59 a 2,2 0 0 0 -0.78,2.68 1.76,1.76 0 0 0 2.49,0.27 15.24,15.24 0 0 1 9.06,-3.2 c 0.15,0 0.21,0 0.25,0.12 v 0.24 a 134.1,134.1 0 0 1 -10,12.78 73.87,73.87 0 0 1 -5.92,6 c -8.52,7.92 -17.7,7.79 -21,2.82 a 8.43,8.43 0 0 1 -0.42,-8.7 c 1.58,-3.18 4.79,-5.51 7.45,-6.87 1,-0.51 1.27,-1.77 0.28,-2.92 -0.63,-0.75 -2.16,-0.89 -3.29,-0.68 A 18.16,18.16 0 0 0 66.24,60.65 17.71,17.71 0 0 0 62.58,73.4 c 0.83,8.77 8,13.83 16.23,13.77 6.52,-0.05 12.67,-2 20,-9.53 6.89,-7 13.16,-17.45 19,-27.13 0.18,-0.31 0.31,-0.48 1.21,-0.59 3.68,-0.46 9.13,-1 12.61,-1.19 0.78,0 0.94,0 1.25,0.35 a 11.44,11.44 0 0 0 3.37,2.71 2.46,2.46 0 0 0 1.21,0.44 1.53,1.53 0 0 0 1.18,-0.56 1.14,1.14 0 0 0 0.28,-1.28 c -0.21,-0.36 -2.64,-1.71 -2.72,-2.25 -0.05,-0.34 0.32,-0.42 0.32,-0.42 a 7.9,7.9 0 0 0 4.78,-3.87 c 1.11,-2.13 1.29,-5 -0.74,-6.54 -1.78,-1.38 -4.46,-1.16 -6.61,0.76 a 8,8 0 0 0 -2.5,7 c 0,0.41 0,0.55 -0.54,0.6 -3.23,0.25 -6.33,0.35 -9.79,0.53 -0.23,0 -0.3,-0.13 -0.17,-0.3 4,-6.91 9.92,-11.83 16.48,-16.68 0.43,-0.32 0.3,-0.95 0.28,-1.46 11.86,2.58 23.32,7.37 35.63,7.27 A 29.92,29.92 0 0 0 188,31.66 c 4.1,-2.24 5.76,-4.3 5.88,-6.44 a 1.87,1.87 0 0 0 -2.4,-2.1 C 179,26 167.18,25.93 154.8,24.44 c -14,-1.7 -27.5,-5.2 -41.46,-5.2 m 21.44,24.91 a 5,5 0 0 1 1.65,-4.32 1.74,1.74 0 0 1 2.24,-0.27 c 0.66,0.56 0.35,2 -0.32,2.92 a 5.36,5.36 0 0 1 -3.07,2.21 h -0.09 c -0.19,0 -0.34,-0.13 -0.42,-0.56"
       fill="url(#D)"
       id="path144"
       style="fill:url(#D)" />
  </g>
</svg>
