<?xml version="1.0" encoding="UTF-8" standalone="no"?>
<svg
   xmlns:dc="http://purl.org/dc/elements/1.1/"
   xmlns:cc="http://creativecommons.org/ns#"
   xmlns:rdf="http://www.w3.org/1999/02/22-rdf-syntax-ns#"
   xmlns:svg="http://www.w3.org/2000/svg"
   xmlns="http://www.w3.org/2000/svg"
   xmlns:sodipodi="http://sodipodi.sourceforge.net/DTD/sodipodi-0.dtd"
   xmlns:inkscape="http://www.inkscape.org/namespaces/inkscape"
   width="600"
   height="549.21002"
   viewBox="0 0 600.00003 549.21002"
   version="1.1"
   id="svg10"
   sodipodi:docname="28-burger-king.svg"
   inkscape:version="1.0.2 (e86c870879, 2021-01-15, custom)">
  <metadata
     id="metadata14">
    <rdf:RDF>
      <cc:Work
         rdf:about="">
        <dc:format>image/svg+xml</dc:format>
        <dc:type
           rdf:resource="http://purl.org/dc/dcmitype/StillImage" />
        <dc:title></dc:title>
      </cc:Work>
    </rdf:RDF>
  </metadata>
  <sodipodi:namedview
     pagecolor="#ffffff"
     bordercolor="#666666"
     borderopacity="1"
     objecttolerance="10"
     gridtolerance="10"
     guidetolerance="10"
     inkscape:pageopacity="0"
     inkscape:pageshadow="2"
     inkscape:window-width="1912"
     inkscape:window-height="1011"
     id="namedview12"
     showgrid="false"
     inkscape:zoom="1.1532258"
     inkscape:cx="300.00499"
     inkscape:cy="274.605"
     inkscape:window-x="0"
     inkscape:window-y="36"
     inkscape:window-maximized="1"
     inkscape:current-layer="svg10" />
  <defs
     id="defs2" />
  <g
     id="g19"
     transform="rotate(-90,274.605,284.605)">
    <path
       fill="#f5ebdc"
       d="M 284.6,610 C 167.4,610 102.56,600.34 60.35,576.44 29.32,558.9 10,532.46 10,507.54 V 176.78 C 10,139.66 37.2,97.2 80.69,66.18 116.8,40.5 181.63,10 284.6,10 c 179.26,0 274.61,96.86 274.61,166.78 v 330.5 c 0,25.17 -19.32,51.61 -50.6,69.16 C 466.67,600.33 401.83,610 284.6,610"
       id="path4" />
    <path
       fill="#ff8732"
       d="M 494.19,550.32 C 453.29,573.4 383.13,580 286.08,580 189.03,580 118.86,573.4 77.98,550.32 53.41,536.49 41,517.65 41,504.13 c 0,-7.69 4.1,-12.1 13.2,-12.1 h 463.74 c 9.12,0 13.21,4.41 13.21,12.1 0,13.52 -12.42,32.36 -36.96,46.19 M 517.94,192.2 H 54.21 c -9.12,0 -13.2,-4.71 -13.2,-13.2 0,-50.26 75.65,-139 245.07,-139 167.85,0 245.08,88.74 245.08,139 0,8.49 -4.1,13.2 -13.22,13.2"
       id="path6" />
    <path
       fill="#d62300"
       d="m 139.78,399.53 c -1.42,-2.2 -1.57,-3.61 -1.57,-4.23 0,-1.73 0.95,-2.99 2.83,-4.71 4.4,-4.1 15.27,-14.3 21.24,-23.57 4.56,-7.06 6.44,-13.5 6.44,-18.84 0,-13.66 -12.42,-24.35 -25.95,-24.35 -8.66,0 -16.83,4.87 -22.34,13.82 -7.39,11.94 -16.2,25.76 -21.86,31.26 -1.41,1.42 -2.2,1.73 -3.3,1.73 -1.89,0 -2.67,-1.26 -2.67,-3.3 v -15.7 c 0,-15.4 -9.12,-27.8 -25.64,-27.8 -16.68,0 -25.65,12.4 -25.65,27.8 v 96.76 c 0,15.39 8.97,27.8 25.65,27.8 16.52,0 25.64,-12.4 25.64,-27.8 v -22.3 c 0,-1.89 0.78,-3.3 2.67,-3.3 2.52,0 3.15,2.52 3.78,3.77 3.62,8.64 14.15,27.01 23.91,37.85 6.6,7.23 14.79,11.79 23.44,11.79 14.63,0 26.9,-12.73 26.9,-26.4 0,-8.48 -3.62,-14.76 -10.54,-22.3 -8.81,-9.6 -19.2,-22.16 -22.98,-27.97 m 196.17,-84.67 c 24.7,0 40.27,-15.7 40.27,-38.64 0,-14.6 -8.82,-24.66 -26.43,-24.66 h -5.03 c -9.29,0 -16.52,4.4 -16.52,14.3 0,8.8 7.7,13.04 13.53,13.04 2.99,0 4.88,0.94 4.88,3.14 0,2.82 -3.3,4.71 -7.08,4.71 -11.8,0 -19.82,-8.33 -19.82,-23.88 0,-17.27 11.02,-23.55 19.5,-23.55 10.39,0 12.12,5.34 19.36,5.34 8.33,0 14,-6.91 14,-14.13 0,-5.34 -2.36,-9.42 -5.98,-12.26 -6.6,-4.87 -15.88,-8.47 -29.73,-8.47 -24.39,0 -48.13,16.02 -48.13,53.08 -0.02,35.49 23.74,51.98 47.18,51.98 M 59.4,313.93 h 22.19 c 20.92,0 33.66,-13.98 33.66,-31.42 0,-13.98 -8.34,-20.41 -10.23,-21.99 -0.78,-0.63 -1.56,-1.25 -1.56,-1.88 0,-0.78 0.46,-1.1 1.26,-2.04 2.98,-3.46 5.97,-8.95 5.97,-16.97 0,-18.84 -12.75,-28.9 -32.57,-28.9 H 59.4 c -12.42,0 -18.4,7.24 -18.4,16.97 v 69.26 c 0,9.75 5.98,16.97 18.4,16.97 m 9.29,-76.18 c 0,-2.04 1.26,-3.61 3.93,-3.61 h 2.04 c 6.76,0 8.82,4.7 8.82,8.8 0,3.77 -2.04,9.1 -8.82,9.1 h -2.04 c -2.67,0 -3.93,-1.56 -3.93,-3.6 v -10.69 m 0,36.76 c 0,-2.04 1.26,-3.62 3.93,-3.62 h 2.83 c 7.55,0 9.75,5.02 9.75,9.58 0,4.1 -2.2,9.9 -9.75,9.9 h -2.83 c -2.67,0 -3.93,-1.57 -3.93,-3.61 V 274.5 m 401.44,40.2 c 10.07,0 15.57,-7.54 15.57,-16.96 V 281.1 c 0,-2.04 0.95,-2.98 2.52,-2.98 1.88,0 2.5,1.1 2.82,2.98 1.42,8 5.2,18.84 9.44,24.35 5.35,7.07 10.38,9.27 15.42,9.27 8.17,0 15.26,-6.44 15.26,-14.46 0,-5.34 -2.2,-9.27 -5.04,-12.87 -5.35,-6.75 -8.65,-11.15 -10.69,-16.65 -0.47,-1.26 -0.16,-2.36 1.26,-3.45 4.88,-3.77 10.54,-12.1 10.54,-25.29 0,-19.95 -16.52,-31.26 -36.5,-31.26 h -17.77 c -12.43,0 -18.4,7.22 -18.4,16.96 v 70.06 c 0,9.42 5.5,16.95 15.57,16.95 m 13.84,-74.28 c 0,-2.04 1.26,-3.62 3.93,-3.62 h 2.2 c 6.61,0 8.65,4.71 8.65,8.8 0,3.93 -2.04,9.1 -8.65,9.1 h -2.2 c -2.68,0 -3.93,-1.55 -3.93,-3.6 v -10.69 0.01 m -272.45,83.4 c -17.62,0 -27.22,13.18 -27.22,29.68 v 92.99 c 0,16.5 9.6,29.69 27.22,29.69 17.61,0 27.2,-13.2 27.2,-29.69 v -93 c 0,-16.48 -9.58,-29.68 -27.2,-29.68 M 491.2,384.3 h -7.7 c -13.85,0 -24.54,6.44 -24.54,20.57 0,12.88 11.64,19 20.29,19 4.24,0 7.23,1.26 7.23,4.56 0,4.08 -5.03,6.75 -10.38,6.75 -17.78,0 -29.89,-12.1 -29.89,-34.56 0,-24.97 16.52,-34.08 29.26,-34.08 15.57,0 18.09,7.86 28.94,7.86 a 20.86,20.86 0 0 0 21.08,-20.58 c 0,-7.7 -3.46,-13.67 -8.97,-17.75 -9.6,-7.07 -24.06,-12.26 -44.52,-12.26 -36.65,0 -72.36,23.09 -72.36,76.8 0,51.37 35.7,75.4 70.95,75.4 36.96,0 60.4,-22.77 60.4,-56.07 0,-21.04 -13.2,-35.64 -39.79,-35.64 m -59.46,-70.37 c 8.82,0 15.74,-5.18 15.74,-14.6 0,-9.28 -6.93,-14.46 -15.73,-14.46 h -14.16 c -2.67,0 -3.93,-1.57 -3.93,-3.61 v -3 c 0,-2.03 1.26,-3.6 3.93,-3.6 h 10.86 c 7.55,0 13.53,-4.56 13.53,-12.58 0,-8 -5.98,-12.56 -13.53,-12.56 h -10.86 c -2.67,0 -3.93,-1.57 -3.93,-3.62 v -2.51 c 0,-2.04 1.26,-3.61 3.93,-3.61 h 14.16 c 8.8,0 15.73,-5.19 15.73,-14.6 0,-9.28 -6.92,-14.47 -15.73,-14.47 h -29.73 c -12.42,0 -18.4,7.23 -18.4,16.97 v 69.27 c 0,9.73 5.97,16.96 18.4,16.96 h 29.73 v 0.02 m -270.26,0.78 c 25.49,0 39.02,-15.24 39.02,-34.4 v -52.93 c 0,-9.42 -5.5,-16.97 -15.58,-16.97 -10.07,0 -15.57,7.55 -15.57,16.97 v 51.2 c 0,3.77 -2.2,8.16 -7.87,8.16 -5.67,0 -7.56,-4.4 -7.56,-8.16 v -51.2 c 0,-9.42 -5.65,-16.97 -15.73,-16.97 -10.06,0 -15.57,7.55 -15.57,16.97 v 52.93 c 0.01,19.17 13.39,34.4 38.87,34.4 m 110.42,0 c 8.18,0 15.27,-6.44 15.27,-14.45 0,-5.34 -2.2,-9.27 -5.04,-12.88 -4.56,-5.97 -8.65,-11.15 -10.69,-16.64 -0.47,-1.26 -0.16,-2.37 1.26,-3.47 4.88,-3.76 10.55,-12.09 10.55,-25.28 0,-19.95 -16.53,-31.26 -36.5,-31.26 h -17.8 c -12.41,0 -18.4,7.22 -18.4,16.97 v 70.05 c 0,9.42 5.51,16.97 15.58,16.97 10.07,0 15.58,-7.55 15.58,-16.97 v -16.64 c 0,-2.04 0.94,-2.99 2.51,-2.99 1.9,0 2.52,1.1 2.83,2.99 1.41,8 5.19,18.84 9.44,24.35 5.35,7.05 10.37,9.25 15.41,9.25 m -25.8,-60 h -2.2 c -2.68,0 -3.93,-1.57 -3.93,-3.61 v -10.68 c 0,-2.04 1.26,-3.61 3.93,-3.61 h 2.2 c 6.61,0 8.65,4.71 8.65,8.8 0,3.92 -2.04,9.1 -8.65,9.1 m 116.25,69.11 c -16.2,0 -25.01,12.1 -25.01,27.33 v 33.93 c 0,2.82 -0.95,4.08 -2.68,4.08 -1.26,0 -2.2,-0.78 -3.3,-2.98 l -21.86,-42.4 c -8.34,-16.18 -17,-19.95 -26.9,-19.95 -16.52,0 -25.64,12.4 -25.64,27.96 v 97.07 c 0,15.24 8.8,27.34 25,27.34 16.21,0 25.01,-12.1 25.01,-27.34 v -33.92 c 0,-2.82 0.95,-4.1 2.68,-4.1 1.26,0 2.2,0.8 3.3,3 l 21.86,42.4 c 8.34,16.19 17.3,19.95 26.9,19.95 16.53,0 25.65,-12.4 25.65,-27.96 v -97.07 c 0,-15.24 -8.8,-27.33 -25.01,-27.33"
       id="path8" />
  </g>
</svg>
