<?xml version="1.0" encoding="UTF-8" standalone="no"?>
<svg
   xmlns:dc="http://purl.org/dc/elements/1.1/"
   xmlns:cc="http://creativecommons.org/ns#"
   xmlns:rdf="http://www.w3.org/1999/02/22-rdf-syntax-ns#"
   xmlns:svg="http://www.w3.org/2000/svg"
   xmlns="http://www.w3.org/2000/svg"
   xmlns:sodipodi="http://sodipodi.sourceforge.net/DTD/sodipodi-0.dtd"
   xmlns:inkscape="http://www.inkscape.org/namespaces/inkscape"
   width="49.284458"
   height="199.99774"
   version="1.1"
   id="svg4"
   sodipodi:docname="29-rovio.svg"
   inkscape:version="1.0.2 (e86c870879, 2021-01-15, custom)">
  <metadata
     id="metadata10">
    <rdf:RDF>
      <cc:Work
         rdf:about="">
        <dc:format>image/svg+xml</dc:format>
        <dc:type
           rdf:resource="http://purl.org/dc/dcmitype/StillImage" />
        <dc:title></dc:title>
      </cc:Work>
    </rdf:RDF>
  </metadata>
  <defs
     id="defs8" />
  <sodipodi:namedview
     pagecolor="#ffffff"
     bordercolor="#666666"
     borderopacity="1"
     objecttolerance="10"
     gridtolerance="10"
     guidetolerance="10"
     inkscape:pageopacity="0"
     inkscape:pageshadow="2"
     inkscape:window-width="1912"
     inkscape:window-height="1011"
     id="namedview6"
     showgrid="false"
     inkscape:zoom="7.445"
     inkscape:cx="24.6411"
     inkscape:cy="99.936526"
     inkscape:window-x="0"
     inkscape:window-y="36"
     inkscape:window-maximized="1"
     inkscape:current-layer="svg4" />
  <g
     id="g13"
     transform="rotate(-90,99.999943,100.00006)">
    <path
       d="m 199.94,22.51 c 0,-1.25 -0.11,-2.33 -0.19,-3.22 a 20.34,20.34 0 0 0 -0.35,-2.37 20,20 0 0 0 -0.54,-2 14.1,14.1 0 0 0 -5.45,-7.56 16.31,16.31 0 0 0 -9.29,-2.56 16,16 0 0 0 -9.22,2.6 14.2,14.2 0 0 0 -5.45,7.6 19,19 0 0 0 -0.54,2 19.94,19.94 0 0 0 -0.35,2.37 c -0.08,0.89 -0.15,2 -0.19,3.22 -0.04,1.22 -0.06,2.74 -0.06,4.49 0,1.75 0,3.26 0.06,4.49 0.06,1.23 0.1,2.33 0.19,3.22 a 19.29,19.29 0 0 0 0.35,2.37 19.08,19.08 0 0 0 0.54,2 14.08,14.08 0 0 0 5.45,7.56 18,18 0 0 0 18.52,0 14.21,14.21 0 0 0 5.45,-7.72 17.94,17.94 0 0 0 0.88,-4.33 c 0.08,-0.89 0.14,-2 0.19,-3.22 0.05,-1.22 0.06,-2.73 0.06,-4.45 0,-1.72 0,-3.22 -0.06,-4.49 z M 193.7,31 a 34.41,34.41 0 0 1 -0.53,4.89 10.41,10.41 0 0 1 -0.33,1.36 8.68,8.68 0 0 1 -3.12,4.5 9.48,9.48 0 0 1 -5.62,1.53 9.25,9.25 0 0 1 -5.57,-1.53 8.78,8.78 0 0 1 -3.07,-4.51 10.4,10.4 0 0 1 -0.33,-1.36 32.6,32.6 0 0 1 -0.52,-4.89 c -0.04,-1.1 -0.06,-2.44 -0.06,-4 0,-1.56 0,-2.87 0.06,-4 0.06,-1.13 0.11,-2.08 0.21,-2.89 0.1,-0.81 0.21,-1.53 0.31,-2 a 10.35,10.35 0 0 1 0.33,-1.36 8.8,8.8 0 0 1 3.07,-4.5 9.31,9.31 0 0 1 5.57,-1.53 9.58,9.58 0 0 1 5.62,1.53 8.71,8.71 0 0 1 3.12,4.51 10.39,10.39 0 0 1 0.33,1.36 c 0.1,0.56 0.2,1.25 0.31,2 0.11,0.75 0.18,1.79 0.22,2.89 0.04,1.1 0.06,2.46 0.06,4 0,1.54 -0.01,2.84 -0.06,4 z M 161,5.54 h -4.34 a 0.86,0.86 0 0 0 -0.95,0.94 v 41 a 0.86,0.86 0 0 0 0.95,0.93 H 161 a 0.86,0.86 0 0 0 0.95,-0.93 v -41 A 0.86,0.86 0 0 0 161,5.54 Z m -11.07,0 h -4.34 a 1.1,1.1 0 0 0 -1.12,0.84 L 134.25,38.3 123.68,6.39 A 1.14,1.14 0 0 0 122.5,5.55 h -4.28 a 0.79,0.79 0 0 0 -0.71,0.33 0.94,0.94 0 0 0 0,0.84 l 13.72,40.91 a 1.06,1.06 0 0 0 1,0.85 h 3.68 a 1.06,1.06 0 0 0 1,-0.84 L 150.6,6.73 a 0.94,0.94 0 0 0 0,-0.87 0.81,0.81 0 0 0 -0.67,-0.32 z m -35,13.75 a 20,20 0 0 0 -0.35,-2.37 19.23,19.23 0 0 0 -0.54,-2 A 14.13,14.13 0 0 0 108.59,7.36 16.32,16.32 0 0 0 99.3,4.8 16,16 0 0 0 90,7.4 14.2,14.2 0 0 0 84.59,15 19.27,19.27 0 0 0 84.05,17 19.94,19.94 0 0 0 83.7,19.37 c -0.08,0.89 -0.15,2 -0.19,3.22 -0.04,1.22 -0.06,2.74 -0.06,4.49 0,1.75 0,3.26 0.06,4.49 0.06,1.23 0.1,2.33 0.19,3.22 a 19.82,19.82 0 0 0 0.35,2.37 19.27,19.27 0 0 0 0.54,2 14.08,14.08 0 0 0 5.41,7.45 18,18 0 0 0 18.52,0 14.22,14.22 0 0 0 5.48,-7.61 19.2,19.2 0 0 0 0.54,-2 19.91,19.91 0 0 0 0.35,-2.37 c 0.08,-0.9 0.15,-2 0.19,-3.22 0.04,-1.22 0.06,-2.77 0.06,-4.49 0,-1.72 0,-3.23 -0.06,-4.49 -0.06,-1.26 -0.12,-2.31 -0.21,-3.22 z M 108.82,31 a 33.09,33.09 0 0 1 -0.53,4.89 10.41,10.41 0 0 1 -0.33,1.36 8.68,8.68 0 0 1 -3.12,4.5 9.49,9.49 0 0 1 -5.62,1.53 9.26,9.26 0 0 1 -5.57,-1.53 8.77,8.77 0 0 1 -3.07,-4.51 10.4,10.4 0 0 1 -0.33,-1.36 32.9,32.9 0 0 1 -0.52,-4.89 c -0.04,-1.09 -0.06,-2.43 -0.06,-4 0,-1.57 0,-2.87 0.06,-4 0.06,-1.13 0.11,-2.08 0.21,-2.89 0.1,-0.81 0.21,-1.53 0.31,-2 a 10.35,10.35 0 0 1 0.33,-1.36 8.8,8.8 0 0 1 3.07,-4.5 9.31,9.31 0 0 1 5.57,-1.53 9.58,9.58 0 0 1 5.62,1.53 8.71,8.71 0 0 1 3.16,4.5 10.39,10.39 0 0 1 0.33,1.36 c 0.1,0.55 0.2,1.25 0.31,2 0.11,0.75 0.18,1.79 0.22,2.89 0.04,1.1 0.06,2.46 0.06,4 0,1.54 -0.06,2.85 -0.1,4.01 z M 70.11,29.73 A 12.28,12.28 0 0 0 76,25.51 12.14,12.14 0 0 0 78.32,18 a 13,13 0 0 0 -1,-5.11 11.3,11.3 0 0 0 -2.77,-4 A 12.77,12.77 0 0 0 70.26,6.37 16.48,16.48 0 0 0 64.73,5.48 H 49.4 a 0.87,0.87 0 0 0 -0.94,0.94 v 41 a 0.86,0.86 0 0 0 0.95,0.93 h 4.34 a 0.86,0.86 0 0 0 0.95,-0.93 v -17 h 9.13 l 8.34,17.09 a 1.16,1.16 0 0 0 1.11,0.82 h 5 a 0.76,0.76 0 0 0 0.71,-0.38 0.78,0.78 0 0 0 -0.06,-0.83 z m -15.38,-5 H 54.68 V 11.35 h 9.92 a 8.08,8.08 0 0 1 5.56,1.75 6.31,6.31 0 0 1 1.94,5 6.33,6.33 0 0 1 -1.94,5 8.13,8.13 0 0 1 -5.56,1.75 H 54.73 Z M 34.36,27.31 C 37.45,24.7 39.09,21.39 39.16,16.64 39.25,10.72 35.31,4.81 28.37,2.36 A 45.35,45.35 0 0 0 15.91,0.09 66.23,66.23 0 0 0 4.84,0.44 17.39,17.39 0 0 0 1.77,1 C 1.51,1.1 1.36,1.24 1.42,1.3 a 1,1 0 0 0 0.51,0.07 c 0.28,0 1.49,-0.11 3.58,-0.1 a 58.09,58.09 0 0 1 9.29,0.85 c 8.53,1.42 13.72,5.23 13.29,11.54 -0.33,5 -8.91,7.3 -16.73,10.4 -7,2.79 -10.19,6.23 -11.08,9.8 -1,4 0.85,8.18 3.16,11.81 a 28.36,28.36 0 0 0 1.63,2.37 0.69,0.69 0 0 0 0.51,0.36 0.8,0.8 0 0 0 0,-0.43 14.94,14.94 0 0 1 -0.43,-2.63 c 0,-2.5 1.3,-4.63 4.6,-6.73 a 57.5,57.5 0 0 1 12,-5.2 c 5.47,-1.84 9.67,-3.66 12.59,-6.11 z m 4.44,20.54 a 19.16,19.16 0 0 1 -4.87,-2.58 c -1.88,-1.38 -3.62,-3.22 -3.87,-5.32 -0.44,-3.69 0.56,-5.43 0.83,-5.9 a 0.61,0.61 0 0 0 0.12,-0.44 0.61,0.61 0 0 0 -0.46,0 19,19 0 0 0 -6.72,3.54 5.71,5.71 0 0 0 -2.19,5.25 6.67,6.67 0 0 0 3.87,4.6 17.82,17.82 0 0 0 6.91,1.53 44.85,44.85 0 0 0 6.14,-0.1 2.17,2.17 0 0 0 1,-0.26 2.59,2.59 0 0 0 -0.77,-0.34 z"
       fill="#ee2437"
       id="path2" />
  </g>
</svg>
