<?xml version="1.0" encoding="UTF-8" standalone="no"?>
<svg
   xmlns:dc="http://purl.org/dc/elements/1.1/"
   xmlns:cc="http://creativecommons.org/ns#"
   xmlns:rdf="http://www.w3.org/1999/02/22-rdf-syntax-ns#"
   xmlns:svg="http://www.w3.org/2000/svg"
   xmlns="http://www.w3.org/2000/svg"
   xmlns:sodipodi="http://sodipodi.sourceforge.net/DTD/sodipodi-0.dtd"
   xmlns:inkscape="http://www.inkscape.org/namespaces/inkscape"
   width="310.29092"
   height="310.00299"
   viewBox="0 0 310.29092 310.003"
   version="1.1"
   id="svg24"
   sodipodi:docname="30-kfc.svg"
   inkscape:version="1.0.2 (e86c870879, 2021-01-15, custom)">
  <metadata
     id="metadata28">
    <rdf:RDF>
      <cc:Work
         rdf:about="">
        <dc:format>image/svg+xml</dc:format>
        <dc:type
           rdf:resource="http://purl.org/dc/dcmitype/StillImage" />
        <dc:title></dc:title>
      </cc:Work>
    </rdf:RDF>
  </metadata>
  <sodipodi:namedview
     pagecolor="#ffffff"
     bordercolor="#666666"
     borderopacity="1"
     objecttolerance="10"
     gridtolerance="10"
     guidetolerance="10"
     inkscape:pageopacity="0"
     inkscape:pageshadow="2"
     inkscape:window-width="952"
     inkscape:window-height="1011"
     id="namedview26"
     showgrid="false"
     inkscape:zoom="2.3042218"
     inkscape:cx="155.14396"
     inkscape:cy="155.00821"
     inkscape:window-x="0"
     inkscape:window-y="36"
     inkscape:window-maximized="0"
     inkscape:current-layer="svg24" />
  <defs
     id="defs2" />
  <g
     id="g40"
     transform="rotate(-90,155.00259,155.00041)">
    <g
       fill-rule="evenodd"
       id="g22">
      <path
         fill="#e4042c"
         d="m 15.56,12.26 a 5.15,5.15 0 0 0 -3.47,4.84 c 0,1.04 15.71,199.91 15.86,200.62 l 0.09,0.45 H 79.45 V 11.87 l -31.4,0.01 c -29.98,0 -31.46,0.02 -32.49,0.38 M 230.7,115.02 v 103.15 h 51.36 l 0.11,-0.86 c 0.65,-5.08 15.9,-200.82 15.7,-201.52 a 5.38,5.38 0 0 0 -3.86,-3.7 C 293.3,11.94 283.59,11.87 261.84,11.87 H 230.7 Z"
         id="path4" />
      <path
         fill="#050505"
         d="M 12.34,0.2 C 5.44,1.2 0,7.46 0,14.4 0,17.23 22.37,298 22.7,299.31 c 1.45,5.72 6.6,10.12 12.65,10.81 1.28,0.15 38.87,0.2 121.03,0.15 l 119.18,-0.05 1.51,-0.47 c 5.16,-1.6 9.04,-5.51 10.27,-10.37 C 288.01,296.78 310.3,14.74 310,12.68 309.13,6.72 305.1,2.16 299.16,0.42 297.8,0.03 15.09,-0.19 12.34,0.21 m 286.11,4.07 c 4.38,1.47 7.37,5.07 7.78,9.36 0.17,1.7 -22.19,283.11 -22.6,284.69 a 11.1,11.1 0 0 1 -7.66,7.7 c -1.62,0.49 -239.5,0.58 -241.49,0.09 -3.67,-0.91 -6.8,-3.8 -7.87,-7.26 C 26.22,297.6 3.83,18.03 3.83,14.42 3.83,9.6 7.53,5.19 12.5,4.12 14.83,3.62 296.95,3.78 298.45,4.28 M 149.53,14.43 c -6.5,0.68 -15.36,3.11 -22.27,6.1 -3.88,1.68 -4.65,2.27 -4.65,3.58 0,1.7 -3.2,5.46 -5.65,6.65 -2.43,1.18 -3.75,1.5 -8.23,2.02 -0.48,0.05 -0.92,0.22 -0.97,0.37 -0.36,0.92 3.3,5.22 5.12,6.03 1.71,0.77 0.6,1.15 -3.88,1.32 -4.52,0.17 -5.83,0.8 -6.99,3.34 -0.55,1.22 -0.48,1.55 0.83,3.54 2.97,4.52 2.9,7.12 -0.29,9.66 -4,3.18 -4.03,3.72 -1.03,15.94 1.16,4.71 2.24,8.94 2.4,9.4 0.32,0.87 0.17,1.28 -0.43,1.28 -0.6,0 -1.82,0.89 -2.22,1.6 -1.66,2.98 -1.18,7.6 1.85,17.66 2.15,7.13 2.4,8.09 3.06,11.3 1.64,8.04 3.6,10.88 7.49,10.82 1.55,-0.03 1.6,0.04 1.77,2.28 a 33.5,33.5 0 0 0 2.92,11.5 c 0.53,1.13 0.82,2.15 1,3.43 0.78,5.69 4.3,12.04 9.63,17.34 2.27,2.25 4.06,3.7 9.8,7.95 a 61,61 0 0 1 4.18,3.24 c 0,0.08 -2.06,0.2 -4.58,0.26 -4.47,0.11 -6.4,0.36 -6.95,0.91 -0.62,0.62 -0.84,10.62 -0.26,11.74 0.68,1.32 2.84,1.44 16.48,0.88 3.51,-0.15 3.32,-0.42 1.97,2.84 -0.55,1.33 -1.94,4.83 -3.1,7.77 a 200.6,200.6 0 0 1 -7.63,17.32 c -2.49,4.91 -2.56,4.38 0.7,5.05 0.63,0.13 2.06,0.69 3.18,1.24 2.9,1.41 2.8,1.44 4.11,-1.28 2.32,-4.82 6.5,-15.39 7.54,-19.05 0.29,-1.03 0.6,-1.87 0.68,-1.87 0.21,0 0.19,18.58 -0.03,22.49 -0.23,4.15 -0.12,4.28 3.06,3.52 1.16,-0.28 2.6,-0.46 3.79,-0.47 2.27,-0.03 2.27,-0.03 2.6,-2.75 0.94,-7.4 -0.73,-24.93 -3.11,-32.8 -0.65,-2.15 -0.65,-2.21 0.26,-2.36 1.46,-0.24 7.66,-0.13 11.45,0.2 4.25,0.37 4.8,0.32 5.2,-0.49 0.48,-0.94 0.62,-10.66 0.18,-11.56 -0.68,-1.35 -3.68,-1.96 -8.46,-1.72 -2.89,0.14 -2.92,0.11 -1,-1.07 6.31,-3.88 15.91,-12.45 18.56,-16.56 4.07,-6.3 7.59,-17.8 7.6,-24.8 0,-3.03 0.06,-3.13 2.15,-3.26 4.04,-0.24 5.28,-2.31 8.63,-14.34 3.5,-12.63 4.4,-16.78 4.42,-20.5 0.02,-3.7 -0.33,-4.4 -3.16,-6.13 -0.67,-0.4 -0.73,-0.07 1,-5.53 1.81,-5.77 2.27,-7.57 2.42,-9.46 l 0.12,-1.65 -1,-0.97 c -1.78,-1.71 -2.02,-2.25 -2.38,-5.2 -2.99,-24.47 -19.7,-42.37 -43.26,-46.31 -2.44,-0.41 -12.15,-0.7 -14.62,-0.44 m 9,4.71 c 9.57,0.97 18.64,4.65 27.38,11.14 8.65,6.41 13.38,14.97 15.18,27.47 0.74,5.1 0.25,16.66 -0.75,17.81 -0.7,0.81 -0.92,0.45 -2.09,-3.6 -2.22,-7.69 -3.99,-12.15 -6.4,-16.15 -1.5,-2.5 -1.72,-2 -1.76,3.8 l -0.02,4.84 0.6,0.84 c 2.58,3.6 3.22,4.95 4.26,9.09 0.87,3.43 1.11,6.18 0.57,6.4 -0.2,0.07 -1.65,-0.06 -3.2,-0.3 -3.44,-0.54 -8.07,-0.65 -17.36,-0.42 -8.68,0.2 -10.26,0.61 -14.42,3.7 -2.31,1.72 -2.54,1.81 -3.82,1.54 a 10.06,10.06 0 0 0 -4.47,0.08 c -1.47,0.38 -1.9,0.23 -3.91,-1.4 -4.43,-3.58 -5.74,-3.83 -19.74,-3.84 h -11.47 l 0.1,-1.62 c 0.18,-2.81 1.05,-4.12 3.52,-5.26 1.8,-0.83 1.66,-0.52 2.76,-5.99 2.18,-10.8 5.42,-16.69 11.35,-20.62 4.38,-2.91 12.57,-2.66 18.97,0.59 1.46,0.74 1.56,0.71 3.53,-1 2.36,-2.03 2.36,-2.02 -0.3,-4.62 -9.26,-9.06 -19.86,-11.04 -32.55,-6.08 -1.53,0.6 -2.82,1.01 -2.85,0.93 -0.58,-1.51 7.48,-7.11 12.92,-8.98 3.65,-1.25 3.34,-2.5 -0.62,-2.5 -1.52,0 -1.79,-0.34 -0.96,-1.2 2.7,-2.82 17.32,-5.48 25.55,-4.65 m -23.65,21.28 c 0.93,0.4 0.77,0.6 -1.05,1.4 -5.59,2.42 -8.86,5.54 -12.08,11.5 a 9.3,9.3 0 0 1 -2.46,3.2 c -2.87,2.51 -3.21,3.01 -4.3,6.37 a 55.41,55.41 0 0 0 -2.64,14.6 c -0.2,3.25 -0.38,3.68 -1.83,4.41 -1.4,0.7 -1.24,0.96 -2.52,-4 -3.58,-13.84 -3.58,-13.83 1.49,-21.13 1.25,-1.8 1.03,-4.2 -0.73,-7.95 -1.05,-2.25 -1.17,-2.14 2.96,-2.66 a 44.12,44.12 0 0 0 12.43,-3.75 c 4.33,-2.08 8.6,-2.88 10.73,-1.99 M 118.6,82.8 c 1.1,1 -0.12,2.32 -1.66,1.78 a 5.1,5.1 0 0 0 -1.42,-0.3 c -0.82,0 -1.15,-0.67 -0.54,-1.1 0.25,-0.17 0.72,-0.31 1.06,-0.32 0.33,0 0.74,-0.09 0.91,-0.2 0.46,-0.3 1.24,-0.23 1.65,0.14 m 75.12,0.05 c 1.46,0.26 1.93,1.43 0.58,1.43 -0.26,0 -0.85,0.14 -1.32,0.3 -1.12,0.4 -1.34,0.38 -1.82,-0.1 -0.88,-0.88 -0.22,-2.15 1,-1.92 0.4,0.08 1.1,0.2 1.56,0.3 m -66.12,2.58 c 0.05,0.35 -0.14,0.57 -0.86,1 a 136,136 0 0 0 -3.16,2.02 c -2.38,1.56 -2.95,1.72 -3.63,1.04 -0.72,-0.72 0.04,-2.6 1.48,-3.67 1.29,-0.96 6.05,-1.26 6.17,-0.4 m 57.6,-0.33 c 2.42,0.61 2.9,4.42 0.56,4.42 -1.48,0 -6.16,-3.45 -5.83,-4.3 0.15,-0.4 3.79,-0.49 5.27,-0.12 m -46.8,0.78 c 1.03,0.5 2.08,1.8 1.87,2.33 -0.1,0.25 -0.45,0.28 -2.19,0.19 -2.5,-0.14 -4.04,0.2 -7.12,1.58 -2.41,1.08 -3.7,1.4 -4.37,1.07 -1.08,-0.53 -0.62,-1.1 2.16,-2.68 l 2.5,-1.43 c 2.74,-1.58 5.29,-1.96 7.15,-1.06 m 38.6,0.6 c 0.46,0.23 1.54,1.06 2.4,1.84 a 31.9,31.9 0 0 0 2.93,2.33 c 1.58,1.06 1.67,1.16 1.27,1.5 -0.73,0.6 -3,-0.25 -5.22,-1.96 -2.1,-1.6 -3.53,-1.91 -6.57,-1.39 -2.99,0.52 -3.25,-0.45 -0.51,-1.85 2.25,-1.15 4.07,-1.3 5.7,-0.47 m 19.84,0.47 c 0.47,0.88 0.54,2.12 0.35,6.39 -0.25,5.53 0.01,5.88 2.56,3.34 1.07,-1.08 1.21,-1.59 0.95,-3.42 -0.42,-2.95 0.93,-5.45 2.7,-4.98 2.9,0.76 2.92,3.11 0.12,13.14 -0.6,2.16 -1.4,5.21 -1.78,6.78 -2.17,9 -3.67,11.4 -6.45,10.25 -1.22,-0.51 -1.54,-0.3 -2.87,1.87 -1.5,2.46 -1.6,2.8 -1.74,6 -0.68,15.55 -8.3,28.43 -19.38,32.76 -2.88,1.13 -3.64,1.12 -4.92,-0.09 -0.88,-0.82 -1.6,-1.15 -1.66,-0.75 -0.01,0.08 -0.04,1.15 -0.06,2.38 -0.04,2.63 -0.22,3.08 -2.33,5.73 -1.95,2.45 -2.45,3.57 -2.93,6.5 -0.58,3.64 -9.2,-4.93 -11.61,-11.54 -0.7,-1.9 -0.65,-4.66 0.11,-7.16 1.43,-4.65 1.71,-6.9 1.26,-9.91 -0.12,-0.84 -0.1,-1.1 0.18,-1.37 0.56,-0.57 1.04,-0.11 2.56,2.43 0.98,1.64 1.6,0.12 1.25,-3.08 -0.18,-1.67 -0.9,-2.5 -2.61,-3 -3.57,-1.03 -1.1,-3.1 3.52,-2.92 7.69,0.29 9.35,0.14 13.67,-1.23 3.07,-0.97 3.32,-0.97 4.81,0 1.52,0.98 1.62,1.27 1.75,4.66 0.22,5.85 2.33,5.53 3.56,-0.53 0.6,-2.95 0.97,-3.88 1.92,-4.9 2.36,-2.55 3.39,-6.27 3.03,-11 -0.21,-2.87 -0.7,-3.64 -3,-4.74 -1.47,-0.69 -3.3,-2.53 -5.08,-5.08 -2.82,-4.04 -4.12,-5.27 -6.72,-6.34 -2.38,-0.98 -3.09,-0.53 -2.54,1.58 0.76,2.94 0.43,3.6 -2.6,5.07 -4.55,2.22 -8.38,2.08 -12.03,-0.45 -3.61,-2.5 -4.08,-5.63 -1.63,-10.81 1.11,-2.34 1.29,-2.98 1.73,-6.25 0.8,-5.93 1.39,-7.16 3.42,-7.16 1.74,0 2.5,0.7 3.03,2.82 1.05,4.1 2.72,5.74 4.52,4.43 1.24,-0.9 1.36,-1.3 0.75,-2.6 -0.82,-1.76 -0.38,-2.04 1.61,-1.02 2.6,1.34 7.26,1.87 10.55,1.22 3.57,-0.72 5.03,-0.43 5.85,1.16 0.54,1.07 0.75,1.2 2.34,1.45 2.52,0.4 2.74,0.62 2.2,2.26 -0.67,2.02 -2.76,3.47 -6.03,4.18 -2.1,0.46 -2.13,0.48 -2.13,1.4 0,1.72 1.54,2.1 4.96,1.23 4.69,-1.2 6.7,-4.2 8.34,-12.5 1.05,-5.26 1.1,-5.34 3.44,-6.12 1.96,-0.66 2.73,-0.68 3.06,-0.08 m -87.21,1.96 c 1.29,0.78 1.8,2.5 1.21,4.1 -0.67,1.84 -0.63,2.35 0.86,10.53 1.21,6.6 0.93,8.3 -1.1,6.53 -0.88,-0.78 -1.22,-1.4 -1.6,-2.94 -0.15,-0.65 -0.98,-3.67 -1.82,-6.72 -1.74,-6.23 -1.98,-7.88 -1.45,-9.72 0.59,-2 2.27,-2.77 3.9,-1.78 m 26.7,4.64 c 2.67,0.47 3.68,0.5 5.97,0.17 2.18,-0.32 2.45,-0.12 1.4,1.04 -0.88,0.97 -0.88,0.95 -0.2,2.23 1.51,2.9 -1.94,5.65 -7.77,6.15 -1.8,0.16 -2.04,0.33 -2.04,1.5 0,1.17 0.55,1.44 2.88,1.42 2.65,-0.03 2.56,-0.04 2.56,0.23 0,0.13 -0.26,0.65 -0.6,1.16 a 8.88,8.88 0 0 0 -0.9,2.13 c -0.4,1.53 -0.5,1.62 -2.8,2.53 -1.06,0.41 -2.5,1.16 -3.2,1.66 -5.88,4.19 -8.72,2.93 -11.35,-5.03 -1.84,-5.54 -1.43,-6.41 2.2,-4.67 2.42,1.16 3.39,1.25 3.94,0.35 0.85,-1.4 0.63,-1.9 -1.27,-2.8 -3.33,-1.58 -5.53,-5.08 -3.87,-6.17 0.55,-0.35 0.97,-0.22 2,0.65 1.9,1.61 2.67,1.64 4.03,0.15 2.64,-2.88 4.6,-3.47 9.03,-2.7 m 8.06,12.89 c 0.41,0.33 0.44,0.44 0.22,0.91 a 5.5,5.5 0 0 0 -0.17,3.55 c 0.84,2.39 -0.25,3.41 -1.97,1.84 -2.62,-2.4 -0.78,-8.48 1.92,-6.3 m 22.97,10.15 a 18.8,18.8 0 0 1 2.31,2.47 c 1.72,2.11 3.91,3.97 5.15,4.36 5.66,1.8 -4.59,4.4 -12.23,3.1 -1.1,-0.19 -3.13,-0.7 -4.51,-1.14 -2.94,-0.94 -3.95,-0.95 -6.16,-0.07 -4.96,1.98 -13.71,2.2 -17.22,0.42 -2.13,-1.08 -2.08,-1.66 0.2,-2.63 0.83,-0.35 2.7,-1.42 4.17,-2.4 4.46,-2.93 6.5,-3.42 8.52,-2.01 4.59,3.17 9.9,3.46 12.6,0.7 a 5.75,5.75 0 0 1 2.12,-1.45 c 0.61,-0.23 1.52,-0.66 2.02,-0.96 1.6,-0.95 2.1,-1.02 3.03,-0.39 m -39.95,6.7 c 0.4,0.42 0.49,0.8 0.64,2.87 0.63,8.52 3.45,17.7 5.42,17.7 0.4,0 0.6,-0.25 1.23,-1.68 1.43,-3.23 2.05,-3.46 2.68,-1.03 0.7,2.66 2.17,7.44 2.76,8.95 0.91,2.38 0.57,2.95 -1.76,2.94 -8.4,-0.03 -20.52,-19.4 -16.82,-26.9 1.35,-2.75 4.5,-4.29 5.85,-2.85 m 35.08,6.56 c 2.97,0.28 2.84,0.8 -0.39,1.59 -3.09,0.75 -10.27,1.27 -11.79,0.86 -1.58,-0.43 -3.37,-1.94 -2.67,-2.27 1.07,-0.5 10.44,-0.61 14.85,-0.18 m 63.14,103.67 c -22.5,1.57 -36.19,14.04 -36.17,32.96 0.01,18.94 19.13,28.64 45.88,23.28 5.58,-1.11 5.23,-0.78 6.22,-5.96 1.02,-5.38 0.97,-5.44 -3.46,-4.33 -19.74,5 -32.53,-4.6 -28.3,-21.24 2.22,-8.77 8.3,-14.6 16.32,-15.66 6.41,-0.85 10.64,1.85 10.96,7.01 0.14,2.26 0.17,2.28 3.6,2.28 3.42,0 3,0.66 4.82,-7.53 2.04,-9.15 2.14,-8.6 -1.78,-9.5 a 59.61,59.61 0 0 0 -18.09,-1.3 m -150.5,1.24 c -0.33,0.51 -1.14,3.92 -1.14,4.77 0,0.66 0.27,0.92 1.68,1.63 a 3.88,3.88 0 0 1 2.31,3.48 c 0.08,1.22 -5.65,28.43 -6.83,32.45 -1.06,3.61 -2.82,5.91 -5,6.53 -2.09,0.6 -2.1,0.6 -2.6,2.61 -1.15,4.56 -2.63,4.13 14.16,4.13 16.19,0 14.48,0.3 15.15,-2.63 0.76,-3.35 0.67,-3.8 -0.86,-4.41 -0.9,-0.36 -2,-1.48 -2.28,-2.32 -0.2,-0.6 2.07,-12.24 2.95,-15.1 0.16,-0.53 0.15,-0.54 2.9,4.4 7.83,14.03 11.53,17.98 18.36,19.57 2.06,0.48 17.6,0.68 18.2,0.24 0.38,-0.28 1.33,-3.7 1.34,-4.8 0.01,-0.84 -0.65,-1.26 -2.24,-1.43 -3.28,-0.35 -3.73,-0.82 -13.45,-13.97 -7.42,-10.04 -7.71,-10.47 -7.36,-10.8 2.09,-1.98 19.9,-16.47 20.8,-16.92 a 16.84,16.84 0 0 1 4.94,-1.54 c 1.64,-0.2 1.89,-0.48 2.36,-2.62 0.9,-4.11 2.19,-3.73 -12.5,-3.73 -13.31,0 -12.75,-0.05 -13.01,1.07 -1,4.21 -0.97,4.68 0.4,5.45 2.13,1.2 2.13,1.18 -7.8,9.45 -11.1,9.23 -11.45,9.51 -11.53,9.42 -0.13,-0.15 3.3,-15.4 3.62,-16.14 a 5.84,5.84 0 0 1 2.91,-2.66 c 1.45,-0.64 1.48,-0.7 1.99,-3.01 0.86,-3.98 2.4,-3.58 -13.75,-3.58 H 75.43 Z m 68.15,0 a 20.6,20.6 0 0 0 -1.13,4.77 c 0,0.66 0.15,0.8 1.62,1.58 0.68,0.35 1.32,0.89 1.69,1.42 1.15,1.63 1.27,0.88 -4,24.75 -5.21,23.64 -4.92,22.11 -4.35,22.68 0.59,0.59 22.47,0.64 23.15,0.05 0.48,-0.4 1.56,-5.02 1.35,-5.7 -0.07,-0.23 -0.48,-0.58 -0.9,-0.8 -3.38,-1.72 -3.43,-2.74 -0.71,-14.27 l 0.1,-0.46 h 9.34 c 7.15,0 9.41,-0.05 9.67,-0.25 0.33,-0.24 2.16,-7.76 2.16,-8.88 0,-1.16 0.08,-1.15 -9.75,-1.15 -8.44,0 -9,-0.02 -9,-0.35 0,-0.2 0.71,-3.58 1.58,-7.51 l 1.57,-7.16 6.44,-0.06 c 9.7,-0.08 10.77,0.43 10.77,5.13 0,2.18 0.27,2.34 3.77,2.25 2.17,-0.05 2.74,-0.13 3,-0.4 0.33,-0.32 3.52,-13.95 3.52,-15 0,-1.17 1.53,-1.1 -25.17,-1.1 h -24.43 z m 150.72,55.4 c 0,0.6 0,0.6 1.1,0.6 h 1.11 v 7.47 h 1.41 v -7.46 h 1.11 c 1.1,0 1.11,-0.01 1.11,-0.61 v -0.6 h -5.84 z m 7.86,3.73 v 4.34 h 1.2 l 0.02,-3.08 v -3.07 l 0.83,1.76 c 1.06,2.24 1.25,2.25 2.33,0.1 l 0.84,-1.66 0.01,2.97 0.01,2.98 h 1.21 v -8.67 h -0.62 c -0.58,0 -0.66,0.1 -1.58,2.06 l -0.97,2.07 -1.04,-2.07 c -0.96,-1.93 -1.07,-2.06 -1.64,-2.06 h -0.6 z"
         id="path6" />
      <path
         fill="#fbfbfb"
         d="M 12.9,4.15 A 10.5,10.5 0 0 0 4.04,14.63 c 0,1.9 22.04,280.58 22.36,282.69 a 10.87,10.87 0 0 0 8.57,8.75 c 2.08,0.38 238.58,0.3 240.4,-0.08 a 10.6,10.6 0 0 0 7.97,-7.13 c 0.39,-1.27 22.77,-280.85 22.77,-284.47 0,-4.3 -2.83,-8.17 -7.21,-9.84 L 297.75,4.11 155.58,4.09 C 77.38,4.07 13.18,4.1 12.91,4.15 m 66.54,110.87 v 103.15 h -25.8 c -14.2,0 -25.82,-0.07 -25.82,-0.15 L 19.85,117.29 C 12.17,20.51 11.88,16.67 12.18,15.65 a 5.54,5.54 0 0 1 2.83,-3.3 l 1.02,-0.47 H 79.45 Z M 295.55,12.6 a 5.81,5.81 0 0 1 2.46,3.43 c 0.15,0.73 -1.46,21.78 -7.74,100.88 a 54167.4,54167.4 0 0 0 -7.95,100.61 v 0.66 H 230.49 V 11.87 l 32.03,0.05 32.03,0.06 z m -131.7,2.1 a 55.63,55.63 0 0 1 15.28,4.78 c 16,8.14 26.14,23.08 28.46,41.97 0.34,2.77 0.76,3.63 2.32,4.87 1.53,1.21 1.3,3.2 -1.4,11.67 -1.85,5.86 -1.81,5.6 -0.97,6.05 4.48,2.4 4.23,6.5 -1.72,27.66 -3.09,10.98 -4.47,13.16 -8.56,13.46 -1.9,0.14 -1.85,0.07 -1.85,2.72 -0.01,7.52 -4.12,20.43 -8.3,26.11 -2.76,3.75 -10.73,10.9 -16.2,14.53 -1.45,0.96 -2.7,1.8 -2.8,1.88 -0.08,0.07 1.33,0.13 3.13,0.13 7.74,0 7.85,0.11 7.65,8.12 -0.17,6.8 0.12,6.47 -5.3,5.98 -5.48,-0.49 -7.82,-0.58 -10.3,-0.43 l -2.32,0.15 0.17,0.63 c 2.82,10.94 4.2,22.7 3.72,31.93 -0.26,5.12 -0.4,5.35 -3.17,5.4 -1.38,0.02 -2.67,0.19 -3.83,0.48 -1.66,0.43 -1.8,0.43 -2.4,0.12 l -0.64,-0.33 0.13,-3.86 c 0.26,-8.25 0.37,-17.53 0.23,-19.61 l -0.15,-2.19 -0.67,2.21 c -1.55,5.1 -7.1,18.65 -8.29,20.2 -0.66,0.88 -0.87,0.85 -3.53,-0.45 a 16.36,16.36 0 0 0 -3.5,-1.31 c -1.9,-0.33 -2.06,-0.38 -2.19,-0.7 -0.06,-0.17 1.08,-2.73 2.58,-5.8 3,-6.1 4.96,-10.63 7.94,-18.3 1.1,-2.83 2.24,-5.7 2.54,-6.4 0.67,-1.59 0.68,-1.95 0.06,-1.8 -0.26,0.07 -4.2,0.22 -8.77,0.34 -11.33,0.3 -10.62,0.79 -10.5,-7.16 0.1,-6.84 -0.23,-6.53 7.2,-6.76 2.58,-0.08 4.73,-0.2 4.78,-0.25 a 51.9,51.9 0 0 0 -4.09,-3.19 c -12.8,-9.47 -18.13,-16.43 -19.4,-25.37 -0.16,-1.1 -0.5,-2.3 -1.01,-3.43 a 32.98,32.98 0 0 1 -2.82,-10.79 c -0.27,-2.92 -0.17,-2.74 -1.7,-2.74 -4,0 -5.93,-2.79 -7.6,-10.94 -0.7,-3.38 -1.26,-5.46 -3.02,-11.2 -2.8,-9.12 -3.46,-13.91 -2.33,-16.98 0.52,-1.41 1.88,-2.63 2.93,-2.63 0.51,0 0.53,0.16 -0.17,-2.17 -0.32,-1.08 -1,-3.78 -1.53,-6 -0.52,-2.21 -1.3,-5.39 -1.74,-7.05 -1.77,-6.75 -1.44,-8.21 2.68,-11.65 a 6.42,6.42 0 0 0 1.69,-2.06 l 0.54,-1.12 -0.34,-1.36 a 15.75,15.75 0 0 0 -2.36,-5.14 c -1.2,-1.83 -1.17,-2.47 0.2,-4.3 1.36,-1.79 2.5,-2.2 6.27,-2.22 2.2,-0.02 3.37,-0.11 3.93,-0.32 l 0.78,-0.3 -0.98,-0.57 a 17.11,17.11 0 0 1 -4.62,-4.79 c -0.8,-1.52 -0.66,-1.64 2.22,-1.94 6.43,-0.67 11,-3.75 12.22,-8.26 0.5,-1.8 0.95,-2.17 5.02,-3.9 12.48,-5.34 25.64,-7.37 36.4,-5.63 m -12.3,4.58 c -10.15,1.04 -16.41,2.6 -18.53,4.6 -0.8,0.75 -0.5,0.96 1.44,1.02 3.67,0.12 3.74,1.52 0.15,2.72 -4.32,1.44 -10.67,5.46 -12.36,7.83 -0.86,1.21 -0.96,1.22 2.6,-0.15 11.74,-4.53 21.99,-2.93 30.73,4.79 4.25,3.75 4.35,4.11 1.86,6.24 -2.09,1.8 -2.18,1.8 -4.55,0.68 -5,-2.37 -12.48,-2.94 -16.15,-1.23 -6.8,3.18 -10.78,9.76 -13.15,21.75 -1.05,5.29 -0.9,4.95 -2.65,5.77 -2.66,1.23 -3.73,3.02 -3.77,6.35 0,0.27 1.35,0.3 11.03,0.3 14.4,0 15.52,0.23 20.46,4.18 1.73,1.37 2.3,1.52 3.9,1.06 1.16,-0.34 1.95,-0.34 4.73,0.03 0.89,0.11 0.97,0.08 3.03,-1.44 4.9,-3.61 6.52,-3.92 20.6,-3.93 7.68,0 8.83,0.05 10.88,0.4 1.26,0.22 2.63,0.4 3.05,0.4 h 0.76 v -1.19 c 0,-3.88 -2.08,-10.18 -4.34,-13.12 -1.42,-1.86 -1.37,-1.61 -1.33,-6.83 0.04,-5.04 0.05,-5.07 0.62,-5.07 1.54,0 4.93,7.57 7.77,17.32 1.72,5.9 2.44,5.42 2.95,-1.99 0.78,-11.37 -1.7,-22.68 -6.63,-30.15 C 186.43,27.14 166.5,17.73 151.55,19.27 M 130.77,40.4 c -2.37,0.38 -3.74,0.83 -6.6,2.16 -4.58,2.13 -11.4,4 -14.56,4 -1.55,0 -1.63,0.25 -0.72,2.22 2.16,4.68 2.13,6.18 -0.19,9.37 -3.36,4.65 -3.69,6.24 -2.44,11.9 1.1,5.06 2.94,12.2 3.13,12.2 1.74,0 2.57,-1.36 2.77,-4.5 a 60.85,60.85 0 0 1 2.87,-15.42 c 0.92,-2.73 1.17,-3.1 3.6,-5.35 1.84,-1.7 2.18,-2.14 3.17,-4 2.87,-5.38 6.75,-9.08 11.69,-11.15 1.95,-0.83 2.1,-1.04 1,-1.44 -0.86,-0.32 -1.67,-0.31 -3.72,0.01 M 117,82.76 c -0.38,0.17 -0.92,0.3 -1.21,0.3 -1.23,0 -1.38,0.87 -0.2,1.1 0.37,0.07 1.05,0.22 1.5,0.34 1.1,0.28 1.7,-0.01 1.7,-0.83 0,-1.09 -0.63,-1.4 -1.8,-0.9 m 74.23,0.13 c -0.7,0.7 -0.05,1.9 0.92,1.7 l 1.47,-0.28 c 1.49,-0.28 1.97,-0.94 0.85,-1.16 l -1.42,-0.3 c -1.12,-0.27 -1.53,-0.26 -1.82,0.04 m -66.59,2.2 c -2.74,0.3 -4.44,1.44 -4.76,3.17 -0.37,1.95 0.88,1.91 3.94,-0.1 a 75.52,75.52 0 0 1 3.02,-1.93 c 0.98,-0.53 0.75,-1.42 -0.35,-1.34 l -1.85,0.2 m 55.55,0.03 c -0.31,0.82 3.36,3.83 5.2,4.26 2.03,0.48 2.43,-3.06 0.45,-3.93 -1.25,-0.56 -5.47,-0.8 -5.65,-0.33 m -46.07,0.74 c -2.13,0.7 -7.27,3.55 -7.73,4.29 -0.79,1.24 1.22,1.17 4.15,-0.15 3.6,-1.62 6.2,-2.16 8.32,-1.74 1.3,0.27 1.54,0.05 1,-0.93 -0.86,-1.62 -3.35,-2.26 -5.74,-1.47 m 38.52,0.62 c -2.9,1.04 -4.05,2.71 -1.54,2.25 3.36,-0.62 5.36,-0.25 7.4,1.38 2.03,1.59 4.27,2.44 4.97,1.88 0.24,-0.2 0.28,-0.33 0.13,-0.4 -0.63,-0.26 -2.18,-1.43 -4,-3.02 -2.98,-2.58 -4.39,-3 -6.96,-2.09 m 22,0.43 c -2.95,0.77 -3.08,0.97 -4.06,5.92 -1.95,9.86 -5.04,13.41 -11.7,13.41 -2.9,0 -2.82,-2.75 0.11,-3.33 3.04,-0.6 5.05,-1.85 5.87,-3.62 0.89,-1.9 0.68,-2.21 -1.65,-2.55 -1.81,-0.26 -1.98,-0.36 -2.53,-1.43 -0.78,-1.54 -2.65,-1.97 -5.52,-1.27 -2.95,0.7 -8.3,0.1 -10.95,-1.24 -1.9,-0.95 -2.19,-0.77 -1.39,0.86 0.75,1.52 -0.1,2.95 -2.03,3.44 -1.06,0.26 -2.63,-2.03 -3.48,-5.08 -0.61,-2.21 -1.19,-2.75 -2.93,-2.75 -2.03,0 -2.26,0.54 -3.51,8.4 -0.37,2.3 -0.55,2.9 -1.51,4.94 -2.16,4.58 -2.06,7.15 0.37,9.59 3.15,3.15 7.96,3.84 12.4,1.79 3.58,-1.66 3.93,-2.14 3.36,-4.6 -0.66,-2.84 -0.28,-3.32 2,-2.58 2.64,0.87 4.55,2.54 7.1,6.22 2.06,2.96 3.7,4.57 5.68,5.61 2.36,1.24 2.54,1.63 2.62,5.63 0.1,5 -0.6,7.43 -2.78,9.8 -1.09,1.18 -1.58,2.36 -2.02,4.84 -0.57,3.15 -1.6,5.04 -2.75,5.04 -0.8,0 -1.28,-2.16 -1.29,-5.96 0,-3.13 -2.16,-4.1 -6.29,-2.8 -4.5,1.42 -7.02,1.7 -11.36,1.28 -3.82,-0.37 -4.28,-0.34 -5.83,0.39 -1.84,0.86 -1.95,1.8 -0.27,2.13 2.05,0.4 2.88,1.51 3.1,4.08 0.27,3.26 -0.69,3.96 -2.04,1.5 -1.5,-2.73 -2.3,-2.5 -1.9,0.56 0.3,2.45 0.13,3.81 -1.05,7.85 -1.39,4.73 -1.3,6.59 0.43,10.23 1.95,4.1 5.93,8.58 9.13,10.28 0.97,0.51 1.12,0.35 1.5,-1.61 0.4,-2.13 0.98,-3.34 2.56,-5.32 2.28,-2.86 2.4,-3.14 2.53,-5.93 0.14,-3.1 0.35,-3.31 1.77,-1.92 1.28,1.25 1.92,1.36 3.89,0.66 11.27,-4.03 18.77,-15.5 20.17,-30.87 0.59,-6.48 0.4,-5.68 1.81,-8.02 1.55,-2.57 1.83,-2.76 3.2,-2.17 2.63,1.13 4.08,-1.2 6.18,-9.95 a 171,171 0 0 1 1.7,-6.43 c 2.99,-10.54 2.88,-13.64 -0.46,-13.64 -1.3,0 -2.3,2.56 -1.93,4.98 l 0.25,1.67 -0.6,0.94 c -0.6,0.99 -2.27,2.3 -2.91,2.3 -0.69,0 -0.75,-0.58 -0.54,-5.15 0.28,-6.42 0.13,-6.8 -2.45,-6.12 m -88,2.3 c -1.2,1.2 -1.26,3.85 -0.17,7.96 3.2,11.95 3.28,12.2 4.62,13.11 1.56,1.07 1.62,-0.98 0.23,-8.28 -1,-5.25 -1.19,-7.62 -0.72,-8.74 1.27,-3 -1.83,-6.18 -3.95,-4.06 m 24.7,4.43 a 8.3,8.3 0 0 0 -3.73,2.52 c -1.57,1.73 -2.14,1.71 -4.6,-0.14 -1,-0.78 -1.46,-0.82 -1.9,-0.21 -0.97,1.39 1.08,4.23 4.06,5.62 2.06,0.96 2.4,1.84 1.25,3.3 -0.63,0.8 -1.6,0.63 -4.57,-0.84 -2.59,-1.28 -2.98,-0.56 -1.86,3.42 2.52,8.98 5.44,10.58 11.62,6.36 0.9,-0.61 2.4,-1.4 3.33,-1.77 2.14,-0.82 2.11,-0.8 2.6,-2.42 0.22,-0.74 0.67,-1.75 1,-2.23 0.77,-1.16 0.75,-1.17 -1.65,-1.07 -2.8,0.12 -3.08,-0.03 -3.08,-1.65 0,-1.4 -0.09,-1.36 2.96,-1.7 5,-0.54 8.12,-3.25 6.64,-5.76 -0.58,-1 -0.54,-1.57 0.2,-2.42 0.89,-1 0.62,-1.1 -1.89,-0.75 -2.07,0.3 -2.28,0.3 -4.83,-0.13 -3.01,-0.49 -4.3,-0.52 -5.54,-0.13 m 10.84,13.18 c -1.54,1.54 -1.12,4.81 0.79,6.14 1.27,0.89 2.04,0.22 1.55,-1.34 a 8.22,8.22 0 0 1 -0.1,-4.2 c 0.4,-1.3 -1.14,-1.71 -2.24,-0.6 m 23.38,9.66 a 9.3,9.3 0 0 0 -1,0.56 c -0.4,0.24 -1.3,0.66 -2.02,0.92 a 5.8,5.8 0 0 0 -2.46,1.65 c -2.6,2.63 -7.52,2.44 -12,-0.48 -2.72,-1.77 -4.14,-1.5 -8.98,1.72 a 39,39 0 0 1 -4.06,2.34 c -1.95,0.9 -2.08,1.14 -1.05,1.92 2.9,2.2 12.27,2.24 17.9,0.06 2.27,-0.87 3.41,-0.86 6.34,0.1 6.22,2.03 15.19,1.9 17.84,-0.25 0.51,-0.41 0.13,-1.23 -0.57,-1.23 -1.1,0 -3.91,-2.19 -5.73,-4.46 -2.21,-2.78 -3,-3.31 -4.21,-2.85 m -40.7,6.69 c -3.38,1.17 -4.63,4.9 -3.27,9.71 3.19,11.18 10.64,20.03 16.84,19.97 2.48,-0.02 2.51,-0.15 1.04,-4.38 -0.4,-1.12 -1.13,-3.52 -1.65,-5.34 a 33.77,33.77 0 0 0 -1.1,-3.48 c -0.3,-0.32 -1.15,0.85 -1.83,2.52 -1,2.4 -1.62,2.5 -2.89,0.52 -1.9,-3 -4.15,-12.48 -4.15,-17.49 0,-2.14 -0.9,-2.75 -2.99,-2.03 m 25.01,6.71 c -2.48,0.25 -2.69,0.6 -0.96,1.67 l 1,0.61 3.74,-0.03 c 5.46,-0.05 11.58,-1.07 10.83,-1.82 -0.45,-0.45 -11.25,-0.77 -14.61,-0.43 m 86.87,103.64 c 4.73,0.46 9.35,1.52 10.04,2.3 0.62,0.71 0.64,0.55 -1.08,8.36 -1.88,8.52 -1.45,7.87 -5.11,7.87 -3.4,0 -3.48,-0.05 -3.66,-2.6 -0.34,-4.8 -3.79,-7.2 -9.86,-6.82 -9.08,0.56 -16.14,7.87 -17.66,18.29 -2.2,15.03 10.37,23.12 28.65,18.42 4.6,-1.18 4.7,-1.05 3.63,4.62 -0.9,4.73 -0.77,4.56 -3.94,5.38 -9.4,2.45 -22.27,2.49 -30.25,0.08 -15.12,-4.55 -21.7,-17.6 -16.63,-33.06 5.37,-16.4 22.8,-25.08 45.87,-22.84 m -133.83,1.23 0.4,0.54 -0.47,2.26 c -0.54,2.56 -0.8,2.97 -2.25,3.5 a 5.72,5.72 0 0 0 -2.77,2.49 409.4,409.4 0 0 0 -3.55,15.92 c 0.07,0.08 19.51,-16.09 19.81,-16.47 0.62,-0.8 0.23,-1.64 -1.1,-2.32 -0.4,-0.2 -0.7,-0.54 -0.8,-0.88 -0.2,-0.85 0.65,-4.65 1.19,-5.22 l 0.43,-0.47 h 24.47 l 0.46,0.5 c 0.53,0.55 0.51,0.97 -0.1,3.7 -0.47,2.02 -0.65,2.2 -2.79,2.56 a 16.63,16.63 0 0 0 -5.47,1.95 c -0.67,0.43 -18.98,15.56 -19.84,16.4 -0.23,0.22 0.9,1.87 7.36,10.6 9.88,13.4 10,13.52 13.28,13.88 2.49,0.28 2.73,0.68 2.11,3.51 -0.8,3.72 0.05,3.44 -9.9,3.3 -15.12,-0.18 -17.8,-2.09 -27.65,-19.7 L 93.02,266 c -0.25,-0.4 -3.36,13.93 -3.2,14.72 0.18,0.95 0.8,1.65 1.97,2.28 2.02,1.08 2.04,1.14 1.36,4.18 -0.55,2.47 -0.72,2.9 -1.32,3.17 -0.35,0.16 -4.44,0.22 -14.17,0.22 -16.67,0 -15.34,0.37 -14.33,-3.97 0.54,-2.3 0.74,-2.6 2.03,-2.87 2.77,-0.6 4.55,-2.68 5.7,-6.67 0.29,-1.03 6.57,-29.66 6.86,-31.28 a 4.22,4.22 0 0 0 -2.44,-4.55 c -1.77,-0.82 -1.84,-1.05 -1.2,-3.96 0.77,-3.55 -1.03,-3.17 14.8,-3.11 l 13.42,0.05 z m 89.98,-0.16 c 0.64,0.64 0.74,-0.08 -1.11,8.26 -1.94,8.77 -1.43,7.99 -5.26,7.99 -3.72,0 -3.82,-0.07 -3.82,-2.69 0,-2.12 -0.46,-3.14 -1.78,-3.92 l -0.94,-0.55 -7.1,-0.06 -7.09,-0.06 -0.24,1.17 -1.6,7.32 -1.35,6.15 9.07,0.1 9.07,0.1 0.42,0.56 0.41,0.55 -0.94,4.27 c -0.72,3.25 -1.05,4.38 -1.39,4.74 l -0.44,0.47 H 160.2 l -1.08,4.94 c -1.49,6.81 -1.39,7.51 1.33,9.33 0.62,0.41 1.2,0.93 1.27,1.15 0.25,0.71 -0.88,5.36 -1.4,5.79 -0.56,0.44 -21.91,0.58 -22.87,0.14 -1.14,-0.52 -1.3,0.4 3.78,-22.63 5.56,-25.17 5.05,-22.64 4.76,-23.75 -0.35,-1.28 -1.07,-2.12 -2.44,-2.81 -1.69,-0.85 -1.76,-1.09 -1.17,-3.87 0.35,-1.62 0.61,-2.4 0.93,-2.73 l 0.44,-0.45 h 48.64 z"
         id="path8" />
      <path
         fill="#7c7c7c"
         d="m 306.17,14.6 c 0,0.55 0.04,0.75 0.09,0.45 0.05,-0.3 0.04,-0.76 0,-1.01 -0.05,-0.25 -0.09,0 -0.09,0.56 m -152.26,4.47 c 0.2,0.05 0.52,0.05 0.71,0 0.2,-0.05 0.04,-0.09 -0.35,-0.09 -0.4,0 -0.55,0.04 -0.36,0.1 m 1.82,0 c 0.2,0.04 0.51,0.04 0.7,0 0.2,-0.06 0.04,-0.1 -0.35,-0.1 -0.39,0 -0.54,0.04 -0.35,0.1 m -48.6,21.37 c 0.2,0.05 0.51,0.05 0.7,0 0.2,-0.05 0.04,-0.1 -0.35,-0.1 -0.39,0 -0.54,0.05 -0.35,0.1 m 3.22,13.97 c 0,0.4 0.04,0.55 0.1,0.36 0.05,-0.2 0.05,-0.51 0,-0.7 -0.06,-0.2 -0.1,-0.04 -0.1,0.34 m 79.66,3.23 c 0,0.39 0.04,0.55 0.09,0.35 0.05,-0.2 0.05,-0.5 0,-0.7 -0.05,-0.2 -0.1,-0.04 -0.1,0.35 m -90.72,5.04 c 0,0.61 0.03,0.86 0.08,0.56 0.05,-0.3 0.05,-0.8 0,-1.11 -0.05,-0.3 -0.08,-0.06 -0.08,0.55 m 12.89,15.73 c 0,0.39 0.04,0.55 0.09,0.35 0.05,-0.19 0.05,-0.5 0,-0.7 -0.05,-0.2 -0.1,-0.04 -0.1,0.35 m 8.18,1.55 c 0.25,0.05 0.66,0.05 0.9,0 0.26,-0.04 0.05,-0.08 -0.45,-0.08 -0.5,0 -0.7,0.04 -0.45,0.08 m 16.13,0 c 0.25,0.05 0.62,0.05 0.81,0 0.2,-0.05 -0.01,-0.09 -0.46,-0.09 -0.44,0 -0.6,0.05 -0.35,0.1 m 37,0 c 0.31,0.04 0.77,0.04 1.02,0 0.24,-0.05 0,-0.1 -0.56,-0.09 -0.56,0 -0.76,0.04 -0.45,0.09 m -19.46,5.04 c 0.24,0.04 0.65,0.04 0.9,0 0.25,-0.05 0.05,-0.1 -0.45,-0.1 -0.5,0 -0.7,0.05 -0.45,0.1 m 56.56,4.7 c 0,0.38 0.04,0.54 0.09,0.35 0.05,-0.2 0.05,-0.51 0,-0.7 -0.05,-0.2 -0.1,-0.04 -0.1,0.34 m -105.05,2.93 c 0,0.55 0.04,0.76 0.1,0.45 0.04,-0.3 0.04,-0.76 -0.01,-1 -0.05,-0.26 -0.09,0 -0.09,0.55 m 27.53,0.64 c 0.25,0.05 0.6,0.05 0.8,0 0.2,-0.05 -0.01,-0.09 -0.45,-0.09 -0.45,0 -0.6,0.05 -0.35,0.1 m 2.72,12.9 c 0.3,0.05 0.76,0.05 1,0 0.25,-0.05 0,-0.09 -0.55,-0.08 -0.56,0 -0.76,0.04 -0.45,0.08 m 42.85,0 c 0.25,0.05 0.61,0.05 0.8,0 0.2,-0.05 0,-0.1 -0.45,-0.1 -0.44,0.01 -0.6,0.05 -0.35,0.1 m 17.74,18.96 c 0.25,0.04 0.66,0.04 0.91,0 0.25,-0.05 0.05,-0.1 -0.45,-0.1 -0.5,0 -0.7,0.05 -0.46,0.1 m -55.76,1.8 c 0.2,0.06 0.52,0.06 0.71,0 0.2,-0.04 0.04,-0.08 -0.35,-0.08 -0.39,0 -0.55,0.04 -0.36,0.09 m 14.02,2.63 c 0.37,0.04 0.91,0.04 1.21,0 0.3,-0.05 0.01,-0.09 -0.66,-0.09 -0.66,0 -0.9,0.04 -0.55,0.09 m -5.15,17.4 c 0,0.38 0.05,0.54 0.1,0.35 0.05,-0.2 0.05,-0.51 0,-0.7 -0.05,-0.2 -0.1,-0.04 -0.1,0.34 m -18.72,30.56 c 0,1.55 0.03,2.16 0.07,1.35 0.04,-0.81 0.04,-2.08 0,-2.83 -0.04,-0.74 -0.07,-0.08 -0.07,1.48 m 10.56,7.3 c 0.36,0.04 0.95,0.04 1.31,0 0.36,-0.04 0.07,-0.08 -0.65,-0.08 -0.72,0 -1.02,0.04 -0.66,0.08 m 13.83,29.1 c 0,0.72 0.03,1.01 0.08,0.65 0.04,-0.36 0.04,-0.95 0,-1.31 -0.05,-0.36 -0.08,-0.07 -0.08,0.65 m 13.81,29.6 c 1.8,0.03 4.71,0.03 6.45,0 1.74,-0.04 0.26,-0.06 -3.29,-0.06 -3.55,0 -4.97,0.02 -3.16,0.06 m 68.05,6.4 c 0,0.55 0.04,0.76 0.1,0.45 0.04,-0.3 0.04,-0.76 -0.01,-1 -0.05,-0.26 -0.09,0 -0.09,0.55 m 2.42,2.07 c 0.63,0.03 1.68,0.03 2.32,0 0.63,-0.05 0.11,-0.08 -1.16,-0.08 -1.28,0 -1.8,0.03 -1.16,0.08 m -74.62,16.94 c 2.53,0.03 6.66,0.03 9.18,0 2.52,-0.04 0.46,-0.06 -4.59,-0.06 -5.05,0 -7.1,0.02 -4.59,0.06 M 71.03,290.5 c 3.75,0.03 9.87,0.03 13.62,0 3.74,-0.03 0.68,-0.05 -6.81,-0.05 -7.49,0 -10.55,0.02 -6.8,0.05 m 51.23,0 c 1.75,0.04 4.56,0.04 6.25,0 1.68,-0.03 0.25,-0.06 -3.2,-0.06 -3.43,0 -4.8,0.03 -3.05,0.06 m 20.94,0 c 2.96,0.03 7.86,0.03 10.9,0 3.02,-0.03 0.6,-0.05 -5.39,-0.05 -5.99,0 -8.47,0.02 -5.5,0.05"
         id="path10" />
      <path
         fill="#6c6c6c"
         d="m 84.23,3.96 c 38.83,0.03 102.45,0.03 141.36,0 38.9,-0.03 7.13,-0.05 -70.62,-0.05 -77.75,0 -109.58,0.02 -70.74,0.05 m 70.5,10.28 c 0.63,0.04 1.67,0.04 2.31,0 0.64,-0.04 0.12,-0.07 -1.16,-0.07 -1.28,0 -1.8,0.03 -1.16,0.07 m -12.9,30.45 c 0.3,0.04 0.8,0.04 1.1,0 0.3,-0.05 0.06,-0.09 -0.55,-0.09 -0.61,0 -0.86,0.04 -0.56,0.09 m 48.2,11.75 c 0,0.39 0.04,0.55 0.09,0.35 0.05,-0.19 0.05,-0.5 0,-0.7 -0.05,-0.2 -0.1,-0.04 -0.1,0.35 m -84.68,8.57 c 0,0.44 0.04,0.6 0.09,0.35 0.05,-0.25 0.04,-0.61 0,-0.8 -0.06,-0.2 -0.1,0 -0.1,0.45 m 19.87,14.97 c 2.02,0.04 5.33,0.04 7.36,0 2.02,-0.03 0.37,-0.06 -3.68,-0.06 -4.05,0 -5.7,0.03 -3.68,0.06 m 50.92,0 c 0.76,0.04 1.94,0.04 2.63,0 0.68,-0.04 0.07,-0.07 -1.37,-0.07 -1.45,0 -2,0.03 -1.26,0.07 m 8.16,0 c 0.8,0.04 2.12,0.04 2.93,0 0.8,-0.04 0.14,-0.07 -1.46,-0.07 -1.61,0 -2.27,0.03 -1.47,0.07 m 13.01,9.53 c 0,0.5 0.04,0.7 0.1,0.46 0.04,-0.25 0.04,-0.66 0,-0.91 -0.06,-0.25 -0.1,-0.05 -0.1,0.45 m -97,1.21 c 0,0.4 0.04,0.55 0.1,0.36 0.04,-0.2 0.04,-0.52 0,-0.71 -0.06,-0.2 -0.1,-0.04 -0.1,0.35 m 12.1,18.15 c 0,0.5 0.05,0.7 0.1,0.45 0.04,-0.24 0.04,-0.65 0,-0.9 -0.05,-0.25 -0.1,-0.05 -0.1,0.45 m 36.65,2.89 c 0,0.03 0.3,0.33 0.66,0.65 l 0.65,0.6 -0.59,-0.66 c -0.55,-0.61 -0.72,-0.75 -0.72,-0.6 m 6.2,9.57 c 0.37,0.04 0.92,0.04 1.22,0 0.3,-0.05 0,-0.09 -0.66,-0.09 -0.67,0 -0.91,0.04 -0.55,0.09 M 127.9,125 c 0,0.4 0.04,0.55 0.09,0.36 0.05,-0.2 0.05,-0.51 0,-0.7 -0.05,-0.2 -0.1,-0.04 -0.1,0.34 m 67.38,2.42 c 0,0.95 0.04,1.33 0.08,0.86 0.04,-0.47 0.04,-1.24 0,-1.71 -0.04,-0.47 -0.08,-0.09 -0.08,0.85 m -53.35,-0.46 c 0.25,0.05 0.61,0.05 0.8,0 0.2,-0.05 0,-0.1 -0.45,-0.09 -0.44,0 -0.6,0.04 -0.35,0.1 m 11.09,2.61 c 0.25,0.05 0.61,0.05 0.8,0 0.2,-0.05 0,-0.1 -0.45,-0.09 -0.44,0 -0.6,0.04 -0.35,0.1 m 3.63,0 c 0.25,0.04 0.65,0.04 0.9,0 0.25,-0.06 0.05,-0.1 -0.45,-0.1 -0.5,0 -0.7,0.04 -0.45,0.1 m 23.44,23.54 c -0.5,0.5 -0.85,0.91 -0.8,0.91 0.07,0 0.51,-0.4 1,-0.9 0.49,-0.5 0.85,-0.91 0.79,-0.91 a 7,7 0 0 0 -1,0.9 m 3.43,4.7 -1.3,1.35 1.36,-1.3 a 24.5,24.5 0 0 0 1.36,-1.36 c 0,-0.15 -0.2,0.04 -1.42,1.3 m -18.89,2.88 c 0,0.6 0.04,0.86 0.09,0.55 0.04,-0.3 0.04,-0.8 0,-1.1 -0.05,-0.31 -0.09,-0.06 -0.09,0.55 m 14.14,18.55 c 0,1.83 0.03,2.58 0.07,1.66 0.04,-0.91 0.04,-2.4 0,-3.32 -0.04,-0.92 -0.07,-0.17 -0.07,1.66 m -48.02,2.02 c 0,0.6 0.04,0.86 0.09,0.55 0.04,-0.3 0.04,-0.8 0,-1.1 -0.05,-0.31 -0.09,-0.06 -0.09,0.55 m 17.13,3.36 c 0.2,0.05 0.52,0.05 0.71,0 0.2,-0.05 0.04,-0.1 -0.35,-0.1 -0.4,0 -0.55,0.05 -0.36,0.1 m -8.67,0.2 c 0.3,0.05 0.8,0.05 1.11,0 0.3,-0.04 0.06,-0.08 -0.55,-0.08 -0.61,0 -0.86,0.04 -0.56,0.09 m -5.54,0.2 c 0.36,0.05 0.9,0.05 1.21,0 0.3,-0.05 0,-0.08 -0.66,-0.08 -0.66,0 -0.91,0.04 -0.55,0.08 m 30.95,24.66 c 0,0.39 0.04,0.55 0.1,0.35 0.04,-0.2 0.04,-0.51 0,-0.7 -0.06,-0.2 -0.1,-0.04 -0.1,0.35 m -9.47,6.35 c 0,0.56 0.04,0.76 0.09,0.45 0.04,-0.3 0.04,-0.76 0,-1 -0.05,-0.25 -0.09,0 -0.09,0.55 m -72.8,18.2 c 3.63,0.03 9.57,0.03 13.2,0 3.64,-0.03 0.67,-0.06 -6.6,-0.06 -7.26,0 -10.24,0.03 -6.6,0.06 m 37.7,0 c 3.3,0.03 8.7,0.03 12,0 3.3,-0.03 0.6,-0.06 -6,-0.06 -6.6,0 -9.3,0.03 -6,0.06 m 36.02,0 c 6.69,0.03 17.58,0.03 24.2,0 6.61,-0.03 1.14,-0.05 -12.17,-0.05 -13.3,0 -18.72,0.02 -12.03,0.05 m 71.36,8.26 c 0.36,0.05 1,0.05 1.42,0 0.41,-0.04 0.12,-0.08 -0.66,-0.08 -0.77,0 -1.11,0.04 -0.76,0.08 m -60.49,15.94 c 2.47,0.03 6.5,0.03 8.97,0 2.47,-0.03 0.45,-0.06 -4.48,-0.06 -4.94,0 -6.96,0.03 -4.49,0.06 m 42.06,5.8 c 0,0.66 0.04,0.91 0.08,0.55 0.05,-0.36 0.05,-0.9 0,-1.21 -0.05,-0.3 -0.08,0 -0.08,0.66 m -19.77,2.32 c 0,0.6 0.04,0.86 0.09,0.55 0.04,-0.3 0.04,-0.8 0,-1.1 -0.05,-0.31 -0.09,-0.06 -0.09,0.55 m 37.8,14.26 c 0.37,0.04 0.95,0.04 1.32,0 0.36,-0.05 0.06,-0.08 -0.66,-0.08 -0.72,0 -1.02,0.03 -0.66,0.08 m -8.97,10.28 c 0.2,0.05 0.51,0.05 0.7,0 0.2,-0.06 0.04,-0.1 -0.35,-0.1 -0.38,0 -0.54,0.04 -0.35,0.1 m 5.85,0 c 0.2,0.05 0.51,0.05 0.7,0 0.2,-0.06 0.04,-0.1 -0.35,-0.1 -0.39,0 -0.55,0.04 -0.35,0.1 M 95.74,306.44 c 32.63,0.03 86.04,0.03 118.67,0 32.64,-0.02 5.94,-0.05 -59.34,-0.05 -65.27,0 -91.97,0.03 -59.33,0.05"
         id="path12" />
      <path
         fill="#9c9c9c"
         d="m 192.38,29.12 c 0.38,0.38 0.73,0.7 0.79,0.7 0.05,0 -0.21,-0.32 -0.59,-0.7 -0.37,-0.4 -0.73,-0.71 -0.78,-0.71 -0.06,0 0.2,0.32 0.58,0.7 m 3.23,253.49 c 0.37,0.39 0.73,0.7 0.78,0.7 0.06,0 -0.2,-0.31 -0.58,-0.7 a 4.1,4.1 0 0 0 -0.79,-0.7 c -0.05,0 0.21,0.31 0.59,0.7"
         id="path14" />
      <path
         fill="#bcbcbc"
         d="m 3.9,14.7 c 0,0.6 0.03,0.86 0.08,0.55 0.04,-0.3 0.04,-0.8 0,-1.1 C 3.93,13.84 3.89,14.09 3.89,14.7 m 130.16,10.22 c 0.25,0.05 0.62,0.05 0.81,0 0.2,-0.05 -0.01,-0.1 -0.46,-0.09 -0.44,0 -0.6,0.04 -0.35,0.1 m 1.82,7.86 c 0.25,0.05 0.61,0.04 0.8,0 0.2,-0.06 0,-0.1 -0.45,-0.1 -0.44,0 -0.6,0.05 -0.35,0.1 m 54.16,26.68 c 0,0.72 0.03,1.01 0.08,0.65 a 6.5,6.5 0 0 0 0,-1.31 c -0.05,-0.36 -0.08,-0.07 -0.08,0.66 m 20.75,8.97 c 0,0.44 0.05,0.6 0.1,0.35 a 2.2,2.2 0 0 0 -0.01,-0.8 c -0.05,-0.2 -0.1,0 -0.09,0.45 m -9.48,0.5 c 0,0.4 0.04,0.55 0.1,0.36 0.04,-0.2 0.04,-0.52 0,-0.7 -0.06,-0.2 -0.1,-0.04 -0.1,0.34 m -29.44,11.03 c 0.2,0.05 0.51,0.05 0.7,0 0.2,-0.05 0.04,-0.1 -0.35,-0.1 -0.38,0 -0.54,0.05 -0.35,0.1 m 25.2,12.77 c 0,0.39 0.05,0.55 0.1,0.35 0.05,-0.2 0.05,-0.51 0,-0.7 -0.05,-0.2 -0.1,-0.04 -0.1,0.35 m -76.21,36.7 c 0,0.5 0.04,0.7 0.08,0.45 0.05,-0.25 0.05,-0.65 0,-0.9 -0.04,-0.25 -0.08,-0.05 -0.08,0.45 m 30.44,2.96 c 0.2,0.05 0.51,0.05 0.7,0 0.2,-0.05 0.04,-0.09 -0.34,-0.09 -0.4,0 -0.55,0.04 -0.36,0.1 m 6.66,4.23 c 0.2,0.05 0.5,0.05 0.7,0 0.2,-0.05 0.04,-0.1 -0.35,-0.1 -0.39,0 -0.55,0.05 -0.35,0.1 m 2.22,0 c 0.19,0.05 0.5,0.05 0.7,0 0.2,-0.05 0.04,-0.1 -0.35,-0.1 -0.39,0 -0.55,0.05 -0.35,0.1 m 13.92,2.28 c 0,0.72 0.04,1.01 0.08,0.65 0.05,-0.36 0.05,-0.95 0,-1.3 -0.04,-0.37 -0.08,-0.07 -0.08,0.65 m -3.03,31.6 c 0.3,0.05 0.76,0.05 1,0 0.25,-0.05 0,-0.09 -0.55,-0.09 -0.56,0 -0.76,0.05 -0.45,0.1 m -29.55,0.4 c 0.26,0.04 0.62,0.04 0.81,-0.01 0.2,-0.05 -0.01,-0.1 -0.45,-0.09 -0.45,0 -0.6,0.04 -0.36,0.1 m 37.4,3.08 c 0,0.38 0.05,0.54 0.1,0.35 0.05,-0.2 0.05,-0.51 0,-0.7 -0.05,-0.2 -0.1,-0.04 -0.1,0.35 m -10.68,10.22 c 0.2,0.05 0.51,0.05 0.7,0 0.2,-0.05 0.04,-0.1 -0.35,-0.1 -0.38,0 -0.54,0.05 -0.35,0.1 m -24.3,0.61 c 0.37,0.05 0.91,0.04 1.22,0 0.3,-0.05 0,-0.08 -0.66,-0.08 -0.67,0 -0.92,0.04 -0.55,0.08 m 11.2,13.06 c 0,0.56 0.03,0.76 0.08,0.45 0.04,-0.3 0.04,-0.76 0,-1 -0.05,-0.25 -0.09,0 -0.09,0.55 m 0.02,12.7 c 0,1.23 0.03,1.7 0.07,1.06 0.04,-0.64 0.04,-1.64 0,-2.22 -0.04,-0.58 -0.07,-0.05 -0.07,1.17 m 9.68,3.83 c 0,1.44 0.03,2 0.07,1.25 0.04,-0.75 0.04,-1.93 0,-2.62 -0.04,-0.69 -0.07,-0.07 -0.07,1.37 m -46.81,76.06 c 0.2,0.05 0.51,0.05 0.7,0 0.2,-0.05 0.04,-0.1 -0.35,-0.1 -0.39,0 -0.54,0.05 -0.35,0.1"
         id="path16" />
      <path
         fill="#f4839a"
         d="m 13.4,13.54 -0.6,0.65 0.66,-0.59 c 0.36,-0.32 0.66,-0.62 0.66,-0.65 0,-0.16 -0.17,-0.02 -0.72,0.59 m -1.46,3.58 c 0,0.39 0.05,0.54 0.1,0.35 0.05,-0.2 0.05,-0.51 0,-0.7 -0.05,-0.2 -0.1,-0.04 -0.1,0.35"
         id="path18" />
      <path
         fill="#cccccc"
         d="m 230.6,115.02 c 0,56.79 0.02,79.99 0.04,51.56 0.03,-28.43 0.03,-74.9 0,-103.25 -0.02,-28.36 -0.05,-5.1 -0.05,51.7 M 157,41.51 c 0.55,0.55 1.04,1 1.1,1 0.05,0 -0.35,-0.45 -0.9,-1 a 7.92,7.92 0 0 0 -1.1,-1.01 c -0.05,0 0.35,0.45 0.9,1 m -30.66,5.1 -0.8,0.86 0.86,-0.8 c 0.8,-0.74 0.95,-0.92 0.8,-0.92 -0.04,0 -0.42,0.39 -0.86,0.86 m 59.89,56.87 -0.6,0.65 0.66,-0.59 a 5,5 0 0 0 0.66,-0.66 c 0,-0.15 -0.17,-0.01 -0.72,0.6 m -15.62,16.95 c 0,0.03 0.3,0.33 0.66,0.65 l 0.65,0.6 -0.59,-0.66 c -0.55,-0.61 -0.72,-0.75 -0.72,-0.6 m 27.62,123.71 -0.7,0.76 0.76,-0.7 c 0.7,-0.64 0.85,-0.81 0.7,-0.81 -0.04,0 -0.38,0.34 -0.76,0.75 m 14.73,30.97 c 0,0.03 0.3,0.33 0.65,0.65 l 0.66,0.6 -0.6,-0.66 c -0.54,-0.6 -0.71,-0.75 -0.71,-0.6"
         id="path20" />
    </g>
  </g>
</svg>
