<?xml version="1.0" encoding="UTF-8" standalone="no"?>
<svg
   xmlns:dc="http://purl.org/dc/elements/1.1/"
   xmlns:cc="http://creativecommons.org/ns#"
   xmlns:rdf="http://www.w3.org/1999/02/22-rdf-syntax-ns#"
   xmlns:svg="http://www.w3.org/2000/svg"
   xmlns="http://www.w3.org/2000/svg"
   xmlns:sodipodi="http://sodipodi.sourceforge.net/DTD/sodipodi-0.dtd"
   xmlns:inkscape="http://www.inkscape.org/namespaces/inkscape"
   width="311.98541"
   height="849.87433"
   version="1.1"
   id="svg4"
   sodipodi:docname="4-hugo-boss.svg"
   inkscape:version="1.0.2 (e86c870879, 2021-01-15, custom)">
  <metadata
     id="metadata10">
    <rdf:RDF>
      <cc:Work
         rdf:about="">
        <dc:format>image/svg+xml</dc:format>
        <dc:type
           rdf:resource="http://purl.org/dc/dcmitype/StillImage" />
        <dc:title></dc:title>
      </cc:Work>
    </rdf:RDF>
  </metadata>
  <defs
     id="defs8" />
  <sodipodi:namedview
     pagecolor="#ffffff"
     bordercolor="#666666"
     borderopacity="1"
     objecttolerance="10"
     gridtolerance="10"
     guidetolerance="10"
     inkscape:pageopacity="0"
     inkscape:pageshadow="2"
     inkscape:window-width="1912"
     inkscape:window-height="1011"
     id="namedview6"
     showgrid="false"
     fit-margin-top="0"
     fit-margin-left="0"
     fit-margin-right="0"
     fit-margin-bottom="0"
     inkscape:zoom="0.7152995"
     inkscape:cx="-219.12667"
     inkscape:cy="442.08327"
     inkscape:window-x="0"
     inkscape:window-y="36"
     inkscape:window-maximized="1"
     inkscape:current-layer="svg4" />
  <path
     fill="#231f20"
     d="m 263.68055,837.76324 v -6.7 h 20.11 v -25.7 h -20.11 v -6.47 h 46.92 v 6.47 h -21.45 v 25.7 h 21.45 v 6.7 z m 29.94,-142.78 c 11.84,0 18.1,7.15 18.1,19.44 0,12.51 -5.59,20.11 -18.1,20.11 h -29.94 v -6.7 h 29.94 c 8.27,0 13,-4.92 13,-13.41 0,-8.27 -4.69,-13 -13,-13 h -29.94 v -6.48 z m 18.32,-81.09 c 0.89,14.75 -11.62,23.68 -23.91,23.68 -13.63,0 -25.47,-7.82 -25.47,-23.46 0,-10.73 4.47,-19.22 15.64,-21 v 6.48 c -7.15,1.34 -10.5,7.37 -10.5,14.52 0,12.07 10.05,17 20.11,17 9.83,0 19.22,-6.26 19,-18.1 -0.22,-6 -1.34,-10.95 -5.36,-13.41 -2.46,-1.79 -6.93,-1.34 -10.28,-1.12 v 15.62 h -5.37 v -21.45 h 17.65 c 6.93,5.59 8.05,12.24 8.49,21.24 z m -5.36,-101.46 c 0,-11.84 -10.05,-17 -19.44,-17 -9.39,0 -19.44,5.14 -19.44,17 0,12.07 10.05,17 19.44,17 9.39,0 19.44,-4.93 19.44,-17 z m -44,0 c 0,-15.64 11.84,-23.46 24.58,-23.46 12.74,0 24.58,7.82 24.58,23.46 0,15.64 -11.86,23.46 -24.6,23.46 -12.74,0 -24.58,-7.81 -24.58,-23.46 z m 21.21,-155.06 v -13 c 0,-7.37 -2.46,-10.5 -7.37,-10.5 -6.48,0 -7.6,4.69 -7.6,10.5 v 13 z m 21.67,0 v -16.31 c 0,-5.59 -3.35,-9.16 -8.49,-9.16 -6,0 -7.82,5.14 -7.82,10.72 v 14.75 z m -41.78,6.52 v -17.65 c 0,-4.47 0,-10.05 1.56,-13 a 11.28,11.28 0 0 1 9.83,-5.81 11,11 0 0 1 10.73,7.15 c 1.12,-6 5.59,-9.38 11.4,-9.38 6.93,0 13.41,5.36 13.41,15 v 23.69 z m 42.9,-120.7 c 0,-12.07 -10.05,-17 -19.44,-17 -9.39,0 -19.44,4.92 -19.44,17 0,11.84 10.05,17 19.44,17 9.39,0 19.44,-5.16 19.44,-17 z m -44,0 c 0,-15.64 11.84,-23.68 24.58,-23.68 12.74,0 24.58,8 24.58,23.68 0,15.68 -11.84,23.46 -24.58,23.46 -12.74,0 -24.6,-7.82 -24.6,-23.46 z m 14.95,-113.73 c -6.93,0.67 -9.83,5.36 -9.83,12.07 0,5.59 2,10.95 8,10.95 5.81,0 6.7,-7.82 8.49,-15.64 1.56,-7.82 4.25,-15.64 13.63,-15.64 9.83,0 13.85,10.28 13.85,19.22 0,10.95 -5.14,20.11 -16.53,20.11 v -6 c 7.82,0 11.4,-6.93 11.4,-14.3 0,-6 -1.79,-12.51 -8.71,-12.51 -6.48,0 -7.37,7.82 -9.16,15.64 -1.56,7.82 -3.8,15.86 -12.51,15.86 -9.38,0 -13.63,-8.94 -13.63,-17.87 0,-10.06 4.47,-17.65 15,-18.1 z m 0,-105.909996 c -6.93,0.89 -9.83,5.59 -9.83,12.29 0,5.36 2,10.95 8,10.95 5.81,0 6.7,-7.82 8.49,-15.86 1.56,-7.82 4.25,-15.64 13.63,-15.64 9.83,0 13.85,10.28 13.85,19.22 0,10.95 -5.14,20.33 -16.53,20.33 v -6.26 c 7.82,0 11.4,-6.93 11.4,-14.3 0,-5.81 -1.79,-12.51 -8.71,-12.51 -6.48,0 -7.37,8 -9.16,15.86 -1.56,7.82 -3.8,15.64 -12.51,15.64 -9.38,0 -13.63,-8.71 -13.63,-17.88 0,-9.83 4.47,-17.65 15,-17.88 z M 15.660555,780.11324 h 84.459995 v -30.61 a 28.75,28.75 0 0 0 -0.669995,-4.25 c -1.56,-17.87 -23,-29.27 -38.65,-30.39 -16.76,-1.79 -44.46,8.49 -45.13,34.19 -0.23,7.6 -0.01,31.06 -0.01,31.06 z m 94.289995,0 h 101.22 v -27.7 a 46.22,46.22 0 0 0 -10.28,-29.72 c -11.17,-13.85 -27.71,-21 -46.7,-19.44 -17,1.12 -41.11,14.08 -44.24,43.12 z m -104.1199955,-65.22 c 1.34,-23 13.6300005,-38 15.1700005,-39.34 11,-11.85 27.51,-15.42 43.37,-12.52 26.63,3.8 37.759995,36.86 37.759995,36.86 3.35,-27.71 24.13,-48.49 46.48,-51.61 21.9,-2.68 41.34,5.36 55,23.46 13.63,18.32 18.1,45.13 18.1,59.66 v 118.43 h -9.38 c 0.22,-15.19 0.22,-17 -5.81,-17 -22.79,0.22 -181.879995,0 -186.119995,0 -4.92,0 -5.14,2.46 -5.14,17 a 85.08,85.08 0 0 1 -9.4300005,-0.23 z m 11.6200005,-182.79 c 9.83,14.75 32.4,25 51.17,29.94 28.38,7.82 61.889995,6.26 96.299995,-1.56 34.41,-8 46.48,-30.16 49.38,-43.35 5.59,-24.58 -8.71,-40.67 -21.9,-49.38 -25.7,-17 -78.65,-21.23 -108.999995,-15.86 -28.15,4.92 -47.82,12.51 -61,27.26 -14.5600005,16.53 -13.4000005,40.21 -4.95,52.95 z m 133.619995,-132.5 c 30.61,10.28 49.83,30.83 62.34,54.52 16.76,31.06 19.44,75.52 0.89,106.58 -11.39,19.19 -41.78,68.19 -113.51,61.67 -15.419995,-1.34 -54.069995,-9.16 -83.119995,-52.29 -19.2100005,-29.49 -24.8000005,-71.94 -6.47,-111.49 28.15,-61.7 97.639995,-74.63 139.869995,-58.99 z m -135.179995,-181.21 c 16.09,-0.22 49.38,0 49.38,0 l 0.22,7.82 c -20.78,4.69 -38.65,14.75 -46.92,32 -8,16.53 -12.0700005,41.56 2.23,57.87 8.49,9.61 17.2,10.95 27,7.6 14.52,-5.81 19,-21.9 24.58,-34.41 4,-10.28 11.17,-32.17 11.17,-32.17 8.49,-24.35 24.999995,-51.39 52.509995,-58.76 11.84,-3.35 25.25,-3.35 37.31,-0.67 26.81,6 33.29,23.24 40,33.07 3.35,4.92 21,50.94 2.9,106.36 -3.8,11.4 -8.27,24.58 -8.27,24.58 h -60.1 c 0,0 0.22,-6 0.22,-8.49 9.61,-3.8 21.23,-7.15 32.85,-15.19 27.26,-18.77 35.53,-45.36 29.27,-74.63 -2.68,-11.62 -10.73,-24.35 -22.79,-27.71 -13.63,-4.25 -36.2,-2.9 -51.39,38.21 -13.63,29.72 -19.22,67 -52.279995,84.68 -18.55,6.93 -50.72,4.92 -66.36,-17.87 -15.6400005,-23 -19.2200005,-45.36 -15.6400005,-72.39 3.83,-26.89 7.4,-34.04 14.1100005,-49.9 z m 0,-195.729996 c 16.09,-0.22 49.38,0 49.38,0 l 0.22,7.82 c -20.78,4.69 -38.65,14.75 -46.92,32 -8,16.54 -12.0700005,41.559996 2.23,57.869996 8.49,9.61 17.2,10.95 27,7.6 14.52,-5.81 19,-21.9 24.58,-34.409996 4,-10.28 11.17,-32.18 11.17,-32.18 8.49,-24.35 24.999995,-51.3900004 52.509995,-58.7600004 11.84,-3.35000001 25.25,-3.35000001 37.31,-0.67 26.81,6 33.29,23.2400004 40,33.0700004 3.35,4.92 21,50.94 2.9,106.359996 -3.76,11.34 -8.27,24.53 -8.27,24.53 h -60.1 c 0,0 0.22,-6 0.22,-8.49 9.61,-3.8 21.23,-7.15 32.85,-15.19 27.26,-18.77 35.53,-45.359996 29.27,-74.629996 -2.68,-11.62 -10.73,-24.35 -22.79,-27.71 -13.63,-4.25 -36.2,-2.9 -51.39,38.21 -13.63,29.719996 -19.22,66.999996 -52.279995,84.679996 -18.55,6.93 -50.72,4.92 -66.36,-18.1 -15.6100005,-22.77 -19.1800005,-45.139996 -15.6100005,-71.949996 3.8,-27.04 7.37,-34.19 14.0800005,-50.05 z"
     id="path2" />
</svg>
