<?xml version="1.0" encoding="UTF-8" standalone="no"?>
<svg
   xmlns:dc="http://purl.org/dc/elements/1.1/"
   xmlns:cc="http://creativecommons.org/ns#"
   xmlns:rdf="http://www.w3.org/1999/02/22-rdf-syntax-ns#"
   xmlns:svg="http://www.w3.org/2000/svg"
   xmlns="http://www.w3.org/2000/svg"
   xmlns:xlink="http://www.w3.org/1999/xlink"
   xmlns:sodipodi="http://sodipodi.sourceforge.net/DTD/sodipodi-0.dtd"
   xmlns:inkscape="http://www.inkscape.org/namespaces/inkscape"
   width="64"
   height="64"
   version="1.1"
   id="svg196"
   sodipodi:docname="6-mercedes.svg"
   inkscape:version="1.0.2 (e86c870879, 2021-01-15, custom)">
  <metadata
     id="metadata200">
    <rdf:RDF>
      <cc:Work
         rdf:about="">
        <dc:format>image/svg+xml</dc:format>
        <dc:type
           rdf:resource="http://purl.org/dc/dcmitype/StillImage" />
        <dc:title></dc:title>
      </cc:Work>
    </rdf:RDF>
  </metadata>
  <sodipodi:namedview
     pagecolor="#ffffff"
     bordercolor="#666666"
     borderopacity="1"
     objecttolerance="10"
     gridtolerance="10"
     guidetolerance="10"
     inkscape:pageopacity="0"
     inkscape:pageshadow="2"
     inkscape:window-width="1912"
     inkscape:window-height="1011"
     id="namedview198"
     showgrid="false"
     showguides="false"
     inkscape:zoom="11.295419"
     inkscape:cx="32"
     inkscape:cy="32.35"
     inkscape:window-x="0"
     inkscape:window-y="36"
     inkscape:window-maximized="1"
     inkscape:current-layer="svg196"
     fit-margin-top="0"
     fit-margin-left="0"
     fit-margin-right="0"
     fit-margin-bottom="0" />
  <defs
     id="defs146">
    <linearGradient
       id="b"
       x1="8"
       y1="53.400002"
       x2="56"
       y2="13.2"
       gradientTransform="matrix(1,0,0,-1,0,64.6)"
       gradientUnits="userSpaceOnUse">
      <stop
         offset="0"
         stop-color="#fff"
         id="stop2" />
      <stop
         offset=".1"
         stop-color="#e7e8e6"
         id="stop4" />
      <stop
         offset=".1"
         stop-color="#cdd0d0"
         id="stop6" />
      <stop
         offset=".2"
         stop-color="#b5bbbd"
         id="stop8" />
      <stop
         offset=".2"
         stop-color="#a5acaf"
         id="stop10" />
      <stop
         offset=".3"
         stop-color="#9ba3a7"
         id="stop12" />
      <stop
         offset=".3"
         stop-color="#98a0a4"
         id="stop14" />
      <stop
         offset=".4"
         stop-color="#828a8f"
         id="stop16" />
      <stop
         offset=".5"
         stop-color="#667075"
         id="stop18" />
      <stop
         offset=".6"
         stop-color="#535c63"
         id="stop20" />
      <stop
         offset=".7"
         stop-color="#475158"
         id="stop22" />
      <stop
         offset=".8"
         stop-color="#434d54"
         id="stop24" />
      <stop
         offset="1"
         stop-color="#475157"
         id="stop26" />
    </linearGradient>
    <linearGradient
       id="c"
       x1="9.4700003"
       y1="52.240002"
       x2="54.470001"
       y2="14.44"
       gradientTransform="matrix(1,0,0,-1,0,64.6)"
       gradientUnits="userSpaceOnUse">
      <stop
         offset="0"
         stop-color="#0b1f2a"
         id="stop29" />
      <stop
         offset=".2"
         stop-color="#333f47"
         id="stop31" />
      <stop
         offset=".5"
         stop-color="#777f84"
         id="stop33" />
      <stop
         offset=".5"
         stop-color="#81898d"
         id="stop35" />
      <stop
         offset=".7"
         stop-color="#b3b8b8"
         id="stop37" />
      <stop
         offset=".8"
         stop-color="#d2d5d3"
         id="stop39" />
      <stop
         offset=".8"
         stop-color="#dee0dd"
         id="stop41" />
      <stop
         offset="1"
         stop-color="#fbfbfb"
         id="stop43" />
    </linearGradient>
    <linearGradient
       id="a"
       x1="1828.74"
       y1="18.360001"
       x2="1850.64"
       y2="-41.84"
       gradientTransform="matrix(-1,0,0,1,1871.67,43.01)"
       gradientUnits="userSpaceOnUse">
      <stop
         offset="0"
         stop-color="#e1e3e1"
         id="stop46" />
      <stop
         offset=".1"
         stop-color="#c1c5c4"
         id="stop48" />
      <stop
         offset=".3"
         stop-color="#9ba1a2"
         id="stop50" />
      <stop
         offset=".5"
         stop-color="#7d8487"
         id="stop52" />
      <stop
         offset=".7"
         stop-color="#687074"
         stop-opacity="0"
         id="stop54" />
      <stop
         offset=".8"
         stop-color="#5b6469"
         stop-opacity="0"
         id="stop56" />
      <stop
         offset="1"
         stop-color="#576065"
         stop-opacity="0"
         id="stop58" />
    </linearGradient>
    <linearGradient
       id="d"
       x1="18.200001"
       y1="57.200001"
       x2="45.799999"
       y2="9.3999996"
       gradientTransform="matrix(1,0,0,-1,0,64.6)"
       xlink:href="#a" />
    <linearGradient
       id="e"
       x1="44.490002"
       y1="25.91"
       x2="42.790001"
       y2="23.110001"
       gradientTransform="matrix(1,0,0,-1,0,64.6)"
       gradientUnits="userSpaceOnUse">
      <stop
         offset="0"
         stop-color="#27343c"
         id="stop62" />
      <stop
         offset="1"
         stop-color="#00111e"
         stop-opacity="0"
         id="stop64" />
    </linearGradient>
    <linearGradient
       id="f"
       x1="39.580002"
       y1="36.189999"
       x2="36.779999"
       y2="40.689999"
       gradientTransform="matrix(1,0,0,-1,0,64.6)"
       gradientUnits="userSpaceOnUse">
      <stop
         offset=".1"
         stop-color="#02131f"
         id="stop67" />
      <stop
         offset=".9"
         stop-color="#02131f"
         stop-opacity="0"
         id="stop69" />
    </linearGradient>
    <linearGradient
       id="g"
       x1="31.98"
       y1="28.959999"
       x2="27.780001"
       y2="27.76"
       gradientTransform="matrix(1,0,0,-1,0,64.6)"
       gradientUnits="userSpaceOnUse">
      <stop
         offset=".2"
         stop-color="#02131f"
         id="stop72" />
      <stop
         offset=".9"
         stop-color="#02131f"
         stop-opacity="0"
         id="stop74" />
    </linearGradient>
    <linearGradient
       id="h"
       x1="20.790001"
       y1="23.4"
       x2="20.190001"
       y2="24.9"
       gradientTransform="matrix(1,0,0,-1,0,64.6)"
       gradientUnits="userSpaceOnUse">
      <stop
         offset="0"
         stop-color="#02131f"
         id="stop77" />
      <stop
         offset=".1"
         stop-color="#02131f"
         id="stop79" />
      <stop
         offset="1"
         stop-color="#02131f"
         stop-opacity="0"
         id="stop81" />
    </linearGradient>
    <linearGradient
       id="i"
       x1="35.599998"
       y1="48.09"
       x2="32.200001"
       y2="47.689999"
       gradientTransform="matrix(1,0,0,-1,0,64.6)"
       gradientUnits="userSpaceOnUse">
      <stop
         offset=".3"
         stop-color="#02131f"
         id="stop84" />
      <stop
         offset=".8"
         stop-color="#02131f"
         stop-opacity="0"
         id="stop86" />
    </linearGradient>
    <linearGradient
       id="j"
       x1="35.709999"
       y1="48.139999"
       x2="33.41"
       y2="47.84"
       gradientTransform="matrix(1,0,0,-1,0,64.6)"
       gradientUnits="userSpaceOnUse">
      <stop
         offset=".4"
         stop-color="#27343c"
         id="stop89" />
      <stop
         offset="1"
         stop-color="#3b474e"
         stop-opacity="0"
         id="stop91" />
    </linearGradient>
    <linearGradient
       id="k"
       x1="-0.36000001"
       y1="32.470001"
       x2="27.540001"
       y2="16.370001"
       gradientTransform="matrix(1,0,0,-1,0,64.6)"
       gradientUnits="userSpaceOnUse">
      <stop
         offset="0"
         stop-color="#24303a"
         stop-opacity="0"
         id="stop94" />
      <stop
         offset="0"
         stop-color="#25323b"
         stop-opacity="0"
         id="stop96" />
      <stop
         offset=".1"
         stop-color="#27343c"
         id="stop98" />
    </linearGradient>
    <linearGradient
       id="l"
       x1="31.950001"
       y1="27.9"
       x2="31.950001"
       y2="32.700001"
       gradientTransform="matrix(1,0,0,-1,0,64.6)"
       gradientUnits="userSpaceOnUse">
      <stop
         offset=".3"
         stop-color="#a5abaf"
         id="stop101" />
      <stop
         offset="1"
         stop-color="#a5abaf"
         stop-opacity="0"
         id="stop103" />
    </linearGradient>
    <linearGradient
       id="m"
       x1="47.650002"
       y1="63"
       x2="47.650002"
       y2="2"
       gradientTransform="matrix(1,0,0,-1,0,64.6)"
       gradientUnits="userSpaceOnUse">
      <stop
         offset="0"
         stop-color="#dee0dd"
         id="stop106" />
      <stop
         offset="0"
         stop-color="#c5c9c7"
         id="stop108" />
      <stop
         offset="0"
         stop-color="#9ea4a5"
         id="stop110" />
      <stop
         offset="0"
         stop-color="#82898c"
         id="stop112" />
      <stop
         offset="0"
         stop-color="#71797d"
         id="stop114" />
      <stop
         offset="0"
         stop-color="#6b7378"
         id="stop116" />
      <stop
         offset=".2"
         stop-color="#333f47"
         id="stop118" />
      <stop
         offset=".5"
         stop-color="#27343c"
         id="stop120" />
      <stop
         offset=".8"
         stop-color="#333f47"
         id="stop122" />
      <stop
         offset="1"
         stop-color="#434d54"
         id="stop124" />
    </linearGradient>
    <linearGradient
       id="n"
       x1="57.290001"
       y1="57.209999"
       x2="43.790001"
       y2="37.41"
       gradientTransform="matrix(1,0,0,-1,0,64.6)"
       gradientUnits="userSpaceOnUse">
      <stop
         offset=".7"
         stop-color="#27343c"
         id="stop127" />
      <stop
         offset=".7"
         stop-color="#2b373f"
         id="stop129" />
      <stop
         offset=".7"
         stop-color="#36424a"
         id="stop131" />
      <stop
         offset=".7"
         stop-color="#49545b"
         id="stop133" />
      <stop
         offset=".8"
         stop-color="#646d73"
         stop-opacity="0"
         id="stop135" />
      <stop
         offset=".8"
         stop-color="#868d92"
         stop-opacity="0"
         id="stop137" />
      <stop
         offset=".8"
         stop-color="#b0b5b8"
         stop-opacity="0"
         id="stop139" />
      <stop
         offset=".8"
         stop-color="#e1e3e4"
         stop-opacity="0"
         id="stop141" />
      <stop
         offset=".8"
         stop-color="#fff"
         stop-opacity="0"
         id="stop143" />
    </linearGradient>
    <linearGradient
       inkscape:collect="always"
       xlink:href="#a"
       id="linearGradient232"
       gradientUnits="userSpaceOnUse"
       gradientTransform="matrix(-1,0,0,1,1871.67,43.01)"
       x1="1828.74"
       y1="18.360001"
       x2="1850.64"
       y2="-41.84" />
  </defs>
  <g
     id="g230"
     transform="rotate(-90,32.35,31.65)">
    <path
       d="M 63.3,31.3 A 31.3,31.3 0 1 1 32,0 31.28,31.28 0 0 1 63.3,31.3 Z M 32,1.9 A 29.4,29.4 0 1 0 61.4,31.3 29.32,29.32 0 0 0 32,1.9 Z"
       fill="url(#b)"
       id="path148"
       style="fill:url(#b)" />
    <path
       d="M 32,1.9 A 29.4,29.4 0 1 0 61.4,31.3 29.32,29.32 0 0 0 32,1.9 Z m 0,56.9 A 27.5,27.5 0 1 1 59.5,31.3 27.48,27.48 0 0 1 32,58.8 Z"
       fill="url(#c)"
       id="path150"
       style="fill:url(#c)" />
    <path
       d="M 32,62.6 A 31.3,31.3 0 1 0 0.7,31.3 31.28,31.28 0 0 0 32,62.6 Z m 0,-63.3 a 32,32 0 1 1 -32,32 32.09,32.09 0 0 1 32,-32 z"
       style="isolation:isolate;fill:url(#linearGradient232)"
       opacity="0.4"
       fill="url(#a)"
       id="path152" />
    <path
       d="M 2.2,31.4 A 29.9,29.9 0 0 1 32,1.5 29.83,29.83 0 0 1 61.8,31.4 29.73,29.73 0 0 1 32,61.1 29.73,29.73 0 0 1 2.2,31.4 Z M 11.5,10.8 A 29.11,29.11 0 0 0 2.9,31.4 29,29 0 0 0 11.4,51.9 29.45,29.45 0 0 0 32,60.4 28.62,28.62 0 0 0 52.5,51.9 28.62,28.62 0 0 0 61,31.4 29.45,29.45 0 0 0 52.5,10.8 28.7,28.7 0 0 0 32,2.2 28.7,28.7 0 0 0 11.5,10.8 Z"
       fill="#ffffff"
       id="path154" />
    <path
       d="m 32,58.9 a 27.58,27.58 0 0 1 -19.5,-47.1 27.58,27.58 0 1 1 39,39 27.38,27.38 0 0 1 -19.5,8.1 z m 0,-0.8 A 26.7,26.7 0 1 0 13.1,12.5 26,26 0 0 0 5.2,31.3 26.8,26.8 0 0 0 32,58.1 Z"
       style="isolation:isolate;fill:url(#d)"
       opacity="0.4"
       fill="url(#d)"
       id="path156" />
    <path
       d="M 56.3,44.3 36.5,28.6 32,2.9 A 1.71,1.71 0 0 0 31.1,3.7 L 27.9,28.7 8,44 c 0,0 -0.4,0.5 -0.6,0.8 A 2,2 0 0 0 7.3,45.6 L 31.9,35.5 56.5,45.6 a 1.43,1.43 0 0 0 -0.2,-1.3 z"
       fill="#ffffff"
       id="path158" />
    <path
       d="m 32.2,32.1 -0.2,4.6 22.6,9.1 a 1.8,1.8 0 0 0 2,-0.2 L 32.5,32 a 0.19,0.19 0 0 0 -0.3,0.1 z"
       fill="#565f64"
       id="path160" />
    <path
       d="m 32.2,32.1 a 23.89,23.89 0 0 0 2.8,3.9 23.1,23.1 0 0 0 4.9,3.9 l 14.7,5.9 a 1.8,1.8 0 0 0 2,-0.2 L 32.5,32 a 0.19,0.19 0 0 0 -0.3,0.1 z"
       fill="url(#e)"
       id="path162"
       style="fill:url(#e)" />
    <path
       d="m 56.5,44.7 c 0,-0.1 -0.1,-0.2 -0.2,-0.4 L 35.7,29.2 32.9,31 c 0,0 0.2,0.1 0.3,0 a 2.5,2.5 0 0 1 1.5,0 c 0.5,0.2 21.8,13.8 21.8,13.8 z"
       fill="#a4aaae"
       fill-opacity="0.6"
       id="path164" />
    <path
       d="M 55.8,43.8 36.6,28.6 35.7,29.2 56.3,44.4 a 2.65,2.65 0 0 0 -0.5,-0.6 z"
       fill="#333e46"
       id="path166" />
    <path
       d="m 32.5,30.6 -0.1,0.1 c 0,0 0,0.2 0.2,0.1 0.2,-0.1 3,-1.6 4,-2.2 L 33.1,4.6 A 1.74,1.74 0 0 0 31.9,3 l 0.4,27.8 z"
       fill="#565f64"
       id="path168" />
    <path
       d="M 30.8,4.6 V 5.9 L 28.6,28 a 0.91,0.91 0 0 0 0.4,0.8 l 1.3,1 0.9,-24.4 0.1,-1.9 a 1.63,1.63 0 0 0 -0.5,1.1 z m -1.2,25.6 -1.2,-1 -20.3,14.7 c 0,0 -0.6,0.4 -0.7,0.8 L 8.1,44.3 29.4,30.9 c 0.4,-0.2 0.5,-0.4 0.2,-0.7 z"
       fill="#a4aaae"
       fill-opacity="0.6"
       id="path170" />
    <path
       d="M 31.7,32.1 C 31.7,32 31.6,31.9 31.5,32 L 7.3,45.7 a 2,2 0 0 0 2,0.2 l 22.6,-9.1 z"
       fill="#565f64"
       id="path172" />
    <path
       d="m 32.4,30.7 0.1,-0.1 -0.1,0.1 a 0.1,0.1 0 0 0 0.1,0.1 h 0.1 c 0.1,-0.1 3,-1.6 4,-2.2 L 36.2,25.7 33.1,4.6 A 1.22,1.22 0 0 0 32.8,3.7 c 0,0 1.5,20.2 1.5,22.4 a 6.53,6.53 0 0 1 -1.9,4.6 z"
       fill="url(#f)"
       id="path174"
       style="fill:url(#f)" />
    <path
       d="M 31.7,32.1 C 31.7,32 31.6,31.9 31.5,32 L 7.3,45.7 a 2,2 0 0 0 2,0.2 l 22.6,-9.1 z"
       fill-opacity="0.8"
       fill="url(#g)"
       id="path176"
       style="fill:url(#g)" />
    <path
       d="m 9.3,45.8 22.6,-9.1 -0.2,-4.4 a 5.73,5.73 0 0 1 -3,3.5 c -1.4,0.8 -14.8,7.4 -19.6,9.7 a 6.31,6.31 0 0 1 -0.9,0.4 1.1,1.1 0 0 0 1.1,-0.1 z"
       style="isolation:isolate;fill:url(#h)"
       opacity="0.8"
       fill="url(#h)"
       id="path178" />
    <path
       d="m 32.5,30.6 -0.1,0.1 c 0,0 0,0.2 0.2,0.1 0.2,-0.1 3,-1.6 4,-2.2 L 33.1,4.6 A 1.74,1.74 0 0 0 31.9,3 l 0.4,27.8 z"
       fill="url(#i)"
       id="path180"
       style="fill:url(#i)" />
    <path
       d="m 32.5,30.6 -0.1,0.1 c 0,0 0,0.2 0.2,0.1 0.2,-0.1 3,-1.6 4,-2.2 L 33.1,4.6 A 1.74,1.74 0 0 0 31.9,3 l 0.4,27.8 z"
       fill="url(#j)"
       id="path182"
       style="fill:url(#j)" />
    <path
       d="M 5.1,43.7 C 4.4,42.1 0.4,34.3 4.8,19.3 H 3.1 a 49.48,49.48 0 0 0 -2,7.5 c 0,0 -0.2,1 -0.3,2.1 a 22.75,22.75 0 0 0 -0.1,2.4 26.18,26.18 0 0 0 1.5,9.5 29.19,29.19 0 0 0 8.2,12.9 28.68,28.68 0 0 0 12.6,5.9 C 22.3,59.5 10.3,54.4 5.1,43.7 Z"
       fill="url(#k)"
       id="path184"
       style="fill:url(#k)" />
    <path
       d="m 32.4,31.9 h -0.9 c 0.1,0 0.2,0 0.2,0.1 l 0.2,4.6 H 32 L 32.2,32 c 0,-0.1 0.1,-0.2 0.2,-0.1 z"
       fill="url(#l)"
       id="path186"
       style="fill:url(#l)" />
    <path
       d="m 42,1.6 c 10.5,4 20.4,15 20.4,28.9 A 30.34,30.34 0 0 1 32,61 v 1.6 a 31.32,31.32 0 0 0 10,-61 z"
       fill="url(#m)"
       id="path188"
       style="fill:url(#m)" />
    <path
       d="M 58.8,19.5 C 51.8,3.4 36,2.5 35.1,2.4 H 35 c 12.1,2.2 19.8,10.1 22.5,18.4 v 0.1 a 31.39,31.39 0 0 1 1.9,10.3 27.34,27.34 0 0 1 -2.2,11 c -0.1,0.5 -0.2,1.1 -0.3,1.1 h 1.6 c 4.8,-9 2.7,-18.1 0.3,-23.8 z"
       fill="url(#n)"
       id="path190"
       style="fill:url(#n)" />
    <path
       d="M 2.2,31.4 A 29.9,29.9 0 0 1 32,1.5 29.83,29.83 0 0 1 61.8,31.4 29.73,29.73 0 0 1 32,61.1 29.73,29.73 0 0 1 2.2,31.4 Z M 11.5,10.8 A 29.11,29.11 0 0 0 2.9,31.4 29,29 0 0 0 11.4,51.9 29.45,29.45 0 0 0 32,60.4 28.62,28.62 0 0 0 52.5,51.9 28.62,28.62 0 0 0 61,31.4 29.45,29.45 0 0 0 52.5,10.8 28.7,28.7 0 0 0 32,2.2 28.7,28.7 0 0 0 11.5,10.8 Z"
       fill="#fbfbfb"
       id="path192" />
    <path
       d="M 7.9,44.1 28.3,29.4 a 20.69,20.69 0 0 0 3.1,1.4 c 0.2,0.1 0.2,-0.1 0.2,-0.1 L 29.1,28.6 A 0.91,0.91 0 0 1 28.7,27.8 L 31.1,3.7 C 31,3.8 31,4 30.9,4.1 A 0.9,0.9 0 0 0 30.8,4.6 L 27.3,28.7 8.1,43.8 C 8,43.9 7.9,44 7.9,44.1 Z"
       fill="#333f47"
       id="path194" />
  </g>
</svg>
