<?xml version="1.0" encoding="UTF-8" standalone="no"?>
<svg
   xmlns:dc="http://purl.org/dc/elements/1.1/"
   xmlns:cc="http://creativecommons.org/ns#"
   xmlns:rdf="http://www.w3.org/1999/02/22-rdf-syntax-ns#"
   xmlns:svg="http://www.w3.org/2000/svg"
   xmlns="http://www.w3.org/2000/svg"
   xmlns:sodipodi="http://sodipodi.sourceforge.net/DTD/sodipodi-0.dtd"
   xmlns:inkscape="http://www.inkscape.org/namespaces/inkscape"
   height="300.34439"
   width="202.87627"
   version="1.1"
   id="svg28"
   sodipodi:docname="7-adidas.svg"
   inkscape:version="1.0.2 (e86c870879, 2021-01-15, custom)">
  <metadata
     id="metadata34">
    <rdf:RDF>
      <cc:Work
         rdf:about="">
        <dc:format>image/svg+xml</dc:format>
        <dc:type
           rdf:resource="http://purl.org/dc/dcmitype/StillImage" />
        <dc:title></dc:title>
      </cc:Work>
    </rdf:RDF>
  </metadata>
  <defs
     id="defs32" />
  <sodipodi:namedview
     pagecolor="#ffffff"
     bordercolor="#666666"
     borderopacity="1"
     objecttolerance="10"
     gridtolerance="10"
     guidetolerance="10"
     inkscape:pageopacity="0"
     inkscape:pageshadow="2"
     inkscape:window-width="1912"
     inkscape:window-height="1011"
     id="namedview30"
     showgrid="false"
     fit-margin-top="0"
     fit-margin-left="0"
     fit-margin-right="0"
     fit-margin-bottom="0"
     inkscape:zoom="3.5002692"
     inkscape:cx="101.06559"
     inkscape:cy="149.37144"
     inkscape:window-x="0"
     inkscape:window-y="36"
     inkscape:window-maximized="1"
     inkscape:current-layer="svg28" />
  <g
     id="g49"
     transform="rotate(-90,150.01768,151.01768)">
    <g
       clip-path="url(#d)"
       transform="matrix(21.955,0,0,-21.955,-2043.1,10481)"
       id="g4">
      <path
         d="m 105.72,468.11 c -0.64,0 -1.02,0.33 -1.05,0.8 h 0.61 c 0,-0.16 0.1,-0.37 0.47,-0.38 0.26,0 0.4,0.16 0.4,0.27 -0.02,0.19 -0.26,0.2 -0.49,0.24 -0.26,0.04 -0.46,0.1 -0.6,0.16 a 0.6,0.6 0 0 0 -0.33,0.56 c 0,0.42 0.35,0.74 0.96,0.74 0.58,0 0.96,-0.3 0.99,-0.75 h -0.58 c 0,0.11 -0.03,0.31 -0.38,0.31 -0.23,0 -0.38,-0.04 -0.4,-0.2 0,-0.25 0.49,-0.23 0.87,-0.32 0.34,-0.1 0.58,-0.32 0.58,-0.63 0,-0.58 -0.47,-0.8 -1.05,-0.8"
         id="path2" />
    </g>
    <path
       d="M 33.54,118.8 77.58,93.22 101.2,133.75 H 41.84"
       id="path6" />
    <path
       d="M 126.15,202.12 V 150.96"
       stroke="#000000"
       stroke-width="12.95"
       id="path8" />
    <g
       clip-path="url(#c)"
       transform="matrix(21.955,0,0,-21.955,-2043.1,10481)"
       id="g12">
      <path
         d="m 93.66,469.31 c 0,-0.37 0.32,-0.67 0.66,-0.67 0.38,0 0.67,0.3 0.67,0.67 0,0.35 -0.29,0.67 -0.67,0.67 a 0.7,0.7 0 0 1 -0.66,-0.67 m 0.63,-1.2 a 1.2,1.2 0 1 0 0,2.4 c 0.27,0 0.5,-0.08 0.7,-0.22 v 0.18 h 0.58 v -2.31 H 95 v 0.14 a 1.2,1.2 0 0 0 -0.7,-0.2"
         id="path10" />
    </g>
    <path
       d="M 197.59,133.74 136.31,26.86 180.36,1 l 76.6,132.74"
       id="path14" />
    <g
       clip-path="url(#b)"
       transform="matrix(21.955,0,0,-21.955,-2043.1,10481)"
       id="g18">
      <path
         d="m 96.33,469.31 c 0,-0.37 0.3,-0.67 0.67,-0.67 0.35,0 0.67,0.3 0.67,0.67 a 0.7,0.7 0 0 1 -0.67,0.67 0.67,0.67 0 0 1 -0.67,-0.67 m 0.64,-1.2 c -0.67,0 -1.2,0.53 -1.2,1.2 0,0.67 0.53,1.2 1.2,1.2 0.26,0 0.5,-0.08 0.7,-0.22 v 0.98 h 0.58 v -3.11 h -0.58 v 0.14 c -0.2,-0.13 -0.44,-0.2 -0.7,-0.2"
         id="path16" />
    </g>
    <path
       d="m 85.25,73.12 44.68,-25.27 49.15,85.89 h -46.6 v 12.64 h -12.76 v -12.64"
       id="path20" />
    <g
       clip-path="url(#a)"
       transform="matrix(21.955,0,0,-21.955,-2043.1,10481)"
       id="g26">
      <path
         d="m 106.39,470.7 c -0.15,0 -0.3,0.13 -0.3,0.29 0,0.16 0.15,0.29 0.3,0.29 0.17,0 0.3,-0.13 0.3,-0.3 0,-0.17 -0.13,-0.28 -0.3,-0.28 m 0,0.54 c -0.15,0 -0.23,-0.12 -0.23,-0.25 0,-0.13 0.08,-0.25 0.23,-0.25 0.14,0 0.23,0.12 0.23,0.25 0,0.13 -0.09,0.25 -0.23,0.25"
         id="path22" />
      <path
         d="m 106.45,470.83 -0.06,0.13 h -0.06 v -0.13 h -0.04 v 0.31 h 0.13 c 0.03,0 0.09,-0.04 0.09,-0.09 0,-0.05 -0.03,-0.08 -0.06,-0.09 l 0.06,-0.13 m -0.12,0.27 h -0.06 V 471 h 0.06 c 0.06,0 0.06,0.01 0.06,0.05 0,0.03 0,0.05 -0.06,0.05 m -3.84,-1.79 c 0,-0.37 0.3,-0.67 0.67,-0.67 0.35,0 0.67,0.3 0.67,0.67 a 0.7,0.7 0 0 1 -0.67,0.67 0.67,0.67 0 0 1 -0.67,-0.67 m 0.64,-1.2 c -0.67,0 -1.2,0.53 -1.2,1.2 0,0.67 0.53,1.2 1.2,1.2 0.26,0 0.5,-0.08 0.7,-0.22 v 0.18 h 0.55 v -2.31 h -0.55 v 0.14 c -0.2,-0.13 -0.44,-0.2 -0.7,-0.2 m -3.31,1.21 c 0,-0.37 0.32,-0.67 0.67,-0.67 0.37,0 0.66,0.3 0.66,0.67 0,0.35 -0.29,0.67 -0.66,0.67 a 0.7,0.7 0 0 1 -0.67,-0.67 m 1.33,1.96 h 0.59 v -3.11 h -0.59 v 0.14 a 1.1,1.1 0 0 0 -0.66,-0.2 c -0.67,0 -1.23,0.54 -1.23,1.21 0,0.67 0.56,1.2 1.23,1.2 0.26,0 0.49,-0.07 0.66,-0.22 z"
         id="path24" />
    </g>
  </g>
</svg>
