<?xml version="1.0" encoding="UTF-8" standalone="no"?>
<svg
   xmlns:dc="http://purl.org/dc/elements/1.1/"
   xmlns:cc="http://creativecommons.org/ns#"
   xmlns:rdf="http://www.w3.org/1999/02/22-rdf-syntax-ns#"
   xmlns:svg="http://www.w3.org/2000/svg"
   xmlns="http://www.w3.org/2000/svg"
   xmlns:sodipodi="http://sodipodi.sourceforge.net/DTD/sodipodi-0.dtd"
   xmlns:inkscape="http://www.inkscape.org/namespaces/inkscape"
   width="149.18889"
   height="299.94839"
   version="1.1"
   id="svg6"
   sodipodi:docname="9-puma.svg"
   inkscape:version="1.0.2 (e86c870879, 2021-01-15, custom)">
  <metadata
     id="metadata12">
    <rdf:RDF>
      <cc:Work
         rdf:about="">
        <dc:format>image/svg+xml</dc:format>
        <dc:type
           rdf:resource="http://purl.org/dc/dcmitype/StillImage" />
        <dc:title></dc:title>
      </cc:Work>
    </rdf:RDF>
  </metadata>
  <defs
     id="defs10" />
  <sodipodi:namedview
     pagecolor="#ffffff"
     bordercolor="#666666"
     borderopacity="1"
     objecttolerance="10"
     gridtolerance="10"
     guidetolerance="10"
     inkscape:pageopacity="0"
     inkscape:pageshadow="2"
     inkscape:window-width="1912"
     inkscape:window-height="1011"
     id="namedview8"
     showgrid="false"
     fit-margin-top="0"
     fit-margin-left="0"
     fit-margin-right="0"
     fit-margin-bottom="0"
     inkscape:zoom="4.7941532"
     inkscape:cx="74.620242"
     inkscape:cy="149.94864"
     inkscape:window-x="0"
     inkscape:window-y="36"
     inkscape:window-maximized="1"
     inkscape:current-layer="svg6" />
  <path
     d="m 0.50888009,138.2584 c 0.15,1 3.76000001,1.93 5.64000001,3.82 1.36,1.39 1.28,3.12 3,4 0.63,0.35 1.6999999,0.24 2.7199999,0.63 2.06,0.78 2.24,3.5 4.48,3.5 2.42,0 2.88,-2.27 4.6,-4.25 1.38,-1.54 2.33,-1.69 3,-3.56 0.54,-1.6 -1.23,-4 -0.59,-6.11 0.52,-1.75 0.9,-3.43 2.700002,-3.83 1.8,-0.4 4.24,0 3.94,2.15 a 23.22,23.22 0 0 0 -0.72,7.65 c 0.52,4.61 2,9.87 7.17,10.39 2.87,0.28 6.26,-3.27 5.57,-6.7 -0.46,-2.37 -3.26,-1.25 -4.62,-2.54 -1.74,-1.7 6.08,-11.3 6.08,-20.21 a 11.67,11.67 0 0 0 -3.89,-9.25 c -0.22,-0.26 -0.7,-0.57 -0.73,-1 a 3.51,3.51 0 0 1 0.56,-1.26 c 5.77,-7.18 17.36,-12.620004 17.49,-39.000005 a 17.81,17.81 0 0 1 4.95,-11.399999 c 2.85,-3.08 7.28,-4.88 11.78,-6.63 6.75,-2.65 13.31,-7.38 20.61,-14.56 0.39,-0.39 5,-6.3 5.33,-6.78 a 2.89,2.89 0 0 1 1.669998,-0.36 c 4.38,0.17 17.11,0.81 17.69,-8.68 0.12,-2.32 -1.52,-1.71 -2.64,-1.71 -2.22,0 -4.42,0.41 -6.7,-0.76 -3.12,-1.6 -4.56,3.39 -11.309998,3.25 -5,-0.1 -4.18,4.13 -8,6.27 -2.22,1.24 -3.4,2.34 -6.12,2.26 -15.3,-0.48 -25.35,3.25 -27.82,5.12 -1.86,1.46 -2.6,2.66 -3.46,1.33 -5.24,-7.92 -10.1,-9.72 -10.1,-9.72 -9.9,-4.21 -18.950002,-8 -22.930002,-13.23 a 38.66,38.66 0 0 1 -3.63,-5.4 c -2.3,-4.8800005 -3.69,-7.4400005 -5.07,-8.8600005 -2.1799999,-2.23999998 -6.7399999,-4 -9.4999999,-1.85999998 -3.41,2.66999998 -0.70000001,7.28999998 0.51,9.33000048 8.6399999,14.51 23.8900019,16.65 32.6400019,21.7 7,4 12.14,10.57 12.56,16.42 a 29.19,29.19 0 0 1 -2.63,13.82 69.77,69.77 0 0 1 -12.65,19.199999 c -2.37,3.07 -25.8200019,27.000005 -26.7800019,46.310005 0,0 -4.81000001,2.4 -4.89000001,3 -0.18,1.41 2.87000001,2.86 3.23000001,3.9 0.36,1.04 -3.30000001,2.63 -3.14000001,3.61 m 139.91999991,85.18 a 3.45,3.45 0 0 1 -3.38,3.37 H 76.688882 v 19.89 h 66.529998 a 5.91,5.91 0 0 0 5.92,-5.88 v -34.77 a 5.89,5.89 0 0 0 -5.92,-5.88 H 76.688882 v 19.88 h 60.359998 a 3.45,3.45 0 0 1 3.38,3.38 m -63.739998,-66.59 v 30.11 a 6.48,6.48 0 0 0 6.5,6.47 h 65.999998 v -19.91 H 88.638882 a 3.3800925,3.3800925 0 0 1 -0.05,-6.76 h 60.549998 v -19.8 H 88.588882 a 3.32,3.32 0 0 1 -3.27,-3.37 3.36,3.36 0 0 1 3.32,-3.37 h 60.499998 v -19.91 H 83.138882 a 6.49,6.49 0 0 0 -6.5,6.47 v 30.07 m 54.299998,103.11 v 20.12 h 18.21 v 19.88 H 76.688882 v -40.11 a 6.42,6.42 0 0 1 6.53,-6.39 h 41.189998 a 6.51,6.51 0 0 1 6.53,6.5 z m -42.169998,13.37 a 3.4,3.4 0 0 0 -3.45,3.37 v 3.38 h 36.679998 v -3.38 a 3.36,3.36 0 0 0 -3.4,-3.37 H 88.768882"
     id="path2" />
  <path
     d="m 149.13888,86.878396 h -18.14 v 6.76 h 18.19 V 113.5084 H 83.188882 a 6.48,6.48 0 0 1 -6.5,-6.47 V 73.468395 a 6.48,6.48 0 0 1 6.5,-6.47 h 65.999998 z m -27.17,0 H 88.618882 a 3.3800925,3.3800925 0 0 0 0.05,6.76 h 33.329998 v -6.76"
     id="path4" />
</svg>
